<svg width="47" height="47" viewBox="0 0 47 47" fill="none" xmlns="http://www.w3.org/2000/svg">
<g id="claim 1">
<g id="_x33_">
<g id="Group">
<g id="Group_2">
<g id="Group_3">
<path id="Vector" d="M41.8899 9.84079V14.8842C41.8899 15.4266 41.4473 15.8694 40.9049 15.8694H40.4167V8.86462H40.9049C41.4473 8.86462 41.8899 9.29845 41.8899 9.84079Z" fill="#474646"/>
</g>
</g>
<g id="Group_4">
<g id="Group_5">
<path id="Vector_2" d="M40.4164 8.86493H41.2072V15.8697H40.4164V8.86493Z" fill="#1B1B1B"/>
</g>
</g>
<g id="Group_6">
<g id="Group_7">
<path id="Vector_3" d="M35.807 45.1923H9.71993C7.17406 45.1923 5.11023 43.1285 5.11023 40.5826V6.41739C5.11023 3.87153 7.17406 1.80769 9.71993 1.80769H35.807C38.3529 1.80769 40.4167 3.87153 40.4167 6.41739V40.5826C40.4167 43.1285 38.3529 45.1923 35.807 45.1923Z" fill="#474646"/>
</g>
</g>
<g id="Group_8">
<g id="Group_9">
<path id="Vector_4" d="M40.4168 6.41518V40.5806C40.4168 43.1294 38.356 45.1902 35.8071 45.1902H9.72218C8.45689 45.1902 7.30898 44.6841 6.47729 43.8616C7.05588 44.1327 7.71567 44.2864 8.4026 44.2864H34.4965C37.0364 44.2864 39.1062 42.2256 39.1062 39.6768V5.51133C39.1062 4.21884 38.5729 3.0529 37.7052 2.21233C39.305 2.93539 40.4168 4.55326 40.4168 6.41518Z" fill="#2D2C2C"/>
</g>
</g>
<g id="Group_10">
<g id="Group_11">
<path id="Vector_5" d="M9.71946 39.7692C9.17133 39.7692 8.72559 39.3235 8.72559 38.7753V6.41783C8.72559 5.86969 9.17133 5.42307 9.71946 5.42307H35.8074C36.3556 5.42307 36.8013 5.86969 36.8013 6.41783V38.7753C36.8013 39.3235 36.3556 39.7692 35.8074 39.7692H9.71946Z" fill="white"/>
</g>
</g>
<g id="Group_12">
<g id="Group_13">
<path id="Vector_6" d="M36.8013 6.41518V6.52364H10.9603C10.4181 6.52364 9.96616 6.97556 9.96616 7.52695V39.7671H9.7221C9.17066 39.7671 8.72778 39.3243 8.72778 38.7729V6.41518C8.72778 5.8729 9.17066 5.42097 9.7221 5.42097H35.807C36.3584 5.42097 36.8013 5.8729 36.8013 6.41518Z" fill="#E4E3FF"/>
</g>
</g>
<g id="Group_14">
<g id="Group_15">
<path id="Vector_7" d="M12.4471 11.0839C12.4471 9.68509 13.386 8.81369 14.66 8.81369C15.1403 8.81369 15.5705 8.90506 16.1022 9.20559C16.2642 9.29351 16.2815 9.49755 16.172 9.61338C16.091 9.69744 15.9604 9.704 15.8745 9.66105C15.4441 9.43557 15.1205 9.36359 14.7174 9.36359C13.643 9.36359 13.0226 10.0651 13.0226 11.0839C13.0226 12.1069 13.644 12.8033 14.7174 12.8033C15.1022 12.8033 15.4317 12.7387 15.8745 12.5067C15.9595 12.4643 16.0913 12.4702 16.172 12.5509C16.2766 12.6555 16.271 12.8697 16.1022 12.9613C15.5918 13.2519 15.1614 13.3541 14.66 13.3541C13.381 13.3541 12.4471 12.4774 12.4471 11.0839Z" fill="#FC6559"/>
<path id="Vector_8" d="M14.6599 13.4441C13.3389 13.4441 12.3571 12.5347 12.3571 11.0839C12.3571 9.65407 13.3164 8.72366 14.6599 8.72366C15.1621 8.72366 15.6101 8.82272 16.1463 9.12704C16.3599 9.24241 16.3869 9.51915 16.2372 9.67517C16.1366 9.78021 15.9654 9.80581 15.8339 9.74226C15.4208 9.52466 15.1097 9.45363 14.7173 9.45363C13.6961 9.45363 13.1126 10.1161 13.1126 11.0839C13.1126 12.0664 13.7036 12.7133 14.7173 12.7133C15.106 12.7133 15.4161 12.6448 15.8321 12.4264C15.9689 12.3602 16.1375 12.3876 16.2355 12.4873C16.3788 12.6286 16.3718 12.9177 16.1454 13.0408C15.6262 13.3369 15.1773 13.4441 14.6599 13.4441ZM14.6599 13.2641C15.1513 13.2641 15.5664 13.1624 16.0572 12.8828C16.1719 12.8208 16.173 12.6811 16.1084 12.6144C16.0616 12.5694 15.9751 12.5553 15.9151 12.588C15.4602 12.824 15.1196 12.8934 14.7173 12.8934C13.602 12.8934 12.9326 12.1653 12.9326 11.0839C12.9326 10.013 13.5938 9.27356 14.7173 9.27356C15.1389 9.27356 15.4747 9.34941 15.9168 9.58073C15.9707 9.60986 16.0598 9.59838 16.1066 9.55072C16.1773 9.47798 16.1675 9.34385 16.0589 9.28504C15.5612 9.00293 15.1474 8.90373 14.6599 8.90373C13.4444 8.90373 12.5371 9.72788 12.5371 11.0839C12.5371 12.4239 13.4307 13.2641 14.6599 13.2641Z" fill="#FC6559"/>
</g>
<g id="Group_16">
<path id="Vector_9" d="M17.2656 12.8925V9.13587C17.2656 8.98112 17.3824 8.84547 17.5498 8.84547C17.7163 8.84547 17.8411 8.97924 17.8411 9.13587V12.7151H19.9083C20.0698 12.7151 20.1996 12.8446 20.1996 13.0063C20.1996 13.1687 20.0683 13.2906 19.9083 13.2906H17.6637C17.4448 13.2906 17.2656 13.1141 17.2656 12.8925Z" fill="#FC6559"/>
<path id="Vector_10" d="M19.9083 13.3806H17.6636C17.3944 13.3806 17.1755 13.1642 17.1755 12.8925V9.13587C17.1755 8.62347 17.9311 8.64376 17.9311 9.13587V12.625H19.9083C20.1189 12.625 20.2896 12.7924 20.2896 13.0063C20.2896 13.2193 20.1188 13.3806 19.9083 13.3806ZM17.5498 8.9355C17.4336 8.9355 17.3556 9.03119 17.3556 9.13587V12.8925C17.3556 13.0659 17.4966 13.2005 17.6636 13.2005H19.9083C20.0194 13.2005 20.1095 13.1162 20.1095 13.0063C20.1095 12.894 20.0173 12.8051 19.9083 12.8051H17.751V9.13587C17.751 9.02344 17.6609 8.9355 17.5498 8.9355Z" fill="#FC6559"/>
</g>
<g id="Group_17">
<path id="Vector_11" d="M20.7213 13.2402C20.6404 13.1567 20.6177 13.0437 20.6736 12.911L22.2862 9.10408C22.3198 9.02905 22.3674 8.96638 22.4283 8.91784C22.4893 8.86929 22.5643 8.84546 22.6525 8.84546H22.7161C22.8044 8.84546 22.8794 8.86929 22.9403 8.91784C23.0012 8.96638 23.0489 9.02905 23.0824 9.10408L24.695 12.911C24.7162 12.9613 24.7268 13.0037 24.7268 13.0372C24.7268 13.1943 24.6167 13.3223 24.4426 13.3223C24.3227 13.3223 24.2194 13.2528 24.1707 13.1449L23.7594 12.159H21.6092L21.1988 13.1449C21.148 13.2536 21.0455 13.3223 20.9269 13.3223C20.8422 13.3223 20.7734 13.295 20.7213 13.2402ZM21.8308 11.6338H23.5379L22.6843 9.57895L21.8308 11.6338Z" fill="#FC6559"/>
<path id="Vector_12" d="M24.4425 13.4124C24.286 13.4124 24.1522 13.3233 24.0886 13.182L23.6993 12.249H21.6692L21.2826 13.1793C21.157 13.4498 20.8259 13.478 20.6559 13.3029C20.5535 13.1966 20.519 13.0451 20.5906 12.8757L22.2032 9.06878C22.2429 8.97875 22.3003 8.9046 22.3718 8.84723C22.4486 8.78633 22.543 8.75543 22.6525 8.75543H22.716C22.8255 8.75543 22.9199 8.78633 22.9967 8.84723C23.0682 8.9046 23.1256 8.97875 23.1644 9.06701L24.7779 12.8757C24.8044 12.9384 24.8168 12.9904 24.8168 13.0372C24.8168 13.2412 24.6712 13.4124 24.4425 13.4124ZM21.5492 12.0689H23.8194L24.2545 13.1105C24.2704 13.1467 24.296 13.1767 24.3304 13.1988C24.4548 13.2799 24.6367 13.2117 24.6367 13.0372C24.6367 13.0249 24.6332 12.9975 24.612 12.9463L22.9994 9.13939C22.972 9.07937 22.9332 9.02817 22.8837 8.98845C22.8396 8.95315 22.7849 8.9355 22.716 8.9355H22.6525C22.5836 8.9355 22.5289 8.95315 22.4848 8.98845C22.4354 9.02817 22.3965 9.07937 22.3683 9.14116L20.7565 12.9463C20.7205 13.0335 20.7209 13.1104 20.7865 13.1776C20.8722 13.2698 21.0482 13.2504 21.1167 13.107L21.5492 12.0689ZM23.6728 11.7238H21.6957L22.6843 9.34329L23.6728 11.7238ZM21.9658 11.5438H23.4028L22.6843 9.81463L21.9658 11.5438Z" fill="#FC6559"/>
</g>
<g id="Group_18">
<path id="Vector_13" d="M25.8142 13.0372V9.13587C25.8142 9.05643 25.8416 8.98758 25.8963 8.93021C25.951 8.87372 26.0181 8.84547 26.0984 8.84547C26.1787 8.84547 26.2476 8.87372 26.3041 8.93021C26.3615 8.98758 26.3897 9.05643 26.3897 9.13587V13.0372C26.3897 13.2032 26.256 13.3223 26.0984 13.3223C25.9389 13.3223 25.8142 13.2006 25.8142 13.0372Z" fill="#FC6559"/>
<path id="Vector_14" d="M26.0984 13.4124C25.8904 13.4124 25.7241 13.2525 25.7241 13.0372V9.13587C25.7241 9.0326 25.7594 8.94256 25.8309 8.86754C25.9757 8.71748 26.2211 8.71837 26.3676 8.86665C26.4426 8.9408 26.4797 9.03171 26.4797 9.13587V13.0372C26.4797 13.2567 26.3038 13.4124 26.0984 13.4124ZM26.0984 8.9355C26.0428 8.9355 25.9986 8.95404 25.9616 8.99288C25.9236 9.0326 25.9042 9.07938 25.9042 9.13587V13.0372C25.9042 13.0937 25.9227 13.1387 25.9598 13.1767C26.0805 13.2974 26.2996 13.2135 26.2996 13.0372V9.13587C26.2996 9.08026 26.2802 9.03348 26.2405 8.99376C26.2008 8.95492 26.1549 8.9355 26.0984 8.9355Z" fill="#FC6559"/>
</g>
<g id="Group_19">
<path id="Vector_15" d="M27.8566 13.2402C27.8019 13.1855 27.7745 13.1175 27.7745 13.0372V9.26296C27.7745 9.14909 27.8143 9.05112 27.8946 8.96815C27.9749 8.88606 28.072 8.84546 28.1859 8.84546H28.3942C28.478 8.84546 28.5557 8.87017 28.6245 8.92137C28.6943 8.97168 28.7463 9.03523 28.7799 9.11114L30.2151 12.6895L31.6503 9.11114C31.6847 9.03523 31.7359 8.97168 31.8057 8.92137C31.8754 8.87017 31.9522 8.84546 32.036 8.84546H32.2452C32.3591 8.84546 32.4562 8.88606 32.5356 8.96815C32.6159 9.05112 32.6557 9.14909 32.6557 9.26296V13.0372C32.6557 13.1175 32.6283 13.1855 32.5736 13.2402C32.5188 13.295 32.4518 13.3223 32.3714 13.3223C32.2911 13.3223 32.2232 13.295 32.1658 13.2402C32.1093 13.1855 32.081 13.1175 32.081 13.0372V9.44567L30.6202 13.0566C30.5858 13.137 30.532 13.2014 30.4587 13.2491C30.3846 13.2976 30.3034 13.3223 30.2151 13.3223C30.1268 13.3223 30.0456 13.2976 29.9715 13.2491C29.8982 13.2014 29.8444 13.137 29.8108 13.0566L28.35 9.44567V13.0372C28.35 13.1175 28.3218 13.1855 28.2644 13.2402C28.2079 13.295 28.1391 13.3223 28.0588 13.3223C27.9784 13.3223 27.9113 13.295 27.8566 13.2402Z" fill="#FC6559"/>
<path id="Vector_16" d="M32.3714 13.4124C32.2681 13.4124 32.1781 13.3771 32.1031 13.3056C32.028 13.2332 31.991 13.1431 31.991 13.0372V9.90995L30.704 13.0902C30.6617 13.189 30.5964 13.2676 30.5081 13.325C30.3298 13.4415 30.1003 13.4415 29.922 13.325C29.8337 13.2667 29.7675 13.189 29.7278 13.0911L28.44 9.90995V13.0372C28.44 13.1431 28.4021 13.2341 28.327 13.3056C28.1805 13.4468 27.936 13.4485 27.793 13.3038C27.7206 13.2323 27.6844 13.1423 27.6844 13.0372V9.26296C27.6844 9.12527 27.733 9.00523 27.8292 8.90548C27.9272 8.80574 28.0472 8.75543 28.1858 8.75543H28.3941C28.4991 8.75543 28.5945 8.78633 28.6783 8.84899C28.7604 8.90813 28.8222 8.98404 28.8628 9.07496L30.215 12.4467L31.5664 9.0776C31.6096 8.98228 31.6714 8.90637 31.7526 8.84811C31.8365 8.78633 31.9318 8.75543 32.036 8.75543H32.2452C32.3846 8.75543 32.5038 8.80574 32.6009 8.90548C32.6971 9.00523 32.7456 9.12527 32.7456 9.26296V13.0372C32.7456 13.1423 32.7094 13.2323 32.6371 13.3038C32.5656 13.3762 32.4755 13.4124 32.3714 13.4124ZM32.171 8.98139V13.0372C32.171 13.0937 32.1896 13.1379 32.2284 13.1749C32.3096 13.2526 32.4341 13.2526 32.51 13.1767C32.547 13.1387 32.5656 13.0937 32.5656 13.0372V9.26296C32.5656 9.17293 32.5347 9.09702 32.4702 9.03082C32.4085 8.96727 32.3352 8.9355 32.2452 8.9355H32.036C31.9707 8.9355 31.9124 8.95491 31.8594 8.99463C31.8021 9.03524 31.7615 9.08555 31.7323 9.14822L30.215 12.9322L28.696 9.14469C28.6704 9.08731 28.628 9.03524 28.5715 8.99463C28.5177 8.95491 28.4603 8.9355 28.3941 8.9355H28.1858C28.0958 8.9355 28.0216 8.96727 27.959 9.03171C27.8954 9.09702 27.8645 9.17293 27.8645 9.26296V13.0372C27.8645 13.0937 27.883 13.1387 27.9201 13.1767C27.996 13.2526 28.1222 13.2526 28.2017 13.1749C28.2414 13.137 28.2599 13.0937 28.2599 13.0372V8.98139L29.8946 13.0231C29.9211 13.0858 29.9626 13.1352 30.0209 13.1732C30.1409 13.2526 30.2892 13.2526 30.4092 13.1732C30.4675 13.1352 30.5099 13.0858 30.5372 13.0213L32.171 8.98139Z" fill="#FC6559"/>
</g>
</g>
<g id="Group_20">
<g id="Group_21">
<path id="Vector_17" d="M22.7643 43.4244C23.4506 43.4244 24.0071 42.868 24.0071 42.1816C24.0071 41.4952 23.4506 40.9388 22.7643 40.9388C22.0779 40.9388 21.5215 41.4952 21.5215 42.1816C21.5215 42.868 22.0779 43.4244 22.7643 43.4244Z" fill="#2D2C2C"/>
</g>
</g>
<g id="Group_22">
<g id="Group_23">
<path id="Vector_18" d="M15.9728 36.726C18.2786 36.726 20.1477 34.8568 20.1477 32.5511C20.1477 30.2454 18.2786 28.3763 15.9728 28.3763C13.6671 28.3763 11.798 30.2454 11.798 32.5511C11.798 34.8568 13.6671 36.726 15.9728 36.726Z" fill="#F9B938"/>
</g>
</g>
<g id="Group_24">
<g id="Group_25">
<g id="Group_26">
<path id="Vector_19" d="M33.729 30.416H22.596C22.3462 30.416 22.144 30.2138 22.144 29.964C22.144 29.7142 22.3462 29.5121 22.596 29.5121H33.729C33.9788 29.5121 34.1809 29.7142 34.1809 29.964C34.1809 30.2138 33.9788 30.416 33.729 30.416Z" fill="#E4E3FF"/>
</g>
</g>
<g id="Group_27">
<g id="Group_28">
<path id="Vector_20" d="M33.729 33.003H22.596C22.3462 33.003 22.144 32.8009 22.144 32.5511C22.144 32.3013 22.3462 32.0992 22.596 32.0992H33.729C33.9788 32.0992 34.1809 32.3013 34.1809 32.5511C34.1809 32.8009 33.9788 33.003 33.729 33.003Z" fill="#E4E3FF"/>
</g>
</g>
<g id="Group_29">
<g id="Group_30">
<path id="Vector_21" d="M27.944 35.5901H22.596C22.3462 35.5901 22.144 35.388 22.144 35.1382C22.144 34.8884 22.3462 34.6863 22.596 34.6863H27.944C28.1938 34.6863 28.3959 34.8884 28.3959 35.1382C28.3959 35.388 28.1938 35.5901 27.944 35.5901Z" fill="#E4E3FF"/>
</g>
</g>
</g>
<g id="Group_31">
<g id="Group_32">
<path id="Vector_22" d="M15.9728 24.8883C18.2786 24.8883 20.1477 23.0192 20.1477 20.7134C20.1477 18.4077 18.2786 16.5386 15.9728 16.5386C13.6671 16.5386 11.798 18.4077 11.798 20.7134C11.798 23.0192 13.6671 24.8883 15.9728 24.8883Z" fill="#00D67F"/>
</g>
</g>
<g id="Group_33">
<g id="Group_34">
<path id="Vector_23" d="M20.1435 32.5544C20.1435 34.8592 18.2816 36.7302 15.9767 36.7302C14.3226 36.7302 12.8947 35.7721 12.2258 34.3802C12.9849 35.266 14.1147 35.8264 15.3802 35.8264C17.6851 35.8264 19.5559 33.9554 19.5559 31.6506C19.5559 30.9998 19.4023 30.3852 19.1311 29.8339C19.7638 30.566 20.1435 31.5241 20.1435 32.5544Z" fill="#ECB021"/>
</g>
</g>
<g id="Group_35">
<g id="Group_36">
<path id="Vector_24" d="M20.1435 20.714C20.1435 23.0188 18.2816 24.8898 15.9767 24.8898C14.3226 24.8898 12.8947 23.9317 12.2258 22.5398C12.9849 23.4256 14.1147 23.986 15.3802 23.986C17.6851 23.986 19.5559 22.115 19.5559 19.8102C19.5559 19.1595 19.4023 18.5448 19.1311 17.9935C19.7638 18.7256 20.1435 19.6837 20.1435 20.714Z" fill="#00C179"/>
</g>
</g>
<g id="Group_37">
<g id="Group_38">
<g id="Group_39">
<path id="Vector_25" d="M33.729 18.5777H22.596C22.3462 18.5777 22.144 18.3756 22.144 18.1258C22.144 17.876 22.3462 17.6739 22.596 17.6739H33.729C33.9788 17.6739 34.1809 17.876 34.1809 18.1258C34.1809 18.3756 33.9788 18.5777 33.729 18.5777Z" fill="#E4E3FF"/>
</g>
</g>
<g id="Group_40">
<g id="Group_41">
<path id="Vector_26" d="M33.729 21.1648H22.596C22.3462 21.1648 22.144 20.9627 22.144 20.7129C22.144 20.4631 22.3462 20.2609 22.596 20.2609H33.729C33.9788 20.2609 34.1809 20.4631 34.1809 20.7129C34.1809 20.9627 33.9788 21.1648 33.729 21.1648Z" fill="#E4E3FF"/>
</g>
</g>
<g id="Group_42">
<g id="Group_43">
<path id="Vector_27" d="M27.944 23.7519H22.596C22.3462 23.7519 22.144 23.5497 22.144 23.2999C22.144 23.0502 22.3462 22.848 22.596 22.848H27.944C28.1938 22.848 28.3959 23.0502 28.3959 23.2999C28.3959 23.5497 28.1938 23.7519 27.944 23.7519Z" fill="#E4E3FF"/>
</g>
</g>
</g>
<g id="Group_44">
<g id="Group_45">
<path id="Vector_28" d="M15.3298 21.9821C15.3121 21.9821 15.2954 21.9812 15.2777 21.9795C15.1577 21.9654 15.0482 21.9036 14.9741 21.8091L14.2229 20.8506C14.0694 20.6537 14.1038 20.3695 14.2997 20.2159C14.4957 20.0632 14.7799 20.095 14.9344 20.2927L15.4039 20.892L17.0836 19.5442C17.2769 19.3889 17.562 19.4198 17.7183 19.6139C17.8745 19.8081 17.8436 20.0923 17.6486 20.2486L15.6122 21.8824C15.5319 21.9477 15.4322 21.9821 15.3298 21.9821Z" fill="white"/>
</g>
</g>
<g id="Group_46">
<g id="Group_47">
<path id="Vector_29" d="M15.3298 33.8204C15.3121 33.8204 15.2954 33.8195 15.2777 33.8177C15.1577 33.8036 15.0482 33.7418 14.9741 33.6474L14.2229 32.6879C14.0694 32.4911 14.1038 32.2069 14.2997 32.0533C14.4957 31.9006 14.7799 31.9333 14.9344 32.1301L15.4039 32.7294L17.0828 31.3816C17.2787 31.2263 17.562 31.2563 17.7183 31.4504C17.8745 31.6455 17.8436 31.9297 17.6494 32.086L15.6131 33.7207C15.5319 33.786 15.4322 33.8204 15.3298 33.8204Z" fill="white"/>
</g>
</g>
</g>
<g id="Group_48" opacity="0.3">
<g id="Group_49">
<g id="Group_50">
<path id="Vector_30" d="M6.84341 19.8591C6.51237 19.8591 6.24451 19.5912 6.24451 19.2602V12.8407C6.24451 12.5097 6.51237 12.2418 6.84341 12.2418C7.17444 12.2418 7.44231 12.5097 7.44231 12.8407V19.2602C7.44231 19.5912 7.17444 19.8591 6.84341 19.8591Z" fill="white"/>
</g>
</g>
</g>
<g id="Group_51" opacity="0.3">
<g id="Group_52">
<g id="Group_53">
<path id="Vector_31" d="M6.84341 10.5387C6.51237 10.5387 6.24451 10.2708 6.24451 9.9398V7.8185C6.24451 7.48747 6.51237 7.2196 6.84341 7.2196C7.17444 7.2196 7.44231 7.48747 7.44231 7.8185V9.9398C7.44231 10.2708 7.17444 10.5387 6.84341 10.5387Z" fill="white"/>
</g>
</g>
</g>
<g id="Group_54" opacity="0.3">
<g id="Group_55">
<g id="Group_56">
<path id="Vector_32" d="M19.106 3.34309C19.106 3.67412 18.8381 3.94199 18.5071 3.94199H13.729C13.398 3.94199 13.1301 3.67412 13.1301 3.34309C13.1301 3.01205 13.398 2.74419 13.729 2.74419H18.5071C18.8381 2.74419 19.106 3.01205 19.106 3.34309Z" fill="white"/>
</g>
</g>
</g>
</g>
</g>
</svg>
