<svg width="57" height="57" viewBox="0 0 57 57" fill="none" xmlns="http://www.w3.org/2000/svg">
<path fill-rule="evenodd" clip-rule="evenodd" d="M2.79291 41.1381C2.79291 41.1381 8.87283 35.9584 10.3122 33.382C11.7515 30.8057 23.2582 21.2763 24.9107 20.7992C26.5633 20.322 30.5237 20.4213 36.9803 17.7637C38.6238 17.0869 44.4251 16.9877 52.7283 15.7017C54.911 15.3633 55.0543 18.9966 50.5186 20.2261C51.9613 20.6773 51.5 23.2086 49.4605 24.4539C50.3347 25.1476 50.1306 26.1876 49.2609 28.0172C50.3889 28.0917 51.2529 29.4408 49.1706 30.9444C45.9716 33.2545 44.9835 35.7576 44.4691 36.1332C41.4235 38.3554 36.8766 40.194 30.4684 44.6485C27.865 46.4533 22.6852 47.3241 21.0045 48.1396C15.8811 50.6269 11.3702 55.836 11.3702 55.836L2.79291 41.1381Z" fill="#FABE8C"/>
<path d="M37.5037 30.3984C37.444 30.3984 37.3865 30.3762 37.3423 30.3361C37.2981 30.2959 37.2704 30.2408 37.2647 30.1814C37.2589 30.122 37.2754 30.0626 37.3111 30.0147C37.3467 29.9668 37.3989 29.9339 37.4575 29.9224C39.0732 29.5884 40.6682 29.1614 42.2346 28.6433C43.4639 27.881 44.6388 27.0341 45.7505 26.1086C45.7997 26.0681 45.863 26.0488 45.9265 26.0549C45.99 26.0611 46.0484 26.0921 46.0889 26.1414C46.1295 26.1906 46.1488 26.2539 46.1427 26.3173C46.1365 26.3808 46.1054 26.4392 46.0562 26.4798C44.9204 27.4263 43.7191 28.2913 42.4613 29.0685C42.4459 29.0776 42.4296 29.0852 42.4128 29.0911C40.8186 29.6196 39.1949 30.0546 37.55 30.3939C37.5348 30.3971 37.5193 30.3986 37.5037 30.3984Z" fill="black"/>
<path d="M46.8447 24.8995C46.787 24.8992 46.7313 24.8782 46.6878 24.8403C46.6443 24.8024 46.6159 24.7501 46.6078 24.693C46.5988 24.6321 46.4036 23.1894 47.1075 21.2538C47.4955 20.1867 48.2355 19.7874 48.7769 19.6317C49.6297 19.3982 50.4486 19.643 50.8491 19.9701C50.8984 20.0105 50.9297 20.0688 50.9361 20.1323C50.9424 20.1958 50.9233 20.2591 50.8829 20.3085C50.8425 20.3579 50.7842 20.3892 50.7207 20.3955C50.6573 20.4019 50.5939 20.3827 50.5445 20.3423C50.2343 20.0897 49.5553 19.916 48.9044 20.0953C48.4667 20.216 47.8768 20.5465 47.5587 21.4185C46.8988 23.2334 47.0816 24.6118 47.0838 24.6254C47.0925 24.6883 47.0759 24.7521 47.0376 24.8029C46.9994 24.8536 46.9426 24.8871 46.8796 24.8961L46.8447 24.8995Z" fill="black"/>
<path d="M38.1365 25.2886C38.0728 25.291 38.0107 25.268 37.9639 25.2246C37.9172 25.1813 37.8896 25.1211 37.8872 25.0574C37.8848 24.9937 37.9078 24.9316 37.9512 24.8848C37.9945 24.8381 38.0547 24.8105 38.1184 24.8081C39.9025 24.6781 41.6766 24.4358 43.4302 24.0828C44.3743 23.503 45.3568 22.8194 47.0398 21.4106C47.064 21.3903 47.092 21.3749 47.1221 21.3655C47.1523 21.356 47.184 21.3525 47.2155 21.3553C47.2469 21.3581 47.2776 21.367 47.3056 21.3816C47.3336 21.3962 47.3585 21.4162 47.3787 21.4404C47.399 21.4647 47.4144 21.4926 47.4239 21.5228C47.4333 21.5529 47.4368 21.5846 47.434 21.6161C47.4312 21.6476 47.4223 21.6782 47.4077 21.7062C47.3931 21.7343 47.3731 21.7591 47.3489 21.7794C45.6163 23.2255 44.6135 23.9226 43.64 24.5148C43.6161 24.5299 43.5898 24.5406 43.5622 24.5464C41.7748 24.9071 39.9664 25.1547 38.1478 25.2875L38.1365 25.2886Z" fill="black"/>
<path d="M45.7336 29.4678C45.6749 29.4674 45.6184 29.4457 45.5746 29.4067C45.5308 29.3677 45.5027 29.314 45.4956 29.2558C45.4832 29.143 45.1967 26.5993 46.1171 25.3191C47.0376 24.0388 48.654 23.7556 49.5959 24.2768C49.6239 24.2917 49.6486 24.3121 49.6688 24.3366C49.6889 24.3611 49.704 24.3894 49.7132 24.4198C49.7225 24.4502 49.7256 24.482 49.7225 24.5136C49.7194 24.5452 49.7101 24.5759 49.6951 24.6039C49.6802 24.6319 49.6598 24.6567 49.6353 24.6768C49.6108 24.697 49.5825 24.7121 49.5521 24.7213C49.5218 24.7305 49.4899 24.7336 49.4583 24.7305C49.4267 24.7274 49.396 24.7181 49.368 24.7032C48.6224 24.2903 47.2665 24.5588 46.513 25.6056C45.7009 26.7336 45.9761 29.1802 45.9784 29.205C45.9821 29.2364 45.9797 29.2682 45.9711 29.2985C45.9625 29.3289 45.948 29.3573 45.9284 29.3821C45.9088 29.4068 45.8844 29.4274 45.8568 29.4427C45.8292 29.458 45.7988 29.4677 45.7674 29.4712C45.756 29.4718 45.7446 29.4707 45.7336 29.4678Z" fill="black"/>
<path d="M37.2838 35.2105C37.2272 35.2107 37.1725 35.191 37.1291 35.1548C37.0857 35.1186 37.0564 35.0683 37.0464 35.0126C37.0365 34.957 37.0464 34.8996 37.0746 34.8506C37.1027 34.8016 37.1472 34.7641 37.2003 34.7446C38.0711 34.4209 39.8477 33.7294 41.9943 32.7526C42.2368 32.4909 43.772 30.835 44.8267 29.7645C46.4002 28.165 48.2434 27.5954 49.2484 27.8616C49.309 27.8787 49.3604 27.9189 49.3916 27.9735C49.4228 28.0282 49.4314 28.0928 49.4154 28.1537C49.3995 28.2146 49.3603 28.2667 49.3063 28.299C49.2523 28.3313 49.1878 28.3411 49.1266 28.3263C48.275 28.1007 46.5999 28.6478 45.1696 30.1018C44.0326 31.2569 42.3316 33.0955 42.3146 33.1147C42.2929 33.1379 42.2668 33.1566 42.2379 33.17C40.0575 34.1671 38.2504 34.862 37.3672 35.2004C37.3402 35.2087 37.312 35.2121 37.2838 35.2105Z" fill="black"/>
<path d="M37.2194 35.6854C37.1557 35.6854 37.0946 35.6601 37.0496 35.615C37.0045 35.57 36.9792 35.5088 36.9792 35.4451C36.9792 32.351 37.3277 29.372 37.7011 26.2192C37.8737 24.7675 38.0508 23.2661 38.1907 21.7546C38.2786 20.7868 38.0451 19.6114 37.4349 19.3407C37.4043 19.3291 37.3764 19.3115 37.3529 19.2888C37.3293 19.2661 37.3107 19.2389 37.298 19.2087C37.2854 19.1786 37.279 19.1462 37.2793 19.1135C37.2796 19.0808 37.2866 19.0485 37.2998 19.0187C37.3131 18.9888 37.3322 18.9619 37.3562 18.9396C37.3802 18.9174 37.4084 18.9003 37.4392 18.8894C37.47 18.8785 37.5027 18.8739 37.5354 18.8761C37.568 18.8782 37.5998 18.887 37.6289 18.9019C38.4918 19.2831 38.7727 20.6706 38.6689 21.7986C38.5291 23.3157 38.3508 24.8205 38.1782 26.2756C37.8071 29.4137 37.4563 32.3781 37.4597 35.4451C37.4597 35.5088 37.4344 35.57 37.3893 35.615C37.3443 35.6601 37.2832 35.6854 37.2194 35.6854Z" fill="black"/>
<path d="M32.3736 36.3859C32.3124 36.3854 32.2538 36.362 32.2092 36.3201C32.1647 36.2783 32.1375 36.2212 32.1333 36.1603C31.778 31.2377 31.3437 27.3201 30.8 24.1843C30.7926 24.1524 30.7917 24.1194 30.7975 24.0872C30.8033 24.055 30.8155 24.0244 30.8336 23.9971C30.8516 23.9698 30.8751 23.9465 30.9024 23.9286C30.9298 23.9107 30.9605 23.8986 30.9927 23.893C31.0249 23.8874 31.058 23.8884 31.0898 23.896C31.1216 23.9036 31.1515 23.9176 31.1777 23.9371C31.2039 23.9567 31.2258 23.9814 31.2422 24.0098C31.2585 24.0381 31.2688 24.0695 31.2726 24.1019C31.8186 27.2536 32.2562 31.1869 32.6138 36.1253C32.6161 36.157 32.6121 36.1889 32.6019 36.2191C32.5918 36.2493 32.5758 36.2771 32.5548 36.3011C32.5338 36.325 32.5083 36.3445 32.4797 36.3585C32.4511 36.3725 32.42 36.3806 32.3882 36.3825L32.3736 36.3859Z" fill="black"/>
<path d="M21.7805 40.3316C21.7368 40.3316 21.6939 40.3197 21.6565 40.2972C21.6191 40.2746 21.5885 40.2423 21.5681 40.2036C21.5476 40.165 21.5381 40.1215 21.5406 40.0779C21.5431 40.0343 21.5574 39.9921 21.582 39.956C23.3518 37.3616 26.9016 36.1783 29.4938 35.3132C30.1706 35.0876 30.8011 34.8766 31.3132 34.6713C31.3719 34.6498 31.4366 34.6519 31.4936 34.6773C31.5507 34.7026 31.5957 34.7492 31.619 34.8071C31.6423 34.8651 31.6421 34.9298 31.6185 34.9876C31.595 35.0454 31.5498 35.0918 31.4926 35.1169C30.9669 35.3289 30.3251 35.5421 29.6461 35.7689C27.1193 36.6126 23.6575 37.7666 21.9757 40.2267C21.9539 40.2586 21.9249 40.2848 21.8909 40.303C21.8569 40.3213 21.8191 40.3311 21.7805 40.3316Z" fill="black"/>
<path d="M38.3655 23.1093C38.3158 23.1096 38.2672 23.0945 38.2265 23.066C38.1857 23.0376 38.1548 22.9972 38.138 22.9504C38.1211 22.9036 38.1192 22.8528 38.1325 22.8049C38.1458 22.757 38.1736 22.7144 38.2121 22.6829C39.5838 21.5493 42.4884 21.15 45.2982 20.7653C46.1318 20.6525 46.9203 20.5397 47.667 20.4168C47.6983 20.411 47.7305 20.4116 47.7616 20.4184C47.7927 20.4251 47.8221 20.438 47.8482 20.4563C47.8742 20.4746 47.8964 20.4978 47.9134 20.5247C47.9304 20.5517 47.9419 20.5817 47.9472 20.6131C47.9525 20.6444 47.9516 20.6766 47.9443 20.7076C47.9371 20.7386 47.9238 20.7678 47.9052 20.7937C47.8866 20.8195 47.863 20.8413 47.8359 20.858C47.8087 20.8746 47.7786 20.8857 47.7471 20.8905C46.9958 21.018 46.2051 21.1263 45.367 21.2413C42.6248 21.6181 39.7879 22.0084 38.5212 23.0552C38.4773 23.0911 38.4222 23.1103 38.3655 23.1093Z" fill="black"/>
<path d="M50.8502 1.81155C50.7199 1.77928 50.5871 1.75815 50.4532 1.74838L33.4925 0.57075C32.1051 0.473742 30.7323 1.50361 30.4266 2.86961L22.155 39.868C21.5436 42.8008 23.5808 43.6096 24.9682 43.7032L41.9289 44.8831C43.3163 44.979 44.6891 43.9502 44.9936 42.5831L53.2653 5.58471C53.5563 4.28638 53.3239 2.29321 50.8502 1.81155Z" fill="#0F1723"/>
<path d="M41.075 43.6931L24.1144 42.5154C22.7269 42.4196 21.8505 41.2329 22.155 39.8669L30.4267 2.86849C30.7323 1.50361 32.1096 0.473742 33.4926 0.570751L50.4532 1.74838C51.8406 1.84426 52.7182 3.02979 52.4136 4.39918L44.1409 41.3976C43.8408 42.7602 42.4624 43.7901 41.075 43.6931Z" fill="#0F1723"/>
<path fill-rule="evenodd" clip-rule="evenodd" d="M41.2024 42.6045L24.4708 41.4427C23.618 41.3829 23.0788 40.6531 23.2672 39.8139L31.4813 3.07263C31.5844 2.65589 31.8284 2.28757 32.1719 2.03001C32.5153 1.77246 32.9372 1.64148 33.3662 1.65925L50.0967 2.81996C50.9495 2.87862 51.4886 3.60956 51.3003 4.44767L43.0862 41.1911C42.9829 41.6076 42.7391 41.9756 42.3959 42.2331C42.0527 42.4906 41.6311 42.6218 41.2024 42.6045Z" fill="#F1F4FF"/>
<path fill-rule="evenodd" clip-rule="evenodd" d="M51.3002 4.44992L50.7216 7.05109L30.8992 5.67493L31.4813 3.07376C31.5844 2.65671 31.8285 2.28811 32.1722 2.03035C32.5159 1.77258 32.9381 1.64148 33.3673 1.65925L50.0955 2.81996C50.9472 2.87974 51.4886 3.60956 51.3002 4.44992Z" fill="#C4CFE2"/>
<path fill-rule="evenodd" clip-rule="evenodd" d="M46.7736 5.63999L35.2003 4.84023C35.0855 4.83601 34.973 4.80596 34.8714 4.7523C34.7697 4.69865 34.6815 4.62277 34.6132 4.53032C34.5449 4.43787 34.4984 4.33122 34.477 4.21829C34.4556 4.10536 34.4599 3.98907 34.4897 3.87805C34.5511 3.63172 34.6959 3.41424 34.8995 3.2625C35.103 3.11077 35.3528 3.03413 35.6064 3.04558L47.1695 3.84646C47.2845 3.85052 47.397 3.88046 47.4988 3.93404C47.6006 3.98762 47.689 4.06348 47.7574 4.15595C47.8258 4.24842 47.8725 4.35514 47.8939 4.46814C47.9154 4.58115 47.9111 4.69754 47.8813 4.80865C47.8197 5.05309 47.6761 5.269 47.4745 5.42032C47.2729 5.57163 47.0255 5.64917 46.7736 5.63999Z" fill="#F1F4FF"/>
<path d="M43.2553 19.8099L32.8225 19.0857C32.7293 19.079 32.6386 19.0524 32.5567 19.0075C32.4748 18.9626 32.4035 18.9005 32.3477 18.8256C32.2919 18.7506 32.253 18.6645 32.2335 18.5732C32.214 18.4818 32.2144 18.3873 32.2348 18.2961L34.5336 8.01553C34.5675 7.86435 34.6544 7.73028 34.7785 7.63759C34.9027 7.5449 35.0559 7.4997 35.2104 7.51018L45.6456 8.23436C45.7388 8.24085 45.8296 8.26743 45.9116 8.31227C45.9936 8.35711 46.065 8.41915 46.1208 8.49414C46.1766 8.56913 46.2156 8.6553 46.235 8.74675C46.2544 8.8382 46.2538 8.93276 46.2333 9.02396L43.9355 19.3057C43.9011 19.4572 43.8136 19.5913 43.6888 19.6838C43.5641 19.7763 43.4103 19.821 43.2553 19.8099Z" fill="#C4CFE2"/>
<path d="M29.6504 22.7969C30.0422 22.4915 30.147 21.971 29.8846 21.6343C29.6221 21.2977 29.0918 21.2722 28.7 21.5776C28.3083 21.883 28.2035 22.4034 28.4659 22.7401C28.7284 23.0768 29.2587 23.1022 29.6504 22.7969Z" fill="#C4CFE2"/>
<path d="M45.253 24.0647H45.1944L31.47 23.1116C31.2655 23.0973 31.0751 23.0025 30.9405 22.8479C30.806 22.6932 30.7384 22.4915 30.7526 22.287C30.7668 22.0825 30.8617 21.892 31.0163 21.7575C31.1709 21.623 31.3727 21.5554 31.5772 21.5696L45.3072 22.5216C45.5059 22.5368 45.6912 22.6281 45.8241 22.7767C45.9571 22.9252 46.0275 23.1194 46.0207 23.3186C46.0138 23.5178 45.9303 23.7067 45.7874 23.8457C45.6446 23.9848 45.4535 24.0632 45.2542 24.0647H45.253Z" fill="#C4CFE2"/>
<path fill-rule="evenodd" clip-rule="evenodd" d="M8.4972 36.0001C11.3048 32.2044 14.964 22.0783 17.1399 20.2769C21.5245 16.6436 23.4387 11.9229 24.9299 10.6697C27.8232 8.23438 28.9896 5.43694 29.3934 4.99702C31.1373 3.09295 34.4085 9.44585 29.6246 14.2963C28.3139 15.625 26.4662 19.2267 26.4437 21.6283C26.3557 28.9603 22.8104 32.8699 21.0688 34.3104C19.8697 35.2962 6.00996 39.3672 8.4972 36.0001Z" fill="#FABE8C"/>
<path d="M17.2866 36.1185C17.2268 36.1213 17.1682 36.1016 17.1222 36.0634C17.0761 36.0252 17.046 35.9712 17.0377 35.9119C17.0294 35.8527 17.0434 35.7925 17.0772 35.7431C17.1109 35.6937 17.1618 35.6586 17.22 35.6448C24.7675 33.6369 25.5334 27.2333 26.2091 21.5843C26.2576 21.1782 26.3061 20.7777 26.3557 20.3863C26.3638 20.323 26.3967 20.2656 26.4471 20.2265C26.4976 20.1875 26.5615 20.1701 26.6247 20.1782C26.688 20.1863 26.7455 20.2192 26.7845 20.2696C26.8235 20.3201 26.8409 20.384 26.8328 20.4472C26.7832 20.8375 26.7343 21.2353 26.6862 21.6407C26.0274 27.1555 25.2063 34.0182 17.3441 36.1095C17.3254 36.1148 17.306 36.1179 17.2866 36.1185Z" fill="black"/>
<path d="M29.0684 25.6647C29.4602 25.3593 29.565 24.8388 29.3025 24.5021C29.0401 24.1654 28.5098 24.14 28.118 24.4454C27.7263 24.7508 27.6214 25.2712 27.8839 25.6079C28.1463 25.9446 28.6767 25.97 29.0684 25.6647Z" fill="#C4CFE2"/>
<path d="M44.6721 26.9332H44.6169L30.8925 25.9778C30.688 25.9629 30.4979 25.8673 30.3638 25.7121C30.2298 25.557 30.1629 25.3549 30.1779 25.1504C30.1929 24.9459 30.2884 24.7558 30.4436 24.6218C30.5988 24.4878 30.8008 24.4209 31.0053 24.4358L44.7297 25.389C44.9319 25.3995 45.1219 25.4889 45.2588 25.6381C45.3958 25.7873 45.4687 25.9842 45.4619 26.1866C45.4551 26.389 45.3691 26.5806 45.2225 26.7202C45.0758 26.8599 44.8802 26.9363 44.6778 26.9332H44.6721Z" fill="#C4CFE2"/>
<path d="M44.1262 29.7792H44.0721L30.3477 28.826C30.1432 28.8118 29.9527 28.717 29.8182 28.5623C29.6837 28.4077 29.6161 28.2059 29.6303 28.0015C29.6445 27.797 29.7393 27.6065 29.894 27.472C30.0486 27.3374 30.2504 27.2698 30.4548 27.2841L44.1792 28.2383C44.3816 28.2487 44.5719 28.3382 44.7089 28.4875C44.846 28.6368 44.9189 28.834 44.912 29.0365C44.905 29.2391 44.8187 29.4308 44.6718 29.5704C44.5248 29.7099 44.3289 29.7861 44.1262 29.7826V29.7792Z" fill="#C4CFE2"/>
<path d="M43.3659 32.6319H43.3117L29.5874 31.6787C29.4861 31.6717 29.3873 31.6448 29.2964 31.5995C29.2056 31.5543 29.1245 31.4916 29.0579 31.415C28.9234 31.2604 28.8558 31.0586 28.87 30.8542C28.8842 30.6497 28.979 30.4592 29.1337 30.3247C29.2883 30.1901 29.4901 30.1225 29.6945 30.1367L43.4189 31.0899C43.6213 31.1003 43.8116 31.1897 43.9486 31.339C44.0857 31.4883 44.1586 31.6855 44.1516 31.8881C44.1447 32.0906 44.0584 32.2824 43.9114 32.4219C43.7645 32.5615 43.5685 32.6377 43.3659 32.6341V32.6319Z" fill="#C4CFE2"/>
<path d="M42.688 35.4801H42.6327L28.9084 34.5269C28.8071 34.5199 28.7082 34.493 28.6174 34.4477C28.5265 34.4025 28.4455 34.3398 28.3789 34.2632C28.3123 34.1867 28.2614 34.0977 28.2291 34.0015C28.1969 33.9052 28.1839 33.8036 28.1909 33.7024C28.198 33.6011 28.2249 33.5022 28.2701 33.4114C28.3154 33.3205 28.3781 33.2395 28.4547 33.1729C28.5312 33.1063 28.6202 33.0554 28.7164 33.0231C28.8126 32.9909 28.9143 32.9779 29.0155 32.985L42.7399 33.9381C42.9386 33.9532 43.1238 34.0445 43.2567 34.1929C43.3897 34.3413 43.4602 34.5354 43.4535 34.7345C43.4468 34.9337 43.3634 35.1226 43.2208 35.2617C43.0781 35.4008 42.8873 35.4795 42.688 35.4812V35.4801Z" fill="#C4CFE2"/>
<path d="M42.0247 38.3294H41.9706L28.2462 37.3763C28.1449 37.3692 28.0461 37.3423 27.9552 37.2971C27.8644 37.2518 27.7833 37.1891 27.7167 37.1126C27.6501 37.036 27.5992 36.9471 27.567 36.8508C27.5347 36.7546 27.5217 36.6529 27.5288 36.5517C27.5358 36.4504 27.5627 36.3516 27.608 36.2607C27.6532 36.1699 27.7159 36.0888 27.7925 36.0222C27.869 35.9556 27.958 35.9047 28.0542 35.8725C28.1505 35.8402 28.2521 35.8273 28.3533 35.8343L42.0777 36.7874C42.2765 36.8026 42.4617 36.894 42.5947 37.0425C42.7276 37.191 42.7981 37.3852 42.7912 37.5844C42.7844 37.7837 42.7008 37.9725 42.558 38.1116C42.4151 38.2506 42.224 38.3291 42.0247 38.3306V38.3294Z" fill="#C4CFE2"/>
</svg>
