<svg width="67" height="62" viewBox="0 0 67 62" fill="none" xmlns="http://www.w3.org/2000/svg">
<g clip-path="url(#clip0_33184_11058)">
<path d="M55.0807 11.8258H13.2355V12.7355C13.2355 13.2384 12.8286 13.6452 12.3258 13.6452C11.823 13.6452 11.4162 13.2383 11.4162 12.7355V11.8258H2.31934C1.31461 11.8258 0.5 12.6403 0.5 13.6452V21.6532C0.5 22.1118 0.72549 22.5476 1.11544 22.7888C2.9285 23.9102 4.13868 25.9114 4.13868 28.2C4.13868 30.4885 2.9285 32.4898 1.11544 33.6112C0.72549 33.8525 0.5 34.2883 0.5 34.7468V42.7548C0.5 43.7596 1.31461 44.5742 2.31934 44.5742H11.4162V43.6645C11.4162 43.1617 11.8231 42.7548 12.3258 42.7548C12.8287 42.7548 13.2355 43.1618 13.2355 43.6645V44.5742H55.0807C56.0854 44.5742 56.9 43.7596 56.9 42.7548V13.6452C56.9 12.6403 56.0854 11.8258 55.0807 11.8258ZM13.2355 40.0258C13.2355 40.5287 12.8286 40.9355 12.3258 40.9355C11.823 40.9355 11.4162 40.5286 11.4162 40.0258V38.2065C11.4162 37.7036 11.8231 37.2968 12.3258 37.2968C12.8287 37.2968 13.2355 37.7037 13.2355 38.2065V40.0258ZM13.2355 34.5677C13.2355 35.0706 12.8286 35.4774 12.3258 35.4774C11.823 35.4774 11.4162 35.0705 11.4162 34.5677V32.7484C11.4162 32.2455 11.8231 31.8387 12.3258 31.8387C12.8287 31.8387 13.2355 32.2456 13.2355 32.7484V34.5677ZM13.2355 29.1097C13.2355 29.6125 12.8286 30.0194 12.3258 30.0194C11.823 30.0194 11.4162 29.6124 11.4162 29.1097V27.2903C11.4162 26.7875 11.8231 26.3807 12.3258 26.3807C12.8287 26.3807 13.2355 26.7876 13.2355 27.2903V29.1097ZM13.2355 23.6517C13.2355 24.1545 12.8286 24.5613 12.3258 24.5613C11.823 24.5613 11.4162 24.1544 11.4162 23.6517V21.8323C11.4162 21.3295 11.8231 20.9226 12.3258 20.9226C12.8287 20.9226 13.2355 21.3296 13.2355 21.8323V23.6517ZM13.2355 18.1935C13.2355 18.6964 12.8286 19.1032 12.3258 19.1032C11.823 19.1032 11.4162 18.6963 11.4162 18.1935V16.3742C11.4162 15.8713 11.8231 15.4645 12.3258 15.4645C12.8287 15.4645 13.2355 15.8714 13.2355 16.3742V18.1935Z" fill="#FFC350"/>
<path d="M54.171 42.7548H15.9645C15.4621 42.7548 15.0548 42.3476 15.0548 41.8452V14.5548C15.0548 14.0524 15.4621 13.6452 15.9645 13.6452H54.171C54.6734 13.6452 55.0806 14.0524 55.0806 14.5548V41.8452C55.0806 42.3476 54.6734 42.7548 54.171 42.7548Z" fill="#FFD164"/>
</g>
<g clip-path="url(#clip1_33184_11058)">
<path d="M57.7431 34.2C55.6142 34.2 53.5949 34.846 51.7415 36.1201C50.5668 36.9276 49.4781 37.9708 48.4978 39.2268C48.2599 38.923 48.0152 38.6305 47.7653 38.3523C45.3263 35.6359 42.3842 34.2 39.2569 34.2C34.4284 34.2 30.5 38.2479 30.5 43.2236C30.5 48.1991 34.4284 52.2473 39.2569 52.2473C41.3861 52.2473 43.4051 51.6013 45.2585 50.3271C46.4332 49.5196 47.5219 48.4765 48.5025 47.2202C48.7401 47.524 48.985 47.8165 49.2347 48.0947C51.6737 50.8113 54.6158 52.2473 57.7431 52.2473C62.5716 52.2473 66.5 48.1991 66.5 43.2236C66.5 38.2479 62.5716 34.2 57.7431 34.2ZM62.2233 43.2236C62.2233 45.8411 60.2136 47.9706 57.7431 47.9706C56.5403 47.9706 53.5043 47.5012 50.931 43.219C53.4804 38.945 56.5324 38.4767 57.7431 38.4767C60.2136 38.4767 62.2233 40.6061 62.2233 43.2236ZM46.0663 43.2236C43.493 47.5014 40.4588 47.9706 39.2569 47.9706C36.7864 47.9706 34.7767 45.8411 34.7767 43.2236C34.7767 40.6061 36.7864 38.4767 39.2569 38.4767C40.4588 38.4767 43.493 38.9458 46.0663 43.2236Z" fill="#FF3D43"/>
<path d="M46.0662 43.2236C45.6257 43.9559 45.1714 44.5766 44.7155 45.1026C45.1664 45.9254 46.1582 47.68 46.9819 48.9137C47.5131 48.4023 48.0207 47.8371 48.5022 47.2202C47.5727 45.9274 46.7927 44.5557 46.7408 44.4406C46.6342 44.2033 46.0662 43.2236 46.0662 43.2236Z" fill="#D72E2E"/>
<path d="M50.931 43.219C51.3973 42.4373 51.8805 41.7833 52.3658 41.2359C51.7555 40.321 50.6961 38.7547 49.9076 37.6412C49.4165 38.1241 48.9455 38.6528 48.4975 39.2268C49.4272 40.5196 50.2614 41.9948 50.3135 42.1099C50.3242 42.133 50.931 43.219 50.931 43.219Z" fill="#D72E2E"/>
</g>
<path d="M25.8989 22.6L26.9741 17.2528C27.0893 16.6896 27.3325 16.2416 27.7037 15.9088C28.0813 15.5696 28.587 15.4 29.2206 15.4C29.4574 15.4 29.6782 15.4256 29.883 15.4768C30.0878 15.5216 30.2638 15.592 30.411 15.688L29.8254 16.7632C29.6526 16.6416 29.4542 16.5808 29.2301 16.5808C28.9998 16.5808 28.8206 16.6448 28.6926 16.7728C28.5646 16.8944 28.4718 17.0896 28.4142 17.3584L28.3086 17.8384L28.2317 18.4432L27.4061 22.6H25.8989ZM25.8797 18.7024L26.1101 17.5504H29.691L29.4606 18.7024H25.8797ZM29.523 22.6L30.5502 17.4352H31.971L31.6734 18.904L31.539 18.4816C31.7694 18.0656 32.0702 17.7744 32.4414 17.608C32.8126 17.4416 33.2574 17.3584 33.7758 17.3584L33.507 18.7408C33.443 18.7344 33.3822 18.7312 33.3246 18.7312C33.2734 18.7248 33.219 18.7216 33.1614 18.7216C32.7198 18.7216 32.3582 18.8304 32.0766 19.048C31.8014 19.2656 31.6158 19.6176 31.5198 20.104L31.0206 22.6H29.523ZM36.328 22.6768C35.7904 22.6768 35.3232 22.5808 34.9264 22.3888C34.536 22.1968 34.232 21.928 34.0144 21.5824C33.7968 21.2368 33.688 20.8304 33.688 20.3632C33.688 19.7872 33.816 19.2752 34.072 18.8272C34.3344 18.3728 34.6928 18.0144 35.1472 17.752C35.608 17.4896 36.136 17.3584 36.7312 17.3584C37.2368 17.3584 37.672 17.4544 38.0368 17.6464C38.4016 17.832 38.6832 18.0944 38.8816 18.4336C39.0864 18.7664 39.1888 19.1664 39.1888 19.6336C39.1888 19.768 39.1792 19.9024 39.16 20.0368C39.1472 20.1712 39.128 20.2992 39.1024 20.4208H34.8304L34.984 19.5472H38.4016L37.7872 19.816C37.8384 19.528 37.8224 19.288 37.7392 19.096C37.656 18.8976 37.5216 18.7472 37.336 18.6448C37.1504 18.536 36.9264 18.4816 36.664 18.4816C36.3376 18.4816 36.0592 18.5616 35.8288 18.7216C35.6048 18.8752 35.4352 19.0896 35.32 19.3648C35.2048 19.64 35.1472 19.9504 35.1472 20.296C35.1472 20.6928 35.256 20.9904 35.4736 21.1888C35.6976 21.3808 36.0336 21.4768 36.4816 21.4768C36.744 21.4768 36.9968 21.4352 37.24 21.352C37.4832 21.2688 37.6912 21.1504 37.864 20.9968L38.488 21.9856C38.1872 22.2224 37.848 22.3984 37.4704 22.5136C37.0992 22.6224 36.7184 22.6768 36.328 22.6768ZM42.3561 22.6768C41.8185 22.6768 41.3513 22.5808 40.9545 22.3888C40.5641 22.1968 40.2601 21.928 40.0425 21.5824C39.8249 21.2368 39.7161 20.8304 39.7161 20.3632C39.7161 19.7872 39.8441 19.2752 40.1001 18.8272C40.3625 18.3728 40.7209 18.0144 41.1753 17.752C41.6361 17.4896 42.1641 17.3584 42.7593 17.3584C43.2649 17.3584 43.7001 17.4544 44.0649 17.6464C44.4297 17.832 44.7113 18.0944 44.9097 18.4336C45.1145 18.7664 45.2169 19.1664 45.2169 19.6336C45.2169 19.768 45.2073 19.9024 45.1881 20.0368C45.1753 20.1712 45.1561 20.2992 45.1305 20.4208H40.8585L41.0121 19.5472H44.4297L43.8153 19.816C43.8665 19.528 43.8505 19.288 43.7673 19.096C43.6841 18.8976 43.5497 18.7472 43.3641 18.6448C43.1785 18.536 42.9545 18.4816 42.6921 18.4816C42.3657 18.4816 42.0873 18.5616 41.8569 18.7216C41.6329 18.8752 41.4633 19.0896 41.3481 19.3648C41.2329 19.64 41.1753 19.9504 41.1753 20.296C41.1753 20.6928 41.2841 20.9904 41.5017 21.1888C41.7257 21.3808 42.0617 21.4768 42.5097 21.4768C42.7721 21.4768 43.0249 21.4352 43.2681 21.352C43.5113 21.2688 43.7193 21.1504 43.8921 20.9968L44.5161 21.9856C44.2153 22.2224 43.8761 22.3984 43.4985 22.5136C43.1273 22.6224 42.7465 22.6768 42.3561 22.6768ZM21.7025 30.6768C21.1713 30.6768 20.7073 30.5808 20.3105 30.3888C19.9201 30.1968 19.6161 29.928 19.3985 29.5824C19.1809 29.2368 19.0721 28.8304 19.0721 28.3632C19.0721 27.7872 19.2065 27.2752 19.4753 26.8272C19.7441 26.3728 20.1153 26.0144 20.5889 25.752C21.0625 25.4896 21.6065 25.3584 22.2209 25.3584C22.7713 25.3584 23.2481 25.4736 23.6513 25.704C24.0545 25.928 24.3521 26.248 24.5441 26.664L23.2769 27.2976C23.1681 27.0544 23.0145 26.8784 22.8161 26.7696C22.6241 26.6544 22.3937 26.5968 22.1249 26.5968C21.8305 26.5968 21.5681 26.6704 21.3377 26.8176C21.1073 26.9584 20.9249 27.1568 20.7905 27.4128C20.6561 27.6624 20.5889 27.9536 20.5889 28.2864C20.5889 28.6384 20.6913 28.92 20.8961 29.1312C21.1073 29.336 21.4049 29.4384 21.7889 29.4384C22.0513 29.4384 22.2913 29.384 22.5089 29.2752C22.7265 29.16 22.9089 28.984 23.0561 28.7472L24.1601 29.4384C23.9169 29.8288 23.5777 30.1328 23.1425 30.3504C22.7137 30.568 22.2337 30.6768 21.7025 30.6768ZM26.9152 30.6768C26.5184 30.6768 26.1504 30.5872 25.8112 30.408C25.472 30.2224 25.2 29.9568 24.9952 29.6112C24.7904 29.2656 24.688 28.8496 24.688 28.3632C24.688 27.928 24.7584 27.528 24.8992 27.1632C25.0464 26.7984 25.2512 26.4816 25.5136 26.2128C25.776 25.944 26.08 25.736 26.4256 25.5888C26.7712 25.4352 27.1424 25.3584 27.5392 25.3584C27.968 25.3584 28.336 25.4384 28.6432 25.5984C28.9504 25.7584 29.1776 26.008 29.3248 26.3472C29.4784 26.68 29.5328 27.112 29.488 27.6432C29.456 28.2512 29.3312 28.7856 29.1136 29.2464C28.896 29.7008 28.6016 30.0528 28.2304 30.3024C27.8656 30.552 27.4272 30.6768 26.9152 30.6768ZM27.376 29.4384C27.6704 29.4384 27.9296 29.368 28.1536 29.2272C28.384 29.08 28.5632 28.8816 28.6912 28.632C28.8256 28.376 28.8928 28.0784 28.8928 27.7392C28.8928 27.3872 28.7872 27.1088 28.576 26.904C28.3712 26.6992 28.0832 26.5968 27.712 26.5968C27.424 26.5968 27.1648 26.6704 26.9344 26.8176C26.704 26.9584 26.5216 27.1568 26.3872 27.4128C26.2592 27.6624 26.1952 27.9568 26.1952 28.296C26.1952 28.648 26.2976 28.9264 26.5024 29.1312C26.7136 29.336 27.0048 29.4384 27.376 29.4384ZM28.4032 30.6L28.6048 29.5728L28.9408 28.0368L29.1424 26.5008L29.3536 25.4352H30.8512L29.824 30.6H28.4032ZM35.2425 25.3584C35.6841 25.3584 36.0585 25.4512 36.3657 25.6368C36.6729 25.816 36.8905 26.0816 37.0185 26.4336C37.1465 26.7856 37.1593 27.2208 37.0569 27.7392L36.4809 30.6H34.9833L35.5401 27.8352C35.6169 27.4576 35.5849 27.1664 35.4441 26.9616C35.3097 26.7568 35.0601 26.6544 34.6953 26.6544C34.3177 26.6544 34.0009 26.7632 33.7449 26.9808C33.4953 27.1984 33.3225 27.5312 33.2265 27.9792L32.7081 30.6H31.2105L32.2377 25.4352H33.6585L33.3609 26.8944L33.1497 26.4528C33.3993 26.0752 33.7065 25.8 34.0713 25.6272C34.4425 25.448 34.8329 25.3584 35.2425 25.3584ZM40.5932 30.6768C40.062 30.6768 39.598 30.5808 39.2012 30.3888C38.8108 30.1968 38.5068 29.928 38.2892 29.5824C38.0716 29.2368 37.9628 28.8304 37.9628 28.3632C37.9628 27.7872 38.0972 27.2752 38.366 26.8272C38.6348 26.3728 39.006 26.0144 39.4796 25.752C39.9532 25.4896 40.4972 25.3584 41.1116 25.3584C41.662 25.3584 42.1388 25.4736 42.542 25.704C42.9452 25.928 43.2428 26.248 43.4348 26.664L42.1676 27.2976C42.0588 27.0544 41.9052 26.8784 41.7068 26.7696C41.5148 26.6544 41.2844 26.5968 41.0156 26.5968C40.7212 26.5968 40.4588 26.6704 40.2284 26.8176C39.998 26.9584 39.8156 27.1568 39.6812 27.4128C39.5468 27.6624 39.4796 27.9536 39.4796 28.2864C39.4796 28.6384 39.582 28.92 39.7868 29.1312C39.998 29.336 40.2956 29.4384 40.6796 29.4384C40.942 29.4384 41.182 29.384 41.3996 29.2752C41.6172 29.16 41.7996 28.984 41.9468 28.7472L43.0508 29.4384C42.8076 29.8288 42.4684 30.1328 42.0332 30.3504C41.6044 30.568 41.1244 30.6768 40.5932 30.6768ZM46.2186 30.6768C45.681 30.6768 45.2138 30.5808 44.817 30.3888C44.4266 30.1968 44.1226 29.928 43.905 29.5824C43.6874 29.2368 43.5786 28.8304 43.5786 28.3632C43.5786 27.7872 43.7066 27.2752 43.9626 26.8272C44.225 26.3728 44.5834 26.0144 45.0378 25.752C45.4986 25.4896 46.0266 25.3584 46.6218 25.3584C47.1274 25.3584 47.5626 25.4544 47.9274 25.6464C48.2922 25.832 48.5738 26.0944 48.7722 26.4336C48.977 26.7664 49.0794 27.1664 49.0794 27.6336C49.0794 27.768 49.0698 27.9024 49.0506 28.0368C49.0378 28.1712 49.0186 28.2992 48.993 28.4208H44.721L44.8746 27.5472H48.2922L47.6778 27.816C47.729 27.528 47.713 27.288 47.6298 27.096C47.5466 26.8976 47.4122 26.7472 47.2266 26.6448C47.041 26.536 46.817 26.4816 46.5546 26.4816C46.2282 26.4816 45.9498 26.5616 45.7194 26.7216C45.4954 26.8752 45.3258 27.0896 45.2106 27.3648C45.0954 27.64 45.0378 27.9504 45.0378 28.296C45.0378 28.6928 45.1466 28.9904 45.3642 29.1888C45.5882 29.3808 45.9242 29.4768 46.3722 29.4768C46.6346 29.4768 46.8874 29.4352 47.1306 29.352C47.3738 29.2688 47.5818 29.1504 47.7546 28.9968L48.3786 29.9856C48.0778 30.2224 47.7386 30.3984 47.361 30.5136C46.9898 30.6224 46.609 30.6768 46.2186 30.6768ZM49.5012 30.6L50.922 23.4768H52.4196L50.9988 30.6H49.5012Z" fill="white"/>
<defs>
<clipPath id="clip0_33184_11058">
<rect width="56.4" height="56.4" fill="white" transform="translate(0.5)"/>
</clipPath>
<clipPath id="clip1_33184_11058">
<rect width="36" height="36" fill="white" transform="translate(30.5 25.2)"/>
</clipPath>
</defs>
</svg>
