<svg width="47" height="47" viewBox="0 0 47 47" fill="none" xmlns="http://www.w3.org/2000/svg">
<g id="low-price 1" clip-path="url(#clip0_35460_7039)">
<g id="Group">
<g id="Group_2">
<path id="Vector" d="M1.39667 41.7169C2.15641 41.7169 2.77234 41.1009 2.77234 40.3412V35.0173H4.24798C6.58975 35.0173 8.49506 32.8501 8.49506 30.1863C8.49506 27.5806 6.58984 25.4608 4.24798 25.4608H1.39667C0.636931 25.4608 0.0209961 26.0768 0.0209961 26.8365V40.3412C0.0209961 41.1009 0.63684 41.7169 1.39667 41.7169ZM2.77234 28.2122H4.24798C5.05871 28.2122 5.74371 29.1162 5.74371 30.1863C5.74371 31.2747 5.03083 32.2659 4.24798 32.2659H2.77234V28.2122Z" fill="#1B3944"/>
<path id="Vector_2" d="M12.175 25.4484C11.4153 25.4484 10.7993 26.0644 10.7993 26.8241V40.3412C10.7993 41.1009 11.4153 41.7169 12.175 41.7169C12.9347 41.7169 13.5507 41.1009 13.5507 40.3412V36.9269H14.1277L16.8323 41.0906C17.0958 41.4963 17.537 41.7171 17.9872 41.7171C18.2441 41.7171 18.5039 41.6452 18.7353 41.4948C19.3724 41.0809 19.5535 40.2289 19.1396 39.5918L17.0235 36.334C18.3182 35.5999 19.1874 34.2571 19.1874 32.7248V29.6506C19.1874 27.3335 17.201 25.4485 14.7594 25.4485H12.175V25.4484ZM16.4359 29.6506V32.7248C16.4359 33.5247 15.6838 34.1754 14.7593 34.1754H13.5507V28.1998H14.7593C15.6838 28.1998 16.4359 28.8506 16.4359 29.6506Z" fill="#1B3944"/>
<path id="Vector_3" d="M23.6835 25.2226C22.9238 25.2226 22.3079 25.8386 22.3079 26.5983V40.3412C22.3079 41.1009 22.9238 41.7169 23.6835 41.7169C24.4433 41.7169 25.0592 41.1009 25.0592 40.3412V26.5983C25.0592 25.8386 24.4433 25.2226 23.6835 25.2226Z" fill="#1B3944"/>
</g>
<path id="Vector_4" d="M32.4076 27.974C33.2673 27.974 33.9667 28.7002 33.9667 29.593C33.9667 30.3527 34.5826 30.9686 35.3424 30.9686C36.1021 30.9686 36.7181 30.3527 36.7181 29.593C36.7181 27.1831 34.7844 25.2226 32.4076 25.2226C30.0308 25.2226 28.0972 27.1831 28.0972 29.593V37.3464C28.0972 39.7563 30.0308 41.7168 32.4076 41.7168C34.7844 41.7168 36.7181 39.7563 36.7181 37.3464C36.7181 36.5867 36.1021 35.9708 35.3424 35.9708C34.5826 35.9708 33.9667 36.5867 33.9667 37.3464C33.9667 38.2392 33.2673 38.9654 32.4076 38.9654C31.5479 38.9654 30.8485 38.2392 30.8485 37.3464V29.593C30.8485 28.7002 31.5479 27.974 32.4076 27.974Z" fill="#0F0A08"/>
<path id="Vector_5" d="M45.2577 27.974C46.0174 27.974 46.6334 27.358 46.6334 26.5983C46.6334 25.8386 46.0174 25.2226 45.2577 25.2226H40.8566C40.0969 25.2226 39.481 25.8386 39.481 26.5983V40.3412C39.481 41.1009 40.0969 41.7169 40.8566 41.7169H45.6015C46.3613 41.7169 46.9772 41.1009 46.9772 40.3412C46.9772 39.5815 46.3613 38.9655 45.6015 38.9655H42.2323V35.0996H43.8823C44.642 35.0996 45.258 34.4837 45.258 33.7239C45.258 32.9642 44.642 32.3483 43.8823 32.3483H42.2323V27.9741H45.2577V27.974Z" fill="#0F0A08"/>
<path id="Vector_6" d="M12.4415 23.1549H12.4416C15.0076 23.1549 17.0879 21.0747 17.0879 18.5085V4.64639C17.0878 2.0802 15.0076 0 12.4416 0C9.87546 0 7.79517 2.0802 7.79517 4.64639V18.5086C7.79517 21.0747 9.87537 23.1549 12.4415 23.1549ZM10.5465 4.64639C10.5465 3.59977 11.3949 2.75135 12.4416 2.75135C13.4882 2.75135 14.3366 3.59977 14.3366 4.64639V18.5086C14.3366 19.5551 13.4882 20.4035 12.4416 20.4035C11.395 20.4035 10.5465 19.5551 10.5465 18.5085V4.64639Z" fill="#465C6A"/>
<path id="Vector_7" d="M1.39667 23.1549H4.67343C5.43317 23.1549 6.04911 22.539 6.04911 21.7792C6.04911 21.0195 5.43317 20.4035 4.67343 20.4035H2.77234V1.37567C2.77234 0.615935 2.15641 0 1.39667 0C0.636931 0 0.0209961 0.615935 0.0209961 1.37567V21.7792C0.0209961 22.539 0.63684 23.1549 1.39667 23.1549Z" fill="#465C6A"/>
<path id="Vector_8" d="M21.0897 23.1314C21.7412 23.2536 22.386 22.8939 22.6253 22.2765L24.7912 16.6887L27.0279 22.2894C27.2396 22.8195 27.7511 23.155 28.3048 23.155C28.3909 23.1549 28.4781 23.1468 28.5653 23.1301C29.213 23.0056 29.6812 22.4388 29.6812 21.7792V1.37567C29.6812 0.615935 29.0653 0 28.3055 0C27.5458 0 26.9298 0.615935 26.9298 1.37567V14.6252L26.0498 12.4214C25.841 11.8986 25.3348 11.5559 24.7722 11.5559H24.7652C24.1999 11.5588 23.6938 11.9073 23.4895 12.4344L22.7183 14.424V1.37567C22.7183 0.615935 22.1023 0 21.3426 0C20.5829 0 19.9669 0.615935 19.9669 1.37567V21.7792C19.9669 22.4414 20.4387 23.0097 21.0897 23.1314Z" fill="#465C6A"/>
<path id="Vector_9" d="M45.6067 44.2487H1.39313C0.633391 44.2487 0.0174561 44.8646 0.0174561 45.6243C0.0174561 46.3841 0.633391 47 1.39313 47H45.6067C46.3664 47 46.9823 46.3841 46.9823 45.6243C46.9823 44.8646 46.3664 44.2487 45.6067 44.2487Z" fill="#1B3944"/>
<g id="Group_3">
<g id="Group_4">
<path id="Vector_10" d="M45.0529 16.5181V0.573366C45.0529 0.280806 44.8157 0.0436401 44.5231 0.0436401H35.5097C35.2172 0.0436401 34.98 0.280806 34.98 0.573366V16.5181C34.98 16.8106 34.7428 17.0478 34.4503 17.0478H33.6536C33.1604 17.0478 32.9348 17.6625 33.3109 17.9815L38.9558 22.1461C39.5506 22.6506 40.4232 22.6506 41.0178 22.146L46.7903 17.9814C47.1663 17.6624 46.9407 17.0478 46.4475 17.0478H45.5828C45.29 17.0478 45.0529 16.8106 45.0529 16.5181Z" fill="#90EB7A"/>
</g>
<path id="Vector_11" d="M46.4473 17.0478H45.5826C45.29 17.0478 45.0528 16.8106 45.0528 16.5181V0.573366C45.0528 0.280806 44.8157 0.0436401 44.5231 0.0436401H39.9619V22.5234C40.337 22.5292 40.7136 22.4039 41.0177 22.146L46.7901 17.9814C47.166 17.6624 46.9404 17.0478 46.4473 17.0478Z" fill="#00D16C"/>
</g>
<path id="Vector_12" d="M23.6835 25.2226C23.6212 25.2226 23.5602 25.2282 23.5 25.2363V41.7032C23.5602 41.7113 23.6212 41.7169 23.6835 41.7169C24.4433 41.7169 25.0592 41.1009 25.0592 40.3412V26.5983C25.0592 25.8386 24.4433 25.2226 23.6835 25.2226Z" fill="#0F0A08"/>
<path id="Vector_13" d="M26.9299 1.37575V14.6252L26.0499 12.4215C25.841 11.8986 25.3349 11.556 24.7723 11.556H24.7653C24.2087 11.5589 23.7104 11.897 23.5 12.4103V20.0202L24.7914 16.6887L27.0281 22.2895C27.2398 22.8196 27.7513 23.1551 28.305 23.1551C28.3911 23.155 28.4783 23.1469 28.5655 23.1302C29.2132 23.0057 29.6814 22.4389 29.6814 21.7793V1.37575C29.6814 0.732944 29.2398 0.194597 28.6439 0.0437317H27.9675C27.3715 0.194597 26.9299 0.732853 26.9299 1.37575Z" fill="#1B3944"/>
<path id="Vector_14" d="M46.9823 45.54C46.9386 44.8197 46.3423 44.2486 45.6109 44.2486H23.5042V46.9999H45.6109C46.3422 46.9999 46.9386 46.4288 46.9823 45.7084V45.54Z" fill="#0F0A08"/>
</g>
</g>
<defs>
<clipPath id="clip0_35460_7039">
<rect width="47" height="47" fill="white"/>
</clipPath>
</defs>
</svg>
