<svg width="119" height="103" viewBox="0 0 119 103" fill="none" xmlns="http://www.w3.org/2000/svg">
<g clip-path="url(#clip0_29404_2701)">
<path d="M85.325 0.683594H66.95C65.4277 0.683594 64.1937 1.92291 64.1937 3.45169V8.98787C64.1937 10.5166 65.4277 11.756 66.95 11.756H85.325C86.8472 11.756 88.0812 10.5166 88.0812 8.98787V3.45169C88.0812 1.92291 86.8472 0.683594 85.325 0.683594Z" fill="white"/>
<path d="M32.0375 41.2823H13.6625C12.9315 41.2823 12.2304 41.5739 11.7135 42.093C11.1966 42.6122 10.9062 43.3162 10.9062 44.0504C10.9062 44.7845 11.1966 45.4886 11.7135 46.0077C12.2304 46.5268 12.9315 46.8185 13.6625 46.8185H32.0375C32.7685 46.8185 33.4696 46.5268 33.9865 46.0077C34.5034 45.4886 34.7937 44.7845 34.7937 44.0504C34.7937 43.3162 34.5034 42.6122 33.9865 42.093C33.4696 41.5739 32.7685 41.2823 32.0375 41.2823Z" fill="white"/>
<path d="M31.1187 66.1951C31.1187 65.461 30.8283 64.7569 30.3114 64.2378C29.7945 63.7186 29.0935 63.427 28.3624 63.427H9.98745C9.25645 63.427 8.55539 63.7186 8.03849 64.2378C7.52159 64.7569 7.2312 65.461 7.2312 66.1951C7.2312 66.9292 7.52159 67.6333 8.03849 68.1524C8.55539 68.6716 9.25645 68.9632 9.98745 68.9632H28.3624C29.0935 68.9632 29.7945 68.6716 30.3114 68.1524C30.8283 67.6333 31.1187 66.9292 31.1187 66.1951Z" fill="white"/>
<path d="M30.2 74.4994H17.3375C16.6065 74.4994 15.9055 74.791 15.3886 75.3101C14.8717 75.8293 14.5813 76.5333 14.5813 77.2675C14.5813 78.0016 14.8717 78.7057 15.3886 79.2248C15.9055 79.7439 16.6065 80.0356 17.3375 80.0356H30.2C30.9311 80.0356 31.6321 79.7439 32.149 79.2248C32.6659 78.7057 32.9563 78.0016 32.9563 77.2675C32.9563 76.5333 32.6659 75.8293 32.149 75.3101C31.6321 74.791 30.9311 74.4994 30.2 74.4994Z" fill="white"/>
<path d="M31.1187 55.1227C31.1187 54.3886 30.8284 53.6845 30.3115 53.1654C29.7946 52.6463 29.0935 52.3546 28.3625 52.3546H4.475C3.744 52.3546 3.04293 52.6463 2.52604 53.1654C2.00914 53.6845 1.71875 54.3886 1.71875 55.1227C1.71875 55.8569 2.00914 56.561 2.52604 57.0801C3.04293 57.5992 3.744 57.8908 4.475 57.8908H28.3625C29.0935 57.8908 29.7946 57.5992 30.3115 57.0801C30.8284 56.561 31.1187 55.8569 31.1187 55.1227Z" fill="white"/>
<path d="M76.1375 60.6589V29.2872C58.913 29.2872 44.9 43.3604 44.9 60.6589C44.9 77.9574 58.913 92.0306 76.1375 92.0306C93.362 92.0306 107.375 77.9574 107.375 60.6589H76.1375Z" fill="#B68D00"/>
<path d="M106.368 32.3674L109.324 29.3991C109.583 29.1428 109.789 28.8375 109.931 28.5008C110.072 28.164 110.146 27.8025 110.147 27.4371C110.149 27.0717 110.078 26.7097 109.939 26.3718C109.801 26.0339 109.597 25.7269 109.34 25.4685C109.083 25.2102 108.777 25.0055 108.44 24.8663C108.104 24.7272 107.743 24.6563 107.38 24.6578C107.016 24.6593 106.656 24.7331 106.321 24.875C105.985 25.0169 105.681 25.2241 105.426 25.4845L102.35 28.5735C96.4264 23.6727 89.2566 20.5322 81.65 19.5066V14.524H70.625V19.5066C63.0185 20.5318 55.8487 23.6718 49.9248 28.5721L46.8489 25.4832C46.5937 25.2227 46.2897 25.0155 45.9544 24.8736C45.6191 24.7317 45.2592 24.6579 44.8953 24.6564C44.5315 24.6549 44.1709 24.7258 43.8345 24.865C43.4981 25.0041 43.1924 25.2088 42.9351 25.4672C42.6779 25.7255 42.4741 26.0325 42.3355 26.3704C42.197 26.7083 42.1264 27.0704 42.1279 27.4358C42.1293 27.8012 42.2029 28.1627 42.3441 28.4994C42.4854 28.8361 42.6917 29.1414 42.9511 29.3977L45.9065 32.366C38.7591 40.0375 34.7861 50.1529 34.7937 60.6589C34.7937 83.5538 53.3405 102.18 76.1375 102.18C98.9344 102.18 117.481 83.5538 117.481 60.6589C117.489 50.1534 113.515 40.0386 106.368 32.3674ZM76.1375 94.7987C69.4141 94.7987 62.8418 92.7965 57.2515 89.0451C51.6613 85.2938 47.3042 79.9619 44.7313 73.7237C42.1584 67.4854 41.4852 60.621 42.7969 53.9986C44.1085 47.3761 47.3461 41.293 52.1002 36.5184C56.8544 31.7439 62.9115 28.4924 69.5056 27.1751C76.0997 25.8578 82.9348 26.5339 89.1463 29.1179C95.3578 31.7018 100.667 36.0776 104.402 41.6919C108.138 47.3061 110.131 53.9067 110.131 60.6589C110.131 65.1422 109.252 69.5816 107.544 73.7237C105.835 77.8657 103.331 81.6292 100.175 84.7994C97.0181 87.9696 93.2706 90.4843 89.1463 92.2C85.022 93.9157 80.6016 94.7987 76.1375 94.7987Z" fill="white"/>
</g>
<defs>
<clipPath id="clip0_29404_2701">
<rect width="117.6" height="102" fill="white" transform="translate(0.800049 0.599976)"/>
</clipPath>
</defs>
</svg>
