<svg width="51" height="71" viewBox="0 0 51 71" fill="none" xmlns="http://www.w3.org/2000/svg">
<g clip-path="url(#clip0_29404_2657)">
<path d="M27.424 53.6889H29.8903C34.3212 48.0069 50.8758 51.3778 45.4833 70.3996H11.8309C6.43836 51.3778 22.993 48.0069 27.424 53.6889Z" fill="#B58AFB"/>
<path d="M33.3342 51.5188C38.7087 52.8957 43.7239 58.6743 40.3999 70.3996H45.4831C49.8883 54.8608 39.6476 49.766 33.3342 51.5188Z" fill="#7B2AFF"/>
<path d="M28.657 57.9488C31.4644 57.9488 33.7402 55.6729 33.7402 52.8655V46.5741H23.5737V52.8655C23.5737 55.6729 25.8496 57.9488 28.657 57.9488Z" fill="#F6BB93"/>
<path d="M23.5737 51.5898C26.7365 52.3117 30.3412 52.5046 33.7402 52.1683V46.5743H23.5737V51.5898Z" fill="#E49775"/>
<path d="M11.1872 36.158H16.8676V27.5677H11.1872C8.81506 27.5677 6.89209 29.4907 6.89209 31.8628C6.89209 34.235 8.81506 36.158 11.1872 36.158Z" fill="#F6BB93"/>
<path d="M46.127 36.158H40.4465V27.5677H46.127C48.4991 27.5677 50.422 29.4907 50.422 31.8628C50.4222 34.235 48.4991 36.158 46.127 36.158Z" fill="#F6BB93"/>
<path d="M13.3705 34.4562C12.3113 29.8709 10.746 23.7593 10.0403 20.7782C5.50343 16.839 4.56478 8.51298 7.308 2.59495C7.70344 1.7418 8.79326 1.48719 9.52297 2.08015C11.3259 3.54515 14.8826 4.93443 21.5313 2.49571C34.4792 -2.2534 45.3826 4.14055 46.0085 7.41434C46.7085 7.41434 50.1087 7.8961 50.1087 11.2398C50.1087 14.0838 45.4347 29.2315 43.4194 34.4564H13.3705V34.4562Z" fill="#52668D"/>
<path d="M46.0083 7.4141C45.5165 4.84134 38.6771 0.34154 29.4863 0.837576C36.4227 1.25939 41.3723 5.10968 41.7664 7.41423C42.3926 7.41423 45.4344 7.89599 45.4344 11.2396C45.4344 14.0837 41.2531 29.2314 39.4501 34.4563H43.4191C45.4344 29.2314 50.1085 14.0837 50.1085 11.2396C50.1086 7.89586 46.7084 7.4141 46.0083 7.4141Z" fill="#243B5D"/>
<path d="M12.6389 40.2479C12.6389 51.5601 44.6749 51.5601 44.6749 40.2479C44.6749 33.766 43.808 22.7912 41.9192 18.5251C41.4707 17.5122 40.4956 16.473 39.6975 15.9959C39.0225 15.5925 38.3145 15.3644 37.5945 15.3644C36.7889 15.3644 36.0029 15.6224 35.2138 15.9959C33.1691 16.9621 31.1066 18.6961 28.6568 18.6961C26.2071 18.6961 24.1445 16.9619 22.0999 15.9959C21.3109 15.6224 20.5248 15.3644 19.7192 15.3644C18.9992 15.3644 18.2912 15.5923 17.6161 15.9959C16.8165 16.473 15.8402 17.514 15.39 18.5295C13.5089 22.7723 12.6389 33.6431 12.6389 40.2479Z" fill="#F6BB93"/>
<path d="M41.9199 18.5251C41.4714 17.5122 40.4963 16.473 39.6982 15.9959C39.0232 15.5925 38.3152 15.3644 37.5951 15.3644C37.0094 15.3644 36.4338 15.5019 35.86 15.72C36.0161 15.7998 36.1705 15.8917 36.323 15.9958C37.0215 16.4728 37.875 17.5121 38.2675 18.5249C39.9206 22.7911 40.6794 33.7658 40.6794 40.2477C40.6794 45.6529 34.2777 48.4751 27.592 48.7149C35.94 48.977 44.6756 46.1548 44.6756 40.2477C44.6756 33.7661 43.8086 22.7913 41.9199 18.5251Z" fill="#E49775"/>
<path d="M36.3083 32.2817C35.7281 32.2817 35.2581 31.8115 35.2581 31.2315V29.5974C35.2581 29.0172 35.7283 28.5471 36.3083 28.5471C36.8884 28.5471 37.3586 29.0173 37.3586 29.5974V31.2315C37.3586 31.8115 36.8884 32.2817 36.3083 32.2817Z" fill="#243B5D"/>
<path d="M21.0066 32.2817C20.4265 32.2817 19.9563 31.8115 19.9563 31.2315V29.5974C19.9563 29.0172 20.4265 28.5471 21.0066 28.5471C21.5866 28.5471 22.0568 29.0173 22.0568 29.5974V31.2315C22.0569 31.8115 21.5866 32.2817 21.0066 32.2817Z" fill="#243B5D"/>
<path d="M36.2209 27.5238C35.0551 27.5238 33.8893 27.1941 32.9808 26.5348C32.5113 26.194 32.407 25.5373 32.7477 25.0678C33.0884 24.5981 33.7452 24.4939 34.2146 24.8347C35.3021 25.624 37.1396 25.624 38.2271 24.8347C38.6963 24.4941 39.3532 24.5983 39.6941 25.0678C40.0348 25.5373 39.9304 26.194 39.461 26.5348C38.5525 27.1941 37.3867 27.5238 36.2209 27.5238Z" fill="#243B5D"/>
<path d="M23.7161 27.5238C23.5023 27.5238 23.2864 27.4586 23.1 27.3234C22.0125 26.534 20.1749 26.5342 19.0874 27.3234C18.6178 27.6638 17.961 27.5596 17.6205 27.0903C17.2797 26.6208 17.3843 25.9641 17.8537 25.6233C19.6706 24.3049 22.5169 24.3049 24.3339 25.6233C24.8033 25.9641 24.9077 26.6208 24.5671 27.0903C24.3615 27.3733 24.0411 27.5237 23.7161 27.5238Z" fill="#243B5D"/>
<path d="M15.2412 70.3996V65.1951C15.2412 64.6149 15.7114 64.1449 16.2915 64.1449C16.8715 64.1449 17.3417 64.6151 17.3417 65.1951V70.3996H15.2412ZM42.0734 70.3996V65.1951C42.0734 64.6149 41.6032 64.1449 41.0231 64.1449C40.4429 64.1449 39.9729 64.6151 39.9729 65.1951V70.3996H42.0734Z" fill="#7B2AFF"/>
<path d="M42.0734 65.1952C42.0734 64.7674 41.8173 64.3999 41.4503 64.2363C41.375 66.0748 41.0452 68.1248 40.4001 70.3997H42.0733V65.1952H42.0734Z" fill="#7B2AFF"/>
<path d="M35.4379 40.8511C35.1691 40.8511 34.9002 40.7485 34.6952 40.5435C33.5411 39.3894 31.6631 39.3891 30.5089 40.5435C30.0986 40.9535 29.4336 40.9536 29.0235 40.5433C28.6133 40.1332 28.6133 39.4682 29.0235 39.058C30.9968 37.0848 34.2075 37.085 36.1805 39.058C36.5907 39.4681 36.5907 40.1331 36.1806 40.5433C35.9755 40.7485 35.7066 40.8511 35.4379 40.8511Z" fill="#243B5D"/>
</g>
<defs>
<clipPath id="clip0_29404_2657">
<rect width="50.4" height="69.6" fill="white" transform="translate(0.000244141 0.799744)"/>
</clipPath>
</defs>
</svg>
