<svg width="70" height="70" viewBox="0 0 70 70" fill="none" xmlns="http://www.w3.org/2000/svg">
<path d="M55.6412 30.215H8.28657C6.69827 30.215 5.4104 31.5026 5.4104 33.0912V58.0485C5.4104 59.6368 6.698 60.9247 8.28657 60.9247H62.1681C63.7564 60.9247 65.0443 59.6371 65.0443 58.0485V39.6181C65.0443 34.4247 60.8343 30.215 55.6412 30.215Z" fill="#F1F2F2"/>
<path d="M56.8379 32.4831H10.4614C10.1624 32.4831 9.91768 32.2412 9.91768 31.9394C9.91768 31.6403 10.1624 31.3956 10.4614 31.3956H56.8379C57.1369 31.3956 57.3816 31.6403 57.3816 31.9394C57.3816 32.2412 57.1369 32.4831 56.8379 32.4831ZM8.28643 32.4831C7.98736 32.4831 7.74268 32.2412 7.74268 31.9394C7.74268 31.6403 7.98736 31.3956 8.28643 31.3956C8.58549 31.3956 8.83018 31.6403 8.83018 31.9394C8.83018 32.2412 8.58549 32.4831 8.28643 32.4831Z" fill="white"/>
<path d="M60.6954 31.6875C61.6276 33.1472 62.1681 34.8815 62.1681 36.7419V55.1723C62.1681 56.7606 60.8805 58.0485 59.292 58.0485H5.4104C5.4104 59.6368 6.698 60.9247 8.28657 60.9247H62.1681C63.7564 60.9247 65.0443 59.6371 65.0443 58.0485V39.6181C65.0443 36.2852 63.3103 33.3576 60.6954 31.6875Z" fill="#E6E7E8"/>
<path d="M61.5319 32.2889C62.8293 33.9009 63.6057 35.9497 63.6057 38.1802V56.6106C63.6057 58.1989 62.3181 59.4868 60.7296 59.4868H6.84829C6.42634 59.4868 6.0256 59.396 5.66455 59.2326C6.11586 60.2303 7.12017 60.9247 8.28651 60.9247H62.1681C63.7564 60.9247 65.0442 59.6371 65.0442 58.0486V39.6181C65.044 36.6553 63.6734 34.0124 61.5319 32.2889Z" fill="#D1D3D4"/>
<path d="M5.4104 54.2136V58.0484C5.4104 59.6367 6.698 60.9245 8.28657 60.9245H62.1681C63.7564 60.9245 65.0443 59.6369 65.0443 58.0484V54.2136H5.4104Z" fill="#58595B"/>
<path d="M63.6063 54.2137V56.6106C63.6063 58.1989 62.3187 59.4868 60.7301 59.4868H6.84883C6.42715 59.4868 6.02777 59.3938 5.66699 59.2307C6.11803 60.229 7.12044 60.9247 8.28705 60.9247H62.1686C63.7569 60.9247 65.0448 59.6371 65.0448 58.0485V54.2137H63.6063Z" fill="#414042"/>
<path d="M48.0884 33.9164H39.6008C38.9654 33.9164 38.4502 34.4316 38.4502 35.067V60.9247H49.2387V35.067C49.2387 34.4316 48.7238 33.9164 48.0884 33.9164Z" fill="#E6E7E8"/>
<path d="M49.2387 54.2136H38.4502V60.9245H49.2387V54.2136Z" fill="#939598"/>
<path d="M49.2387 58.0485H38.4502V60.9247H49.2387V58.0485Z" fill="#808285"/>
<path d="M19.7363 66.5946C22.8562 65.3129 24.3464 61.7447 23.0647 58.6248C21.783 55.5049 18.2148 54.0147 15.0949 55.2964C11.975 56.5781 10.4848 60.1463 11.7665 63.2662C13.0482 66.3861 16.6164 67.8763 19.7363 66.5946Z" fill="#414042"/>
<path d="M20.7636 60.9448C20.7636 62.7745 19.2802 64.2579 17.4505 64.2579C15.6208 64.2579 14.1375 62.7745 14.1375 60.9448C14.1375 59.1151 15.6208 57.6317 17.4505 57.6317C19.2802 57.6317 20.7636 59.1151 20.7636 60.9448Z" fill="#939598"/>
<path d="M54.7246 66.5943C57.8445 65.3126 59.3347 61.7444 58.053 58.6245C56.7713 55.5046 53.2031 54.0144 50.0832 55.2961C46.9633 56.5778 45.4731 60.146 46.7548 63.2659C48.0365 66.3858 51.6047 67.876 54.7246 66.5943Z" fill="#414042"/>
<path d="M55.7514 60.9445C55.7514 62.7743 54.268 64.2576 52.4383 64.2576C50.6086 64.2576 49.1252 62.7743 49.1252 60.9445C49.1252 59.1148 50.6086 57.6315 52.4383 57.6315C54.268 57.6315 55.7514 59.1148 55.7514 60.9445Z" fill="#939598"/>
<path d="M63.1188 33.9162H11.1638C10.5284 33.9162 10.0132 34.4314 10.0132 35.0668V42.9147C10.0132 43.5501 10.5284 44.0653 11.1638 44.0653H49.2747C50.9861 44.0653 52.619 44.7836 53.7755 46.0451L56.4957 49.0121C57.6522 50.2736 59.2851 50.9919 60.9965 50.9919H65.0442V39.6185C65.0442 37.474 64.3267 35.498 63.1188 33.9162Z" fill="#58595B"/>
<path d="M62.0572 52.6029H65.0438V48.6512H62.0572C61.7394 48.6512 61.4819 48.9086 61.4819 49.2264V52.0278C61.4819 52.3451 61.7394 52.6029 62.0572 52.6029Z" fill="#FFA91A"/>
<path d="M8.34202 52.6029H5.35547V48.6512H8.34202C8.65957 48.6512 8.9173 48.9086 8.9173 49.2265V52.0279C8.9173 52.3451 8.65984 52.6029 8.34202 52.6029Z" fill="#E63950"/>
<path d="M65.0441 48.6509H63.6062V52.6026H65.0441V48.6509Z" fill="#F79219"/>
<path d="M7.62102 44.1182H5.4104V33.8634H7.62102C8.35453 33.8634 8.94913 34.458 8.94913 35.1915V42.7901C8.94913 43.5236 8.35453 44.1182 7.62102 44.1182Z" fill="#E63950"/>
<path d="M49.2387 33.9164H38.4502V44.0652H49.2387V33.9164Z" fill="#414042"/>
<path d="M29.5278 33.9164H18.7393V44.0652H29.5278V33.9164Z" fill="#414042"/>
<path d="M47.3041 49.2891H45.7789C45.4614 49.2891 45.2036 49.0316 45.2036 48.7138V48.5882C45.2036 48.2706 45.4611 48.0129 45.7789 48.0129H47.3041C47.6219 48.0129 47.8794 48.2703 47.8794 48.5882V48.7138C47.8794 49.0316 47.6217 49.2891 47.3041 49.2891Z" fill="#D1D3D4"/>
<path d="M24.0104 49.9309H12.6911C12.3015 49.9309 11.9856 49.615 11.9856 49.2254C11.9856 48.8358 12.3015 48.5199 12.6911 48.5199H24.0104C24.4 48.5199 24.7159 48.8358 24.7159 49.2254C24.7159 49.6153 24.4 49.9309 24.0104 49.9309Z" fill="#D1D3D4"/>
<path d="M24.0104 52.4732H12.6911C12.3015 52.4732 11.9856 52.1573 11.9856 51.7677C11.9856 51.3781 12.3015 51.0622 12.6911 51.0622H24.0104C24.4 51.0622 24.7159 51.3781 24.7159 51.7677C24.7159 52.1573 24.4 52.4732 24.0104 52.4732Z" fill="#D1D3D4"/>
<path d="M8.96597 36.5555H5.42725V41.4258H8.96597V36.5555Z" fill="#D10028"/>
<path d="M35.1994 33.0506C43.6226 33.0506 50.451 26.2223 50.451 17.799C50.451 9.37576 43.6226 2.54736 35.1994 2.54736C26.7761 2.54736 19.9478 9.37576 19.9478 17.799C19.9478 26.2223 26.7761 33.0506 35.1994 33.0506Z" fill="#478CF7"/>
<path d="M35.1995 2.54764C34.5989 2.54764 34.0062 2.58244 33.4236 2.64986C41.01 3.52965 46.8993 9.97662 46.8993 17.799C46.8993 25.6214 41.0103 32.0684 33.4236 32.9482C34.0062 33.0159 34.5986 33.0504 35.1995 33.0504C43.6227 33.0504 50.4511 26.222 50.4511 17.7987C50.4511 9.37578 43.6227 2.54764 35.1995 2.54764Z" fill="#377DE2"/>
<path d="M35.1995 30.7685C42.3624 30.7685 48.169 24.9619 48.169 17.799C48.169 10.6361 42.3624 4.82947 35.1995 4.82947C28.0366 4.82947 22.23 10.6361 22.23 17.799C22.23 24.9619 28.0366 30.7685 35.1995 30.7685Z" fill="#F1F2F2"/>
<path d="M35.1993 4.82947C34.8176 4.82947 34.4399 4.84605 34.0667 4.87841C40.699 5.45233 45.9035 11.0179 45.9035 17.7993C45.9035 24.5806 40.699 30.1462 34.0667 30.7201C34.4399 30.7525 34.8178 30.7691 35.1993 30.7691C42.3621 30.7691 48.1688 24.9624 48.1688 17.7995C48.1688 10.6367 42.3621 4.82947 35.1993 4.82947Z" fill="#D1D3D4"/>
<path d="M47.0362 17.799C47.0362 10.826 41.5332 5.13808 34.633 4.84174C34.4432 4.84989 34.2542 4.86213 34.0667 4.87844C40.699 5.45237 45.9035 11.0179 45.9035 17.7993C45.9035 24.5807 40.699 30.1462 34.0667 30.7202C34.2542 30.7365 34.4432 30.7487 34.633 30.7569C41.5329 30.46 47.0362 24.7723 47.0362 17.799Z" fill="#E6E7E8"/>
<path d="M35.1995 4.82947V17.799H48.169C48.169 10.6362 42.3623 4.82947 35.1995 4.82947Z" fill="#76A34F"/>
<path d="M35.1995 4.82947V5.02685C41.2821 6.09831 45.9035 11.4091 45.9035 17.7993H48.169C48.169 10.6362 42.3623 4.82947 35.1995 4.82947Z" fill="#5A7A39"/>
<path d="M35.1995 4.87842V5.02686C41.2821 6.09832 45.9035 11.4091 45.9035 17.7993H47.0361C47.0364 11.0179 41.8319 5.45207 35.1995 4.87842Z" fill="#648940"/>
<path d="M39.0658 18.5216C39.0633 18.5216 39.0606 18.5216 39.0582 18.5216L35.1921 18.4787C34.8196 18.4743 34.52 18.1715 34.52 17.799V10.9181C34.52 10.5427 34.8242 10.2384 35.1997 10.2384C35.5752 10.2384 35.8794 10.5427 35.8794 10.9181V17.1269L39.0734 17.1623C39.4486 17.1666 39.7495 17.4741 39.7455 17.8496C39.7411 18.2223 39.4374 18.5216 39.0658 18.5216Z" fill="#414042"/>
<path d="M35.1995 8.36115C34.824 8.36115 34.5198 8.05692 34.5198 7.68146V6.9754C34.5198 6.59994 34.824 6.29572 35.1995 6.29572C35.5749 6.29572 35.8792 6.59994 35.8792 6.9754V7.68146C35.8792 8.05692 35.5749 8.36115 35.1995 8.36115Z" fill="#414042"/>
<path d="M35.1995 29.3885C34.824 29.3885 34.5198 29.0843 34.5198 28.7088V28.0027C34.5198 27.6273 34.824 27.3231 35.1995 27.3231C35.5749 27.3231 35.8792 27.6273 35.8792 28.0027V28.7088C35.8792 29.0843 35.5749 29.3885 35.1995 29.3885Z" fill="#414042"/>
<path d="M46.0659 18.5217H45.3599C44.9844 18.5217 44.6802 18.2174 44.6802 17.842C44.6802 17.4665 44.9844 17.1623 45.3599 17.1623H46.0659C46.4414 17.1623 46.7456 17.4665 46.7456 17.842C46.7456 18.2174 46.4414 18.5217 46.0659 18.5217Z" fill="#414042"/>
<path d="M25.0388 18.5217H24.3328C23.9573 18.5217 23.6531 18.2174 23.6531 17.842C23.6531 17.4665 23.9573 17.1623 24.3328 17.1623H25.0388C25.4143 17.1623 25.7185 17.4665 25.7185 17.842C25.7185 18.2174 25.4143 18.5217 25.0388 18.5217Z" fill="#414042"/>
<path d="M42.3835 11.3372C42.2095 11.3372 42.0355 11.2708 41.9028 11.1382C41.6372 10.8728 41.6372 10.4424 41.9028 10.1771L42.402 9.67792C42.6673 9.41229 43.098 9.41229 43.3631 9.67792C43.6287 9.94327 43.6287 10.3736 43.3631 10.639L42.8639 11.1382C42.7315 11.2708 42.5575 11.3372 42.3835 11.3372Z" fill="#414042"/>
<path d="M27.5153 26.2057C27.3413 26.2057 27.1673 26.1393 27.0347 26.0067C26.769 25.7413 26.769 25.3109 27.0347 25.0456L27.5338 24.5464C27.7992 24.2808 28.2298 24.2808 28.4949 24.5464C28.7605 24.8118 28.7605 25.2421 28.4949 25.5075L27.9957 26.0067C27.8633 26.1393 27.6893 26.2057 27.5153 26.2057Z" fill="#414042"/>
<path d="M42.8836 26.2056C42.7096 26.2056 42.5356 26.1393 42.403 26.0066L41.9038 25.5075C41.6382 25.2421 41.6382 24.8117 41.9038 24.5464C42.1692 24.2808 42.5998 24.2808 42.8649 24.5464L43.364 25.0455C43.6297 25.3109 43.6297 25.7413 43.364 26.0066C43.2314 26.1393 43.0574 26.2056 42.8836 26.2056Z" fill="#414042"/>
<path d="M28.0147 11.3371C27.8407 11.3371 27.6667 11.2707 27.5341 11.1381L27.0349 10.6389C26.7693 10.3736 26.7693 9.94317 27.0349 9.67782C27.3003 9.4122 27.7309 9.4122 27.996 9.67782L28.4952 10.177C28.7608 10.4423 28.7608 10.8727 28.4952 11.1381C28.3627 11.2707 28.1885 11.3371 28.0147 11.3371Z" fill="#414042"/>
</svg>
