<svg width="57" height="57" viewBox="0 0 57 57" fill="none" xmlns="http://www.w3.org/2000/svg">
<g clip-path="url(#clip0_29404_2173)">
<path d="M56.6979 21.4698C56.4878 21.2442 56.1851 21.1279 55.8769 21.1279H52.4937C51.1276 15.4745 47.9331 10.3512 43.4213 6.6146C38.5855 2.61009 32.4596 0.403329 26.1704 0.400024C26.0668 0.400024 25.9623 0.422166 25.874 0.476473C25.636 0.623091 25.5506 0.903989 25.6406 1.14413L28.6607 9.20393C28.7412 9.41907 28.9467 9.5615 29.1764 9.5615C36.3182 9.5615 42.5758 14.3566 44.5049 21.1279H41.6001C41.2917 21.1279 40.9891 21.2442 40.7791 21.4698C40.3832 21.895 40.3851 22.5183 40.732 22.9346L47.8922 31.5268C48.1015 31.7779 48.4116 31.9232 48.7385 31.9232C49.0655 31.9232 49.3754 31.778 49.5848 31.5268L56.745 22.9346C57.0918 22.5183 57.0937 21.895 56.6979 21.4698Z" fill="#B58AFB"/>
<path d="M25.6056 26.2867C32.2977 26.2867 37.7228 20.8617 37.7228 14.1696C37.7228 7.47742 32.2977 2.05237 25.6056 2.05237C18.9135 2.05237 13.4884 7.47742 13.4884 14.1696C13.4884 20.8617 18.9135 26.2867 25.6056 26.2867Z" fill="#FFEE78"/>
<path d="M37.7228 14.1696C37.7228 7.47745 32.2977 2.05237 25.6056 2.05237V26.2867C32.2977 26.2867 37.7228 20.8617 37.7228 14.1696Z" fill="#FCD232"/>
<path d="M25.6056 27.9391C18.0131 27.9391 11.8361 21.7621 11.8361 14.1696C11.8361 6.57704 18.0131 0.400024 25.6056 0.400024C33.1981 0.400024 39.3751 6.57704 39.3751 14.1696C39.3751 21.7621 33.1981 27.9391 25.6056 27.9391ZM25.6056 3.70471C19.8353 3.70471 15.1407 8.39924 15.1407 14.1696C15.1407 19.9399 19.8353 24.6344 25.6056 24.6344C31.3759 24.6344 36.0704 19.9399 36.0704 14.1696C36.0704 8.39924 31.3759 3.70471 25.6056 3.70471Z" fill="#FCD232"/>
<path d="M36.0704 14.1696C36.0704 19.9399 31.3759 24.6344 25.6056 24.6344V27.9391C33.1981 27.9391 39.3751 21.7621 39.3751 14.1696C39.3751 6.57704 33.1981 0.400024 25.6056 0.400024V3.70471C31.3759 3.70471 36.0704 8.39924 36.0704 14.1696Z" fill="#F7B90F"/>
<path d="M56.3024 39.0589C55.0811 37.3147 52.6771 36.8908 50.9329 38.1121L39.1138 46.3879C38.6508 46.7121 38.0993 46.886 37.5342 46.886H28.8V54.5969H38.2288C39.9243 54.5969 41.5786 54.0753 42.9675 53.1027L55.3555 44.4285C57.0999 43.2072 57.5238 40.8031 56.3024 39.0589Z" fill="#FABE8C"/>
<path d="M39.1138 46.3879C38.6508 46.7121 38.0993 46.886 37.5342 46.886L28.8 46.2087V50.1906H37.7227C41.6708 50.1906 44.8829 46.9786 44.8829 43.0305C44.8829 42.8079 44.8712 42.588 44.8512 42.3705L39.1138 46.3879Z" fill="#E6A578"/>
<path d="M56.3025 39.0589C55.0812 37.3147 52.6771 36.8908 50.9329 38.1121L40.9928 45.0723C41.3633 44.48 41.5782 43.7805 41.5782 43.0305C41.5782 40.9011 39.8521 39.175 37.7228 39.175H28.3595L27.2817 38.3667C25.1353 36.7568 22.4757 35.8703 19.7926 35.8703C17.5308 35.8703 15.3103 36.4853 13.3709 37.649C13.3709 37.649 11.5333 38.7515 10.435 39.4105C9.9373 39.7091 9.63293 40.2469 9.63293 40.8273V52.9445C9.63293 53.8571 10.3727 54.5969 11.2853 54.5969H38.2288C39.9244 54.5969 41.5787 54.0753 42.9675 53.1027L55.3556 44.4285C57.0999 43.2071 57.5239 40.8031 56.3025 39.0589Z" fill="#FFD2AA"/>
<path d="M28.8 54.5969H38.2288C39.9243 54.5969 41.5786 54.0753 42.9675 53.1027L55.3555 44.4285C57.0997 43.2072 57.5236 40.8031 56.3023 39.0589C55.081 37.3147 52.677 36.8908 50.9328 38.1121L40.9926 45.0723C41.3633 44.48 41.5782 43.7805 41.5782 43.0305C41.5782 40.9012 39.852 39.175 37.7227 39.175H28.8V54.5969Z" fill="#FABE8C"/>
<path d="M44.8513 42.3705L40.9928 45.0723C40.9689 45.1106 40.945 45.1489 40.9197 45.1861C40.227 46.2117 39.0536 46.886 37.7228 46.886H26.1564C25.2438 46.886 24.504 47.6258 24.504 48.5383C24.504 49.4508 25.2438 50.1906 26.1564 50.1906H37.7228C41.6709 50.1906 44.8829 46.9786 44.8829 43.0305C44.8829 42.8079 44.8713 42.588 44.8513 42.3705Z" fill="#FABE8C"/>
<path d="M11.2853 56.8H2.25244C1.33991 56.8 0.600098 56.0602 0.600098 55.1476V36.4211C0.600098 35.5085 1.33991 34.7687 2.25244 34.7687H11.2853C12.1978 34.7687 12.9376 35.5085 12.9376 36.4211V55.1476C12.9376 56.0602 12.1978 56.8 11.2853 56.8Z" fill="#6111E3"/>
<path d="M44.8512 42.3705L40.9927 45.0723C40.9688 45.1106 40.9449 45.1489 40.9197 45.1861C40.2269 46.2117 39.0535 46.886 37.7227 46.886H28.8V50.1906H37.7227C41.6708 50.1906 44.8829 46.9786 44.8829 43.0305C44.8829 42.8079 44.8712 42.588 44.8512 42.3705Z" fill="#E6A578"/>
<path d="M24.8074 20.6462L20.8462 14.6307V13.8286H21.3073C22.0478 13.8286 22.6696 13.7678 23.1726 13.6463C23.6896 13.5248 24.0948 13.3243 24.3882 13.0448C24.6816 12.7653 24.8563 12.3824 24.9122 11.8963H20.8462V10.7297H24.8912C24.7934 10.2801 24.5978 9.91548 24.3044 9.63597C24.011 9.34431 23.6127 9.13164 23.1097 8.99796C22.6207 8.86428 22.0199 8.79744 21.3073 8.79744H20.8462V7.6308H29.5231V8.79744H25.5619C25.8833 9.02834 26.1488 9.30177 26.3583 9.61774C26.5679 9.93371 26.7007 10.3044 26.7566 10.7297H29.5231V11.8963H26.7985C26.7007 12.7835 26.3094 13.4762 25.6248 13.9744C24.9541 14.4605 24.0599 14.7704 22.9421 14.9041L26.9452 20.6462H24.8074Z" fill="#EFAD02"/>
</g>
<defs>
<clipPath id="clip0_29404_2173">
<rect width="56.4" height="56.4" fill="white" transform="translate(0.600098 0.400024)"/>
</clipPath>
</defs>
</svg>
