<svg width="144" height="141" viewBox="0 0 144 141" fill="none" xmlns="http://www.w3.org/2000/svg">
<g clip-path="url(#clip0_29404_2200)">
<path d="M117.114 30.9119C117.114 31.2909 116.962 31.6351 116.711 31.8854C116.466 32.1357 116.124 32.2922 115.748 32.2922H86.5274C85.7754 32.2922 85.1614 31.6733 85.1614 30.9154C85.1614 30.5364 85.3132 30.1922 85.565 29.9419C85.8099 29.6915 86.1514 29.5351 86.5274 29.5351H87.9072C88.4522 28.2591 89.7113 27.3656 91.1773 27.3656C92.1639 27.3656 93.0573 27.7724 93.7024 28.4225C94.5648 26.9518 96.1515 25.9644 97.9694 25.9644C98.4696 25.9644 98.9491 26.0409 99.4044 26.18C100.356 24.379 102.233 23.1517 104.399 23.1517C107 23.1517 109.187 24.9214 109.85 27.3308C110.329 27.0909 110.871 26.9518 111.443 26.9518C113.065 26.9518 114.434 28.0435 114.865 29.5386H115.745C116.497 29.5386 117.111 30.1574 117.111 30.9154L117.114 30.9119Z" fill="#E1E4F7"/>
<path d="M42.0288 35.084C42.0288 35.463 41.877 35.8072 41.6252 36.0576C41.3803 36.3079 41.0388 36.4643 40.6628 36.4643H11.4419C10.6899 36.4643 10.0759 35.8455 10.0759 35.0875C10.0759 34.7086 10.2277 34.3644 10.4795 34.114C10.7244 33.8637 11.0659 33.7072 11.4419 33.7072H12.8217C13.3668 32.4313 14.6258 31.5377 16.0919 31.5377C17.0784 31.5377 17.9719 31.9445 18.6169 32.5947C19.4793 31.124 21.0661 30.1366 22.884 30.1366C23.3842 30.1366 23.8636 30.2131 24.319 30.3521C25.271 28.5511 27.1476 27.3238 29.3139 27.3238C31.9148 27.3238 34.1018 29.0935 34.7641 31.5029C35.2436 31.263 35.7852 31.124 36.3578 31.124C37.9791 31.124 39.3485 32.2157 39.7797 33.7107H40.6593C41.4113 33.7107 42.0253 34.3296 42.0253 35.0875L42.0288 35.084Z" fill="#E1E4F7"/>
<path d="M69.0349 15.0716C69.0349 15.4506 68.8831 15.7948 68.6313 16.0451C68.3864 16.2954 68.0449 16.4519 67.6689 16.4519H38.448C37.696 16.4519 37.082 15.833 37.082 15.0751C37.082 14.6961 37.2338 14.3519 37.4856 14.1016C37.7305 13.8513 38.072 13.6948 38.448 13.6948H39.8278C40.3729 12.4188 41.6319 11.5253 43.098 11.5253C44.0845 11.5253 44.978 11.9321 45.623 12.5822C46.4854 11.1115 48.0722 10.1241 49.8901 10.1241C50.3903 10.1241 50.8697 10.2006 51.3251 10.3397C52.2771 8.53871 54.1537 7.3114 56.32 7.3114C58.9209 7.3114 61.1079 9.08109 61.7702 11.4905C62.2497 11.2506 62.7913 11.1115 63.3639 11.1115C64.9852 11.1115 66.3546 12.2033 66.7858 13.6983H67.6654C68.4174 13.6983 69.0314 14.3171 69.0314 15.0751L69.0349 15.0716Z" fill="#E1E4F7"/>
<path d="M14.2463 98.9806C13.8116 97.5169 12.8113 96.2792 11.4522 95.6047C10.0724 94.9232 8.23033 94.7285 6.38139 96.6825C2.68006 100.594 10.7209 107.506 13.7495 106.529C15.9434 105.819 14.9569 101.373 14.2497 98.9806H14.2463Z" fill="#E1E4F7"/>
<path d="M118.08 118.656C119.594 118.677 121.067 118.082 122.113 116.976C123.172 115.853 123.906 114.139 122.606 111.775C120.008 107.047 111.06 112.717 111.085 115.923C111.102 118.246 115.603 118.624 118.084 118.656H118.08Z" fill="#E1E4F7"/>
<path d="M88.7592 54.1925C90.27 54.3281 91.7809 53.8518 92.9055 52.8261C94.0473 51.7866 94.9062 50.1351 93.7886 47.677C91.5533 42.7643 82.2051 47.7326 81.9878 50.9313C81.8291 53.2503 86.2928 53.97 88.7592 54.1925Z" fill="#E1E4F7"/>
<path d="M19.8758 108.198C20.1138 109.119 20.7071 109.912 21.5385 110.364C22.3801 110.823 23.5219 110.986 24.7189 109.811C27.1129 107.464 22.2663 102.972 20.3587 103.511C18.9755 103.9 19.4895 106.692 19.8758 108.198Z" fill="#E1E4F7"/>
<path d="M101.95 117.272C101.053 117.568 100.301 118.214 99.9077 119.076C99.5075 119.953 99.4144 121.11 100.649 122.244C103.119 124.507 107.272 119.358 106.62 117.474C106.148 116.107 103.419 116.792 101.95 117.272Z" fill="#E1E4F7"/>
<path d="M43.9195 76.4341C43.9195 76.4341 44.7129 77.4145 44.8026 78.2837C44.8922 79.1529 45.9788 80.7627 45.3959 80.9817C44.9026 81.166 43.9471 78.162 43.2675 77.3693C42.55 76.5349 43.9195 76.4306 43.9195 76.4306V76.4341Z" fill="#FF7A5D"/>
<path d="M44.3266 76.7783C44.3266 76.7783 44.737 78.3324 44.7888 79.2051C44.8405 80.0777 45.6995 81.4893 45.4511 81.7536C45.2062 82.0143 44.261 81.1208 43.9885 80.0534C43.716 78.9826 44.3266 76.7783 44.3266 76.7783Z" fill="#FF9978"/>
<path d="M44.3715 81.3989C44.644 82.4698 43.24 82.0943 43.2573 79.8343C43.2745 77.5744 41.9016 75.7526 41.4601 75.8917C41.0151 76.0307 42.2224 78.2315 41.9534 79.1425C41.6843 80.0499 40.9013 78.4993 40.2217 77.5918C39.518 76.6496 39.1868 74.3932 39.1765 72.7486C39.1627 71.1006 34.7094 61.8176 34.2402 58.9944L33.6952 57.854L31.7014 53.6749L28.5796 47.1316C28.5796 47.1316 28.9521 41.7321 31.0632 41.8469C31.0632 41.8469 32.7225 45.2924 34.5335 49.1899C34.8405 49.8505 35.1509 50.525 35.4579 51.1995C36.7549 54.0261 37.9968 56.8249 38.6349 58.5042C40.3183 62.9302 41.9223 72.4427 41.9223 72.4427C41.9223 72.4427 44.1576 75.6691 44.4474 77.2198C44.7544 78.8748 44.1024 80.335 44.3749 81.4024L44.3715 81.3989Z" fill="#FF9978"/>
<path d="M35.4579 51.196L33.6952 57.8471L31.7014 53.668L34.5335 49.1864C34.8405 49.847 35.1509 50.5215 35.4579 51.196Z" fill="#FF7A5D"/>
<path d="M35.2992 49.3289C34.423 51.6202 33.5296 53.9009 32.6362 56.1852C32.0118 54.8883 31.384 53.6471 30.7976 52.5067C30.7976 52.5067 30.7976 52.4998 30.7941 52.4998C30.5596 52.0443 30.3319 51.6062 30.1146 51.1855C30.1111 51.1786 30.1077 51.1716 30.1042 51.1647C30.0284 51.0187 29.9559 50.8726 29.88 50.7301C29.0073 49.0404 28.3277 47.6948 28.0656 46.8917C27.3584 44.7222 27.6102 40.2093 28.8176 39.128C28.8659 39.201 28.9314 38.9403 29.0177 39.0793C29.3419 39.5904 30.6079 40.776 31.3357 42.0138C31.4289 42.1702 31.5254 42.3336 31.622 42.504C32.6845 44.3258 34.0091 46.704 35.2992 49.3324V49.3289Z" fill="#FF5B32"/>
<path d="M41.5911 68.7851C41.5911 68.7851 38.9419 69.018 37.9587 69.9985L38.4382 71.504C38.4382 71.504 41.4428 70.6591 42.1637 70.5826C42.1637 70.5826 41.9878 69.0459 41.5911 68.7851Z" fill="#18285D"/>
<path d="M40.439 70.0402C40.5528 70.7495 41.1185 71.2467 41.7015 71.1493C42.2845 71.0554 42.6674 70.4018 42.5535 69.696C42.4397 68.9868 41.874 68.4896 41.291 68.5869C40.708 68.6808 40.3251 69.3344 40.439 70.0402Z" fill="#18285D"/>
<path d="M40.8943 69.9185C40.9771 70.4366 41.391 70.7982 41.8188 70.7286C42.2465 70.6591 42.5225 70.1828 42.4397 69.6647C42.3569 69.1467 41.943 68.7851 41.5152 68.8546C41.0875 68.9242 40.8115 69.4005 40.8943 69.9185Z" fill="#3B3E7D"/>
<path d="M21.556 113.813L19.1724 116.702C14.6777 114.825 2.10418 103.212 1.05898 102.242C1.04863 102.232 1.03828 102.225 1.02793 102.214C1.01414 102.204 1.00724 102.193 1.00034 102.186C1.00034 102.186 0.99344 102.183 0.98999 102.18C2.62161 100.097 6.81967 98.3307 8.42715 97.7118C8.82729 97.5589 9.0653 97.4754 9.0653 97.4754C9.1274 97.465 9.19294 97.4615 9.26193 97.465C9.31022 97.465 9.36196 97.4719 9.41371 97.4859C9.50684 97.5032 9.60343 97.5345 9.70346 97.5797C9.70691 97.5797 9.71036 97.5832 9.71726 97.5832C12.1285 98.6784 16.1299 106.856 21.5525 113.816L21.556 113.813Z" fill="#3B3E7D"/>
<path d="M45.8408 95.6814C45.8408 95.6814 30.4249 100.014 25.3472 100.014L23.8708 97.5311L34.3919 90.4871L34.4574 90.4419L34.7713 90.2333L36.7927 88.8774C36.7927 88.8774 44.9439 92.4897 45.8408 95.6814Z" fill="#3B3E7D"/>
<path d="M42.184 95.2711C37.2271 94.2003 23.9671 79.1075 23.9671 79.1075C22.7046 79.4969 18.6273 79.8446 18.6273 79.8446C18.6273 79.8446 13.7945 90.946 9.64129 97.1382C9.62749 97.159 9.61369 97.1799 9.59989 97.2007C9.5378 97.2946 9.47571 97.385 9.41362 97.4754C9.33428 97.5936 9.25149 97.7083 9.17215 97.8231C8.841 98.2924 8.51329 98.727 8.19594 99.1164C7.55778 99.8987 6.95756 100.5 6.41599 100.851C3.81506 102.534 2.06615 103.118 1.05889 102.239C1.04854 102.228 1.0382 102.221 1.02785 102.211C1.0175 102.204 1.00715 102.193 1.00025 102.183C1.00025 102.183 0.993352 102.18 0.989902 102.176C0.389687 101.592 0.0688818 100.441 0.00679055 98.6471C-0.155337 94.0925 7.96137 79.9593 8.841 78.214C8.88239 78.1305 8.90999 78.0749 8.91689 78.0505C8.99623 77.7794 9.35153 76.6216 9.68268 75.5577C10.5727 75.1405 11.5316 74.8623 12.4664 74.539C14.1153 73.9688 15.7711 73.409 17.4372 72.884C19.1412 72.3486 20.8695 71.8097 22.6356 71.5315C24.3224 71.2638 25.9161 70.9092 27.6202 70.9335C28.555 70.9474 29.5933 71.3403 30.5212 71.4238C31.2111 72.5746 32.4012 74.5564 32.6357 74.8623C32.6427 74.8727 32.6599 74.8901 32.684 74.9145C33.5982 75.8428 45.9474 86.5096 47.4169 90.9286C48.9244 95.4554 47.1444 96.3385 42.184 95.2676V95.2711Z" fill="#3B3E7D"/>
<path d="M32.6841 74.918C30.9076 73.5829 29.0207 72.0322 26.4336 72.1087C22.6564 72.22 11.956 76.8371 8.84106 78.214C8.88246 78.1305 8.91006 78.0749 8.91695 78.0505C8.99629 77.7794 9.35159 76.6216 9.68275 75.5577C10.5727 75.1405 11.5317 74.8623 12.4665 74.539C14.1154 73.9688 15.7711 73.409 17.4373 72.884C19.1413 72.3486 20.8695 71.8097 22.6357 71.5316C24.3225 71.2638 25.9162 70.9092 27.6202 70.9335C28.555 70.9475 29.5933 71.3403 30.5213 71.4238C31.2112 72.5746 32.4012 74.5564 32.6358 74.8623C32.6427 74.8728 32.66 74.8901 32.6841 74.9145V74.918Z" fill="#18285D"/>
<path d="M37.679 92.1487C36.8235 91.6932 35.6506 90.8762 34.7986 90.2503C34.7986 90.2503 34.7814 90.2364 34.7745 90.2295L34.4606 90.4416L34.395 90.4868C34.433 90.5146 34.4744 90.5459 34.5158 90.5772L36.0128 93.0457C36.0542 93.1117 36.1232 93.15 36.1957 93.15C36.2336 93.15 36.2716 93.1396 36.3061 93.1187C36.4061 93.0561 36.4406 92.924 36.3785 92.8197L35.4092 91.2204C36.106 91.7071 36.8649 92.2078 37.4823 92.5346C37.5134 92.552 37.5479 92.5589 37.5824 92.5589C37.6583 92.5589 37.7342 92.5172 37.7721 92.4407C37.8273 92.3329 37.7859 92.2043 37.6824 92.1487H37.679Z" fill="#18285D"/>
<path d="M9.7038 97.5728C9.60377 97.5276 9.50718 97.4963 9.41404 97.479C9.47614 97.3886 9.53823 97.2982 9.60032 97.2043C9.61412 97.1834 9.62791 97.1626 9.64171 97.1417C9.58652 97.166 9.53133 97.1904 9.47614 97.2147C9.46924 97.2147 9.46234 97.2217 9.45199 97.2252C9.10359 97.3781 8.75174 97.545 8.42403 97.7084C7.6203 98.1117 6.97524 98.4872 6.92004 98.522C6.81656 98.5811 6.78206 98.7167 6.84416 98.8175C6.8821 98.8871 6.95454 98.9253 7.03043 98.9253C7.06837 98.9253 7.10287 98.9149 7.13736 98.894C7.15116 98.8836 7.9756 98.4038 8.92766 97.9414L8.23086 98.9601C8.19982 99.0087 8.18602 99.0679 8.19637 99.12C8.20326 99.1756 8.23431 99.2278 8.28605 99.2626C8.324 99.2904 8.36539 99.3008 8.40679 99.3008C8.47578 99.3008 8.54132 99.2695 8.58271 99.2069L9.69001 97.5902C9.69001 97.5902 9.70725 97.5833 9.71415 97.5798C9.7107 97.5798 9.7038 97.5763 9.70035 97.5763L9.7038 97.5728Z" fill="#18285D"/>
<path d="M21.1558 115.117C21.0902 115.117 21.0281 115.085 20.9867 115.03L9.9621 99.4676C9.74133 99.8083 9.32049 100.368 8.77891 100.66C8.57884 100.768 8.37187 100.782 8.1787 100.695C7.76131 100.504 7.51639 99.8779 7.4129 99.5406C7.10935 99.6067 6.55053 99.6832 6.21592 99.4502C6.0538 99.339 5.96066 99.1686 5.94341 98.96C5.88132 98.1499 7.74406 97.0269 8.25114 96.7348L17.4061 78.5095C17.4579 78.4086 17.5821 78.3669 17.6856 78.4191C17.789 78.4712 17.827 78.5964 17.7752 78.7007L8.56159 97.0373L8.5064 97.0686C7.4474 97.6631 6.32631 98.5463 6.3539 98.9287C6.3608 99.0365 6.4091 99.0817 6.44704 99.1095C6.67471 99.2659 7.25078 99.1651 7.49569 99.0921L7.70611 99.0295L7.75786 99.2451C7.84064 99.5928 8.07176 100.194 8.34772 100.319C8.39602 100.344 8.46846 100.361 8.58229 100.299C9.26529 99.93 9.75857 99.0052 9.76202 98.9948L9.91725 98.6958L21.3213 114.793C21.3869 114.887 21.3662 115.016 21.2731 115.085C21.2351 115.113 21.1937 115.124 21.1523 115.124L21.1558 115.117Z" fill="#18285D"/>
<path d="M24.626 98.3724C24.557 98.3724 24.4915 98.3411 24.4535 98.2785C24.3914 98.1812 24.419 98.0525 24.5122 97.99L34.564 91.3562L34.6468 91.6135C34.809 92.1072 35.3678 93.4701 36.0163 93.8317C36.1474 93.9047 36.2612 93.9151 36.3716 93.8699C36.7096 93.7274 36.9511 93.0912 37.0098 92.8791L37.0649 92.6844L37.2581 92.733C37.7066 92.8443 38.4517 92.9347 38.6897 92.7922C38.6345 92.4514 37.372 91.1059 35.1056 89.4336C32.9152 87.8169 24.5812 78.4156 24.2259 78.0158C24.15 77.9288 24.1569 77.7967 24.2431 77.7202C24.3293 77.6437 24.4604 77.6507 24.5363 77.7376C24.6225 77.835 33.1946 87.5039 35.3505 89.0963C36.7372 90.1185 39.0864 92.0481 39.1071 92.8061C39.1071 92.9243 39.0657 93.0251 38.9829 93.0946C38.6207 93.3936 37.7617 93.2615 37.3513 93.1781C37.2409 93.4875 36.9787 94.0647 36.5337 94.2524C36.3061 94.3497 36.0577 94.3289 35.8197 94.1968C35.0884 93.7935 34.5537 92.5418 34.3467 91.9994L24.7398 98.3411C24.7053 98.3655 24.6639 98.3759 24.626 98.3759V98.3724Z" fill="#18285D"/>
<path d="M26.054 100.159L22.5769 102.461L21.6179 99.0608L24.5914 97.4163L26.054 100.159Z" fill="#FF9978"/>
<path d="M22.5079 101.327C22.5079 101.327 23.629 101.776 23.7359 102.343C23.8429 102.909 21.5972 108.125 21.7076 109.672C21.818 111.219 20.2933 111.483 20.1312 110.868C19.6586 109.095 17.1335 99.3005 17.1335 99.3005C17.1335 99.3005 20.4382 98.0697 21.5731 98.167C22.708 98.2644 21.956 100.243 22.5079 101.327Z" fill="#FFC149"/>
<path d="M20.7727 104.342C20.7416 104.294 20.7313 104.235 20.7485 104.176C20.7796 104.061 20.8934 103.995 21.0073 104.023C21.0452 104.033 21.9386 104.273 22.4043 104.798C23.0218 105.493 22.7355 106.244 22.7251 106.276C22.6837 106.383 22.5595 106.439 22.4492 106.394C22.3422 106.352 22.287 106.227 22.3319 106.116C22.3388 106.095 22.5285 105.577 22.0904 105.08C21.7144 104.652 20.9107 104.436 20.9038 104.433C20.8486 104.419 20.8037 104.384 20.7761 104.339L20.7727 104.342Z" fill="white"/>
<path d="M21.1868 103.574C21.1592 103.525 21.1454 103.466 21.1626 103.407C21.1937 103.292 21.3075 103.226 21.4213 103.254C21.4593 103.264 22.3527 103.504 22.8184 104.029C23.4359 104.725 23.1496 105.476 23.1392 105.507C23.0978 105.618 22.9736 105.67 22.8632 105.625C22.7529 105.583 22.7011 105.458 22.746 105.347C22.7529 105.326 22.9426 104.808 22.5045 104.311C22.1251 103.883 21.3248 103.668 21.3179 103.664C21.2627 103.65 21.2178 103.615 21.1902 103.57L21.1868 103.574Z" fill="white"/>
<path d="M20.5278 105.302C20.4968 105.253 20.4864 105.194 20.5037 105.135C20.5347 105.02 20.6485 104.954 20.7624 104.982C20.8003 104.992 21.6938 105.232 22.1594 105.757C22.7769 106.453 22.4906 107.204 22.4802 107.235C22.4388 107.346 22.3147 107.398 22.2043 107.353C22.0973 107.311 22.0422 107.186 22.087 107.075C22.0939 107.054 22.2836 106.536 21.8455 106.039C21.4661 105.611 20.6658 105.396 20.6589 105.392C20.6037 105.378 20.5589 105.343 20.5313 105.298L20.5278 105.302Z" fill="white"/>
<path d="M24.3155 96.4498C23.4013 96.7488 23.0943 96.9887 22.6045 97.5484C22.6045 97.5484 23.3116 99.5719 24.8605 101.724L26.6473 100.629C26.6473 100.629 25.8436 99.0678 24.3155 96.4498Z" fill="#586199"/>
<path d="M19.1692 116.278L21.8081 119.251C23.3052 119.55 24.0158 118.555 24.0399 116.431L21.5563 113.809L19.1692 116.274V116.278Z" fill="#FF9978"/>
<path d="M21.5976 113.041C22.422 113.538 22.6704 113.841 23.0223 114.498C23.0223 114.498 21.8839 116.309 19.9004 118.062L18.3999 116.591C18.3999 116.591 19.5279 115.249 21.5942 113.041H21.5976Z" fill="#586199"/>
<path d="M22.9013 117.335C22.9013 117.335 21.7043 116.952 20.8557 118.371C20.0072 119.789 21.3145 120.957 21.3145 120.957C21.3145 120.957 22.2631 124.5 22.3149 125.474C22.4184 127.438 22.8358 128.29 23.2152 128.752C24.0052 129.726 26.8131 127.723 26.6406 125.509C26.4681 123.294 26.3129 118.019 25.9921 117.446C25.4677 116.511 23.1807 115.44 23.1807 115.44C23.4325 115.881 23.5015 116.792 22.9048 117.331L22.9013 117.335Z" fill="#FFC149"/>
<path d="M24.1737 121.904C24.2186 121.858 24.2427 121.796 24.2393 121.726C24.2324 121.594 24.122 121.49 23.9874 121.497C23.9426 121.497 22.8974 121.552 22.2627 122.022C21.4176 122.648 21.5555 123.545 21.5624 123.583C21.5831 123.715 21.7073 123.802 21.8384 123.781C21.9695 123.76 22.0557 123.635 22.035 123.503C22.0316 123.479 21.9453 122.86 22.5455 122.415C23.063 122.032 24.0012 121.984 24.0116 121.98C24.0771 121.98 24.1323 121.949 24.1737 121.907V121.904Z" fill="white"/>
<path d="M23.8978 120.954C23.9427 120.909 23.9668 120.847 23.9634 120.777C23.9565 120.645 23.8461 120.541 23.7116 120.548C23.6667 120.548 22.6215 120.603 21.9868 121.073C21.1417 121.698 21.2797 122.595 21.2866 122.634C21.3072 122.766 21.4314 122.853 21.5625 122.832C21.6936 122.811 21.7798 122.686 21.7591 122.554C21.7557 122.529 21.6694 121.91 22.2697 121.465C22.7905 121.08 23.7254 121.034 23.7323 121.034C23.7978 121.034 23.853 121.003 23.8944 120.961L23.8978 120.954Z" fill="white"/>
<path d="M24.2221 123.027C24.2669 122.981 24.291 122.919 24.2876 122.849C24.2807 122.717 24.1703 122.613 24.0358 122.62C23.9909 122.62 22.9457 122.675 22.311 123.145C21.4659 123.771 21.6039 124.668 21.6108 124.706C21.6315 124.838 21.7556 124.925 21.8867 124.904C22.0178 124.883 22.104 124.758 22.0834 124.626C22.0799 124.602 21.9937 123.983 22.5939 123.538C23.1148 123.152 24.0496 123.107 24.0599 123.107C24.1255 123.107 24.1807 123.075 24.2221 123.033V123.027Z" fill="white"/>
<path d="M24.1737 121.904C24.2186 121.858 24.2427 121.796 24.2393 121.726C24.2324 121.594 24.122 121.49 23.9874 121.497C23.9426 121.497 22.8974 121.552 22.2627 122.022C21.4176 122.648 21.5555 123.545 21.5624 123.583C21.5831 123.715 21.7073 123.802 21.8384 123.781C21.9695 123.76 22.0557 123.635 22.035 123.503C22.0316 123.479 21.9453 122.86 22.5455 122.415C23.063 122.032 24.0012 121.984 24.0116 121.98C24.0771 121.98 24.1323 121.949 24.1737 121.907V121.904Z" fill="white"/>
<path d="M23.8978 120.954C23.9427 120.909 23.9668 120.847 23.9634 120.777C23.9565 120.645 23.8461 120.541 23.7116 120.548C23.6667 120.548 22.6215 120.603 21.9868 121.073C21.1417 121.698 21.2797 122.595 21.2866 122.634C21.3072 122.766 21.4314 122.853 21.5625 122.832C21.6936 122.811 21.7798 122.686 21.7591 122.554C21.7557 122.529 21.6694 121.91 22.2697 121.465C22.7905 121.08 23.7254 121.034 23.7323 121.034C23.7978 121.034 23.853 121.003 23.8944 120.961L23.8978 120.954Z" fill="white"/>
<path d="M24.2221 123.027C24.2669 122.981 24.291 122.919 24.2876 122.849C24.2807 122.717 24.1703 122.613 24.0358 122.62C23.9909 122.62 22.9457 122.675 22.311 123.145C21.4659 123.771 21.6039 124.668 21.6108 124.706C21.6315 124.838 21.7556 124.925 21.8867 124.904C22.0178 124.883 22.104 124.758 22.0834 124.626C22.0799 124.602 21.9937 123.983 22.5939 123.538C23.1148 123.152 24.0496 123.107 24.0599 123.107C24.1255 123.107 24.1807 123.075 24.2221 123.033V123.027Z" fill="white"/>
<path d="M32.6357 74.8655C32.477 74.6221 32.2735 74.3405 32.1493 74.111C31.249 73.0645 30.8661 72.0006 29.0482 71.413C28.6273 71.2774 28.1306 71.2357 27.5683 71.1801C25.5952 70.9889 23.222 71.3991 20.8452 72.084C14.9811 73.7703 9.0893 77.108 9.0893 77.108C8.0027 75.3279 11.6419 67.8493 10.8658 61.1565C10.0897 54.4636 9.65847 45.424 9.65847 42.8164C9.65847 40.2088 9.4584 34.8858 10.407 34.1591C11.3556 33.4325 12.0662 33.1822 14.4291 34.2148C16.7955 35.2474 18.4582 36.3669 18.4582 36.3669L23.1392 36.4365C23.1392 36.4365 30.0072 37.775 29.4035 40.5495C28.7998 43.324 28.0237 49.8569 27.6339 53.7683C27.2441 57.6797 31.9699 69.7789 32.6046 72.3796C32.8565 73.4191 32.9737 74.3022 32.6322 74.8655H32.6357Z" fill="#FF5B32"/>
<path d="M14.5291 70.0017C14.4704 70.0017 14.4118 69.9773 14.3704 69.9287C14.298 69.8418 14.3083 69.7096 14.3945 69.6331C14.4359 69.5984 18.7616 65.986 27.0508 64.9534C27.1612 64.9395 27.2681 65.0194 27.2819 65.1342C27.2957 65.2489 27.2164 65.3532 27.1026 65.3671C18.9376 66.3858 14.705 69.9148 14.6636 69.9495C14.6257 69.9843 14.5774 69.9982 14.5291 69.9982V70.0017Z" fill="#EB4028"/>
<path d="M14.4706 68.1415C14.4085 68.1415 14.3464 68.1137 14.305 68.0581C14.236 67.9642 14.2567 67.8356 14.3464 67.766C14.4775 67.6687 17.5648 65.374 21.1937 64.9637C21.3075 64.9498 21.411 65.0333 21.4213 65.148C21.4351 65.2627 21.3523 65.367 21.2385 65.3775C17.72 65.7773 14.6223 68.0755 14.5913 68.0998C14.5533 68.1276 14.512 68.1415 14.4671 68.1415H14.4706Z" fill="#EB4028"/>
<path d="M19.6343 40.6573C17.0955 39.8507 15.1879 38.0253 15.0879 37.928C15.0051 37.848 15.0051 37.7194 15.081 37.6359C15.1603 37.5525 15.288 37.5525 15.3707 37.629C15.3983 37.6568 18.2718 40.4035 21.5385 40.6086C21.6523 40.6156 21.7351 40.7129 21.7282 40.8276C21.7213 40.9424 21.6247 41.0258 21.5109 41.0189C20.8589 40.9771 20.2277 40.845 19.6309 40.6538L19.6343 40.6573Z" fill="#EB4028"/>
<path d="M20.0967 39.5763C19.0273 39.2355 18.2305 38.6723 18.1787 38.6341C18.0856 38.568 18.0649 38.4394 18.1304 38.349C18.196 38.2551 18.3236 38.2342 18.4133 38.3003C18.4305 38.3142 20.1725 39.545 21.8835 39.4094C21.9973 39.3989 22.0939 39.4859 22.1043 39.5971C22.1146 39.7119 22.0284 39.8092 21.918 39.8196C21.2798 39.8683 20.652 39.7536 20.0967 39.5763Z" fill="#EB4028"/>
<path d="M27.527 25.7731C27.5028 26.0443 27.4683 26.3085 27.4166 26.5658C27.3959 26.6701 27.3752 26.771 27.351 26.8718C26.637 29.8236 24.1533 31.7323 20.9936 31.4542C17.7407 31.1691 15.8193 28.9092 15.7676 25.7766C15.7676 25.6792 15.7676 25.5784 15.7676 25.4776C15.771 25.2968 15.7814 25.116 15.7986 24.9317C16.1056 21.368 18.196 18.6422 22.4389 19.0142C25.9747 19.3237 27.8374 22.2094 27.5304 25.7731H27.527Z" fill="#142239"/>
<path d="M26.582 27.4246C26.582 27.4246 27.6789 26.1903 28.3136 27.3446C28.9518 28.4989 27.641 31.635 25.9197 30.6928L26.582 27.4246Z" fill="#FF7A5D"/>
<path d="M26.3956 29.7297C26.4611 29.7367 26.5267 29.6984 26.5508 29.6324C26.913 28.6623 27.972 28.3459 27.9824 28.3425C28.0617 28.3181 28.11 28.2347 28.0858 28.1547C28.0617 28.0748 27.9789 28.0261 27.8996 28.0504C27.8513 28.0643 26.6853 28.4085 26.2645 29.5246C26.2335 29.6045 26.2748 29.6915 26.3542 29.7228C26.368 29.7262 26.3818 29.7297 26.3956 29.7332V29.7297Z" fill="#EF4B47"/>
<path d="M27.472 29.3194C27.4996 29.3194 27.5306 29.3194 27.5548 29.3021C27.6272 29.2638 27.6583 29.1699 27.6169 29.0969C27.61 29.083 27.4547 28.791 27.0891 28.5858C27.0167 28.5441 26.9235 28.5719 26.8821 28.6449C26.8407 28.718 26.8683 28.8118 26.9408 28.8535C27.2236 29.01 27.3478 29.236 27.3478 29.2395C27.372 29.2881 27.4203 29.316 27.4685 29.3194H27.472Z" fill="#EF4B47"/>
<path d="M23.4187 33.2309L23.1427 36.4399C23.1427 36.4399 22.0526 37.9906 20.7591 37.9906C19.469 37.9906 18.4583 36.3739 18.4583 36.3739L18.7446 33.0535L23.4187 33.2343V33.2309Z" fill="#FF9978"/>
<path d="M23.4187 33.2308L23.2945 34.6529C22.3493 35.5394 20.8005 35.6472 18.5652 35.1118L18.7446 33.0466L23.4187 33.2274V33.2308Z" fill="#FF7A5D"/>
<path d="M27.4823 25.2864C27.3167 26.5276 27.0649 28.0748 26.7199 29.3021C26.6337 29.608 26.544 29.8931 26.4474 30.1504C25.5747 32.4555 23.5498 36.3634 19.0068 34.2635C16.9992 33.3386 16.2403 30.9292 16.0161 28.5267C15.8643 26.8961 15.9609 25.269 16.0816 24.1112C16.2058 22.9291 16.9405 21.9034 18.0133 21.4097C20.9178 20.0712 23.7878 20.916 25.6471 21.8304C26.9372 22.4632 27.6789 23.8609 27.4857 25.2898L27.4823 25.2864Z" fill="#FF9978"/>
<path d="M20.1106 27.063C20.0795 27.4037 19.8829 27.668 19.6656 27.6471C19.4483 27.6297 19.2999 27.3342 19.3275 26.9935C19.3586 26.6527 19.5552 26.3885 19.7725 26.4094C19.9898 26.4267 20.1382 26.7223 20.1106 27.063Z" fill="#142239"/>
<path d="M24.6467 27.4594C24.6156 27.8001 24.419 28.0643 24.2017 28.0435C23.9844 28.0261 23.8361 27.7305 23.8637 27.3898C23.8947 27.0491 24.0913 26.7849 24.3086 26.8057C24.526 26.8231 24.6743 27.1186 24.6467 27.4594Z" fill="#142239"/>
<path d="M25.516 25.3768C25.516 25.3768 24.3259 24.7787 23.3394 25.109L23.3876 25.6514C23.3876 25.6514 24.7916 25.6514 25.4712 26.0026C25.5505 25.8044 25.5781 25.5958 25.516 25.3802V25.3768Z" fill="#142239"/>
<path d="M18.3268 24.7475C18.3268 24.7475 19.6031 24.3651 20.5173 24.8622L20.3758 25.3872C20.3758 25.3872 18.9926 25.1473 18.2647 25.3733C18.2199 25.1612 18.2268 24.9561 18.3268 24.751V24.7475Z" fill="#142239"/>
<path d="M21.756 29.8998C21.5008 29.9103 21.2421 29.8164 21.2041 29.8025C21.1248 29.7747 21.0868 29.6843 21.1144 29.6078C21.142 29.5278 21.2317 29.4896 21.3076 29.5174C21.4456 29.5695 21.7767 29.646 21.9182 29.5522C21.9458 29.5348 21.9803 29.5 21.9872 29.4061C22.0216 28.8707 21.8147 27.0871 21.8147 27.0697C21.8043 26.9863 21.863 26.9098 21.9492 26.8994C22.032 26.8889 22.1079 26.948 22.1182 27.035C22.1251 27.108 22.3321 28.8638 22.2942 29.4305C22.2804 29.6426 22.1734 29.7538 22.0872 29.8129C21.9906 29.8755 21.8768 29.8998 21.7595 29.9033L21.756 29.8998Z" fill="#FF7A5D"/>
<path d="M19.5793 30.6302C19.6483 31.2665 19.9588 32.4555 21.342 32.5772C22.7288 32.6989 23.2082 31.6802 23.4049 30.964L19.5793 30.6302Z" fill="white"/>
<path d="M21.1455 33.5125C21.5353 33.5472 21.8872 33.3769 21.901 33.3699C21.9769 33.3317 22.0079 33.2413 21.97 33.1648C21.932 33.0883 21.8423 33.057 21.7664 33.0953C21.7664 33.0953 21.4767 33.2343 21.1731 33.21C20.8937 33.1856 20.6385 33.0014 20.6385 32.9979C20.5729 32.9492 20.4763 32.9631 20.4246 33.0292C20.3728 33.0953 20.3901 33.1926 20.4556 33.2448C20.4694 33.2552 20.7764 33.4847 21.1455 33.5159V33.5125Z" fill="#FF7A5D"/>
<path d="M27.1304 27.4976L26.444 27.4385C26.5785 26.7501 26.4026 25.8913 26.2439 25.3142C25.8852 24.0069 26.9304 23.5375 26.1784 22.8317C25.4264 22.126 23.3981 22.2233 22.0079 22.0564C20.6074 21.8895 18.8758 21.6914 18.3169 21.7713C17.7581 21.8513 17.7443 22.8074 17.8857 23.5375C18.0272 24.2642 17.051 24.9143 16.8405 25.6375C16.7819 25.8461 16.8267 26.2529 16.8302 26.5971L15.9368 26.5206C15.9471 25.6201 16.0092 24.7857 16.0782 24.1077C16.2024 22.9256 16.9371 21.9 18.0099 21.4063C20.9144 20.0677 23.7844 20.9126 25.6437 21.827C26.9338 22.4597 27.6755 23.8574 27.4823 25.2864C27.3926 25.9678 27.2753 26.7397 27.1304 27.5011V27.4976Z" fill="#142239"/>
<path d="M22.6702 27.5807C22.7599 26.5377 23.6775 25.7624 24.7123 25.8528C25.7472 25.9432 26.5164 26.868 26.4267 27.911C26.337 28.9541 25.4195 29.7294 24.3846 29.639C23.3498 29.5486 22.5805 28.6238 22.6702 27.5807ZM22.9634 27.6051C22.8875 28.4882 23.536 29.267 24.4122 29.3435C25.2884 29.42 26.0611 28.7663 26.137 27.8832C26.2128 27.0001 25.5643 26.2213 24.6882 26.1448C23.812 26.0683 23.0393 26.722 22.9634 27.6051Z" fill="white"/>
<path d="M17.534 27.1322C17.6237 26.0892 18.5412 25.3139 19.5761 25.4043C20.6109 25.4947 21.3802 26.4195 21.2905 27.4625C21.2008 28.5056 20.2832 29.2809 19.2484 29.1905C18.2135 29.1001 17.4443 28.1753 17.534 27.1322ZM17.8272 27.1566C17.7513 28.0397 18.3998 28.8185 19.276 28.895C20.1521 28.9715 20.9248 28.3178 21.0007 27.4347C21.0766 26.5516 20.4281 25.7728 19.5519 25.6963C18.6758 25.6198 17.9031 26.2735 17.8272 27.1566Z" fill="white"/>
<path d="M27.5339 26.4403C27.6097 26.5203 27.5545 26.7081 27.4683 26.7463C26.7715 26.8228 26.2748 27.2331 26.2679 27.2365C26.2368 27.2609 26.1989 27.2713 26.1609 27.2713C26.123 27.2713 26.0851 27.2504 26.0609 27.2191C26.0092 27.1566 26.0161 27.0627 26.0782 27.0105C26.1092 26.9827 26.7025 26.496 27.5339 26.4403Z" fill="white"/>
<path d="M17.9995 26.489C17.9685 26.5308 17.9167 26.5481 17.8719 26.5447C17.8443 26.5447 17.8167 26.5308 17.7925 26.5134C17.7822 26.5064 16.7025 25.752 15.7608 25.6442C15.6642 25.5433 15.6883 25.4251 15.7677 25.3243C16.8025 25.4251 17.9236 26.2422 17.9719 26.2804C18.034 26.3326 18.0478 26.423 17.9961 26.489H17.9995Z" fill="white"/>
<path d="M21.2247 27.0245C21.2247 27.0245 21.618 26.576 22.0733 26.6177C22.5252 26.6559 22.8011 27.1566 22.8011 27.1635L23.0598 27.0245C23.046 26.9967 22.7114 26.3778 22.0974 26.3222C21.4903 26.27 21.0177 26.8089 21.0005 26.8332L21.2247 27.0279V27.0245Z" fill="white"/>
<path d="M16.4542 26.5377C16.4542 26.5377 15.5849 25.1296 14.7604 26.1588C13.936 27.1879 14.6915 30.5013 16.5473 29.872L16.4542 26.5377Z" fill="#FF9978"/>
<path d="M16.2438 28.8428C16.1782 28.8359 16.1196 28.7872 16.1093 28.7177C15.9161 27.699 14.9295 27.2053 14.9192 27.1983C14.8433 27.1601 14.8122 27.0697 14.8502 26.9932C14.8881 26.9167 14.9778 26.8854 15.0537 26.9202C15.0985 26.941 16.1886 27.4834 16.4094 28.6586C16.4232 28.742 16.3714 28.822 16.2886 28.8359C16.2748 28.8359 16.261 28.8359 16.2472 28.8359L16.2438 28.8428Z" fill="#FF7A5D"/>
<path d="M15.2537 28.2483C15.2261 28.2483 15.1985 28.2344 15.1744 28.217C15.1088 28.1649 15.095 28.0675 15.1468 28.0015C15.1537 27.991 15.3606 27.7268 15.7539 27.5912C15.8332 27.5634 15.9195 27.6051 15.9471 27.6851C15.9747 27.765 15.9333 27.852 15.8539 27.8798C15.5504 27.9876 15.3882 28.1892 15.3882 28.1892C15.3537 28.2309 15.3055 28.2518 15.2537 28.2483Z" fill="#FF7A5D"/>
<path d="M3.27686 28.3981C3.27686 28.3981 4.60492 25.8114 8.88577 25.9991C8.88577 25.9991 8.50287 28.1687 6.38142 28.7458C4.28411 29.3195 3.27686 28.3981 3.27686 28.3981Z" fill="#EB4028"/>
<path d="M11.6594 32.685C10.3382 31.0301 8.44444 28.1026 8.4065 24.8622C8.4065 24.7927 8.4065 24.7197 8.4065 24.6501C8.4065 24.6501 8.46514 24.5736 8.56863 24.4381C9.18264 23.6141 11.1799 20.4467 12.5011 17.9399C14.4328 14.2684 16.882 9.65124 16.882 9.65124L14.8847 8.38916C14.8847 8.38916 5.88145 19.8487 4.07391 23.2455C2.90452 25.4498 4.54649 30.4946 6.91286 34.9832C8.59277 34.4199 10.2244 33.6933 11.6594 32.6815V32.685Z" fill="#FF9978"/>
<path d="M8.40285 24.8625C7.84058 24.7686 7.21277 24.6191 6.72294 24.3827C6.59531 24.3201 6.47457 24.2541 6.36764 24.1776C6.2676 24.108 6.24346 23.969 6.31245 23.8681C6.38144 23.7673 6.51942 23.743 6.61945 23.8125C7.09204 24.1428 7.88198 24.3305 8.56498 24.4383C8.46149 24.5774 8.40285 24.6504 8.40285 24.6504C8.40285 24.7199 8.40285 24.793 8.40285 24.8625Z" fill="#FF7A5D"/>
<path d="M16.2367 10.7224C16.2367 10.7224 18.2477 10.7954 18.8169 10.0444C19.3861 9.2934 19.5137 9.27602 20.1726 8.77884C20.8314 8.28165 20.9936 7.99656 20.8832 7.81229C20.5313 7.20732 19.5241 8.31295 19.0273 8.45549C18.5306 8.59804 18.6099 8.39987 18.6755 8.14606C18.741 7.89225 21.78 4.94741 21.6524 4.40503C21.5282 3.86265 19.3792 6.31379 18.948 6.47372C18.8721 6.50153 18.7755 6.28597 19.2929 5.56628C19.8104 4.84658 21.0384 3.35156 20.6831 3.02474C20.3278 2.69792 18.472 5.58018 18.0235 5.70882C17.7269 5.79227 19.6172 3.12904 19.1826 2.97954C18.7479 2.83004 17.2577 5.52455 16.9197 5.56628C16.5782 5.61147 17.7165 3.62275 17.3612 3.51497C16.7817 3.34113 15.9814 5.91743 15.4364 6.55021C14.8914 7.18646 14.1842 8.77188 14.0635 9.42552C14.7741 10.4095 15.0811 10.3643 16.2332 10.7154L16.2367 10.7224Z" fill="#FF9978"/>
<path d="M13.653 33.9018C13.653 33.9018 11.297 31.8609 10.2621 29.6462C9.22727 27.4315 8.88577 25.9991 8.88577 25.9991C8.88577 25.9991 7.2024 28.9404 3.27686 28.398C3.27686 28.398 4.97057 35.7758 9.64466 39.2978C9.64466 39.2978 13.5081 36.8049 13.653 33.9018Z" fill="#FF5B32"/>
<path d="M64.5269 19.7929C64.5269 19.7929 60.9325 22.3414 60.2012 26.7465C59.4699 31.1516 58.7627 31.3846 55.7375 32.3615C51.0772 33.867 57.0725 40.5842 49.1696 40.153C44.6301 39.9062 43.3848 46.3104 47.6381 48.2296C52.5295 50.4374 50.2217 51.4665 49.1593 54.5783C48.0968 57.69 53.6644 61.8378 56.7034 57.6587C59.7424 53.4831 61.7604 53.8134 64.1957 56.8938C66.6311 59.9743 68.4007 55.896 69.8426 51.922C71.2845 47.948 72.5677 46.2861 76.407 47.6525C80.2463 49.0189 81.5537 46.1818 80.7982 43.3586C80.0428 40.539 74.8375 37.163 76.6761 34.392C78.5906 31.5062 76.1448 23.7565 73.3542 20.5822C71.0948 18.0093 64.5303 19.7929 64.5303 19.7929H64.5269Z" fill="#142239"/>
<path d="M79.9917 69.9632C79.9917 69.9632 87.6669 73.6938 97.905 85.8556C98.5673 86.6449 98.7778 87.7331 98.4225 88.7031C97.8153 90.3616 95.9698 92.9692 90.6714 96.1261C80.4091 102.245 70.0571 105.437 70.0571 105.437L68.0322 101.814C68.0322 101.814 75.5073 96.3312 78.2428 94.2938C80.9783 92.2599 84.9348 89.176 87.4944 89.3255C87.4944 89.3255 72.9409 81.2176 71.0161 72.4595C70.2675 69.0592 79.9882 69.9597 79.9882 69.9597L79.9917 69.9632Z" fill="#18285D"/>
<path d="M70.3882 104.874L66.5455 107.301L65.5762 103.57L68.8601 101.849L70.3882 104.874Z" fill="#FF9978"/>
<path d="M66.4936 106.062C66.4936 106.062 67.7044 106.577 67.8113 107.199C67.9148 107.822 65.3449 113.454 65.4277 115.144C65.514 116.834 63.8444 117.087 63.6788 116.413C63.2062 114.466 60.6777 103.73 60.6777 103.73C60.6777 103.73 64.3101 102.467 65.5485 102.596C66.7868 102.728 65.9175 104.866 66.4936 106.062Z" fill="#00CAD1"/>
<path d="M64.5342 109.31C64.5031 109.258 64.4928 109.192 64.51 109.129C64.5445 109.004 64.6721 108.934 64.7963 108.969C64.8377 108.98 65.807 109.265 66.3003 109.845C66.9592 110.621 66.628 111.431 66.6142 111.465C66.5659 111.584 66.4279 111.639 66.3107 111.591C66.1934 111.542 66.1382 111.403 66.1865 111.285C66.1968 111.264 66.4142 110.701 65.945 110.148C65.5414 109.675 64.6756 109.418 64.6652 109.418C64.6066 109.4 64.5583 109.362 64.5307 109.313L64.5342 109.31Z" fill="white"/>
<path d="M65 108.479C64.9689 108.427 64.9586 108.361 64.9758 108.298C65.0103 108.173 65.138 108.103 65.2621 108.138C65.3035 108.149 66.2729 108.434 66.7661 109.014C67.425 109.79 67.0938 110.6 67.08 110.634C67.0318 110.753 66.8938 110.808 66.7765 110.76C66.6592 110.711 66.604 110.572 66.6523 110.454C66.6627 110.433 66.88 109.87 66.4108 109.317C66.0072 108.84 65.1414 108.587 65.1311 108.587C65.0724 108.569 65.0241 108.531 64.9965 108.479H65Z" fill="white"/>
<path d="M64.2412 110.349C64.2101 110.297 64.1998 110.231 64.217 110.169C64.2515 110.043 64.3792 109.974 64.5034 110.009C64.5448 110.019 65.5141 110.304 66.0073 110.885C66.6662 111.66 66.335 112.47 66.3213 112.505C66.273 112.623 66.135 112.679 66.0177 112.63C65.9004 112.581 65.8452 112.442 65.8935 112.324C65.9039 112.303 66.1212 111.74 65.652 111.187C65.2485 110.711 64.3826 110.457 64.3723 110.457C64.3136 110.44 64.2653 110.402 64.2377 110.353L64.2412 110.349Z" fill="white"/>
<path d="M68.5805 100.785C67.5767 101.091 67.2352 101.341 66.6902 101.942C66.6902 101.942 67.4146 104.164 69.0531 106.549L71.0262 105.395C71.0262 105.395 70.1845 103.674 68.5805 100.785Z" fill="#586199"/>
<path d="M78.4492 59.7901L78.6148 60.6662C78.6148 60.6662 79.3599 60.402 79.4461 59.8526L78.4492 59.7901Z" fill="#5E22CA"/>
<path d="M79.9187 67.5885C73.682 70.0501 62.8884 68.489 62.8884 68.489C63.668 67.1713 64.1785 65.3529 64.4994 63.7779C64.8684 61.9665 64.9926 60.4854 64.9926 60.4854L78.1663 58.2846L78.5354 60.249L79.9187 67.585V67.5885Z" fill="#FF9978"/>
<path d="M78.5353 60.2525C77.0796 60.4298 68.6766 61.518 64.4993 63.7814C64.8684 61.97 64.9926 60.4889 64.9926 60.4889L78.1662 58.2881L78.5353 60.2525Z" fill="#FF7A5D"/>
<path d="M79.4461 59.8526C79.2598 57.77 78.6217 52.2836 78.5734 49.6587C78.501 45.7716 79.7324 45.2814 76.8314 41.0918C74.5927 37.8584 75.8552 36.1304 75.6379 34.8162C75.4205 33.502 69.4977 35.3134 69.4977 35.3134L64.9858 36.4051C64.9858 36.4051 61.1395 37.3786 58.8284 39.0683C58.8284 39.0683 60.3324 43.0249 60.46 44.9963C60.5876 46.9676 60.2737 49.1823 62.2779 52.1272C63.9543 54.5888 64.0406 59.7414 63.9647 62.2933C69.3114 60.1655 73.6233 59.4319 79.4427 59.8596L79.4461 59.8526Z" fill="#834BEA"/>
<path d="M63.9646 62.2864C63.9646 62.2864 64.1578 62.6549 64.6959 62.721L64.8166 61.9561C64.8166 61.9561 64.2026 62.1125 63.9646 62.2864Z" fill="#5E22CA"/>
<path d="M68.7146 41.4047C66.0585 41.5716 63.6266 40.5599 63.4989 40.5043C63.3955 40.4591 63.3472 40.3409 63.3886 40.2365C63.4334 40.1322 63.5507 40.0836 63.6542 40.1253C63.6921 40.1392 67.3521 41.662 70.4704 40.6711C70.5774 40.6364 70.6912 40.6955 70.7257 40.8067C70.7602 40.9145 70.7015 41.0293 70.5912 41.064C69.9702 41.2622 69.3321 41.3665 68.7077 41.4047H68.7146Z" fill="#5E22CA"/>
<path d="M68.7595 40.2296C67.6384 40.2991 66.6932 40.0627 66.6346 40.0453C66.5242 40.0175 66.4587 39.9062 66.4863 39.795C66.5139 39.6837 66.6243 39.6177 66.7346 39.6455C66.7553 39.6524 68.8181 40.1705 70.3704 39.423C70.4705 39.3743 70.5946 39.416 70.6429 39.5203C70.6912 39.6211 70.6498 39.7463 70.5464 39.795C69.9703 40.0731 69.3425 40.1913 68.7595 40.2296Z" fill="#5E22CA"/>
<path d="M66.9693 52.3914C66.8624 52.3914 66.7727 52.3115 66.7623 52.2037C66.752 52.0889 66.8348 51.9916 66.9486 51.9812C66.9969 51.9777 71.8745 51.5361 75.3309 49.8881C75.4344 49.8395 75.5552 49.8847 75.6035 49.9855C75.6517 50.0898 75.6069 50.2115 75.5069 50.2602C71.9849 51.9394 67.0349 52.3845 66.9866 52.3914C66.9831 52.3914 66.9762 52.3914 66.9728 52.3914H66.9693Z" fill="#5E22CA"/>
<path d="M73.5096 63.7816C73.5096 64.3692 73.3923 64.8455 73.2509 64.8455C73.1095 64.8455 72.9922 64.3692 72.9922 63.7816C72.9922 63.194 73.1095 62.7177 73.2509 62.7177C73.3923 62.7177 73.5096 63.194 73.5096 63.7816Z" fill="#FF7A5D"/>
<path d="M76.9592 41.3597C81.4435 37.4935 87.1628 28.7841 85.8451 25.1648C84.5274 21.5454 77.1972 8.93159 77.1972 8.93159L75.0447 9.90162C75.0447 9.90162 77.1972 14.8039 78.2389 18.7223C78.9668 21.4654 80.7398 24.8066 81.2331 25.7106C81.3159 25.8636 81.3642 25.9436 81.3642 25.9436C81.3538 26.0131 81.3435 26.0826 81.3331 26.1522C80.5811 31.0823 75.5828 34.6668 75.5828 34.6668C74.4617 39.7152 76.9592 41.3562 76.9592 41.3562V41.3597Z" fill="#FF9978"/>
<path d="M81.3332 26.1591C81.9023 26.1452 82.5439 26.0861 83.0648 25.9192C83.1993 25.8775 83.327 25.8253 83.4443 25.7662C83.5546 25.7106 83.596 25.5785 83.5443 25.4672C83.4926 25.356 83.3546 25.3143 83.2476 25.3699C82.7337 25.6306 81.9265 25.7037 81.2366 25.7141C81.3194 25.8671 81.3677 25.947 81.3677 25.947C81.3573 26.0166 81.347 26.0861 81.3366 26.1556L81.3332 26.1591Z" fill="#FF7A5D"/>
<path d="M75.531 11.0559C75.531 11.0559 73.5303 10.8473 73.0715 10.0233C72.6127 9.1993 72.4885 9.16453 71.9056 8.58043C71.3226 7.99633 71.2019 7.69037 71.3364 7.52C71.7676 6.97067 72.6127 8.20841 73.0853 8.41702C73.5579 8.62563 73.5062 8.42049 73.4751 8.15973C73.4441 7.89898 70.8431 4.55777 71.0432 4.03973C71.2433 3.52169 73.0301 6.2475 73.4337 6.47001C73.5062 6.50826 73.6303 6.3066 73.2164 5.52085C72.8025 4.73509 71.7952 3.08361 72.1919 2.80895C72.5886 2.53428 74.027 5.64949 74.4548 5.84071C74.7376 5.96588 73.2336 3.06275 73.6855 2.97583C74.1374 2.88891 75.2378 5.76422 75.569 5.8581C75.9001 5.94849 75.0481 3.82069 75.4137 3.76506C76.0105 3.67467 76.4486 6.33789 76.897 7.04368C77.3489 7.74947 77.8319 9.42181 77.8594 10.0824C77.0178 10.9586 76.7211 10.8682 75.531 11.0559Z" fill="#FF9978"/>
<path d="M75.7036 13.013C75.8933 13.1416 76.1554 13.1798 76.3831 13.1798C76.3245 13.0234 76.2658 12.8704 76.2072 12.7244C76.1037 12.7105 76.014 12.6861 75.9519 12.6444C75.9071 12.6166 75.8864 12.5818 75.876 12.5332C75.8726 12.5123 75.8933 12.4219 76.0244 12.2654C76.0347 12.255 76.0451 12.2411 76.0554 12.2272C76.5487 11.6744 77.7767 10.9825 78.3562 11.0277C78.37 11.0277 78.3873 11.0277 78.4011 11.0347C78.4873 11.0451 78.5805 11.0729 78.6149 11.1355C78.646 11.1946 78.6356 11.2919 78.6046 11.3893C78.6943 11.5457 78.784 11.7057 78.8771 11.8691C78.9461 11.7474 79.1841 11.2885 79.0082 10.9338C78.9358 10.7913 78.7702 10.614 78.3873 10.5827C78.3148 10.5757 78.2321 10.5827 78.1458 10.5896C77.4421 10.6731 76.3935 11.2641 75.8346 11.81C75.7932 11.8517 75.7553 11.8934 75.7174 11.9317C75.4897 12.189 75.3966 12.4115 75.4345 12.6131C75.4655 12.7765 75.5552 12.9156 75.6967 13.0095L75.7036 13.013Z" fill="#00CAD1"/>
<path d="M60.4977 45.9071C55.2199 43.2474 46.91 35.668 47.324 31.8331C47.7379 28.0016 51.8325 13.9797 51.8325 13.9797L54.154 14.4004C54.154 14.4004 53.2399 19.6817 53.1675 23.7391C53.1157 26.5796 52.1947 30.2511 51.9325 31.249C51.8877 31.4158 51.8635 31.5062 51.8635 31.5062C51.8877 31.5723 51.9153 31.6384 51.9429 31.7009C53.8539 36.3042 59.5594 38.5641 59.5594 38.5641C61.8568 43.1917 60.5011 45.9071 60.5011 45.9071H60.4977Z" fill="#FF9978"/>
<path d="M51.9396 31.7009C51.3843 31.8261 50.7461 31.9234 50.2011 31.8886C50.0596 31.8782 49.9217 31.8608 49.7975 31.833C49.6802 31.8052 49.6043 31.687 49.6319 31.5688C49.6595 31.4506 49.7768 31.3741 49.8975 31.4019C50.4563 31.5305 51.2601 31.4054 51.9327 31.2489C51.8879 31.4158 51.8637 31.5062 51.8637 31.5062C51.8879 31.5723 51.9155 31.6383 51.9431 31.7009H51.9396Z" fill="#FF7A5D"/>
<path d="M53.9541 15.6346C53.9541 15.6346 55.8445 14.9462 56.0963 14.0353C56.3446 13.1244 56.4585 13.0618 56.8828 12.3525C57.3071 11.6433 57.3519 11.3165 57.1829 11.1878C56.6344 10.7602 56.1066 12.1648 55.6996 12.4847C55.2925 12.801 55.2925 12.5924 55.258 12.3317C55.227 12.0709 56.9483 8.19429 56.631 7.74231C56.3136 7.28685 55.2305 10.3673 54.8924 10.6802C54.8303 10.7358 54.6613 10.5689 54.8752 9.7067C55.089 8.84445 55.672 6.99479 55.2236 6.82443C54.7751 6.65407 54.1197 10.0266 53.7541 10.3151C53.5126 10.5064 54.2749 7.32161 53.8161 7.34943C53.3574 7.37724 52.9779 10.4333 52.6778 10.6037C52.3777 10.7741 52.6951 8.50025 52.326 8.53501C51.7257 8.59064 51.9396 11.2817 51.6705 12.0779C51.4015 12.8741 51.3325 14.6125 51.4636 15.2626C52.4881 15.9093 52.7571 15.7494 53.9541 15.6416V15.6346Z" fill="#FF9978"/>
<path d="M54.2583 17.5781C54.1031 17.7484 53.8616 17.8493 53.6408 17.9049C53.6615 17.738 53.6822 17.5781 53.7029 17.4181C53.7995 17.3799 53.8823 17.3347 53.9306 17.2791C53.9651 17.2408 53.9789 17.2026 53.9754 17.1539C53.9754 17.133 53.9306 17.0496 53.7684 16.9314C53.7546 16.921 53.7409 16.914 53.7271 16.9036C53.1165 16.4898 51.7574 16.1143 51.2055 16.2986C51.1917 16.3021 51.1779 16.309 51.1606 16.316C51.0778 16.3473 50.995 16.396 50.9778 16.4655C50.964 16.5316 50.995 16.622 51.0468 16.7124C50.9985 16.8827 50.9467 17.0635 50.895 17.2443C50.7984 17.1435 50.4569 16.7541 50.5466 16.3682C50.5811 16.2117 50.7018 15.9996 51.064 15.8779C51.133 15.8536 51.2124 15.8362 51.2986 15.8258C51.9989 15.7354 53.1613 16.0518 53.834 16.4481C53.8857 16.4759 53.9306 16.5072 53.9789 16.5385C54.2617 16.7332 54.4066 16.9279 54.417 17.1296C54.4273 17.2965 54.3721 17.4529 54.2583 17.5781Z" fill="#FF5B32"/>
<path d="M73.0504 28.1205C73.0504 28.1205 74.1474 26.9036 74.7717 28.0544C75.3961 29.2087 74.0715 32.31 72.3674 31.3609L73.0504 28.1205Z" fill="#FF7A5D"/>
<path d="M72.9504 31.3365C72.9332 31.5312 73.0746 31.7051 73.2678 31.7259C73.4609 31.7433 73.6334 31.6008 73.6541 31.4061C73.6713 31.2114 73.5299 31.0375 73.3367 31.0167C73.1436 30.9993 72.9711 31.1418 72.9504 31.3365Z" fill="white"/>
<path d="M72.847 30.4082C72.9125 30.4152 72.9781 30.3769 73.0022 30.3109C73.3713 29.3478 74.4234 29.0453 74.4338 29.0419C74.5131 29.021 74.5614 28.9375 74.5373 28.8541C74.5166 28.7741 74.4338 28.7255 74.351 28.7463C74.3027 28.7602 73.1402 29.0905 72.7194 30.1996C72.6883 30.2796 72.7297 30.3665 72.8056 30.3943C72.8194 30.3978 72.8332 30.4013 72.847 30.4048V30.4082Z" fill="#EF4B47"/>
<path d="M73.9198 30.0084C73.9474 30.0084 73.975 30.0084 74.0026 29.991C74.075 29.9528 74.106 29.8624 74.0681 29.7859C74.0612 29.772 73.9094 29.4799 73.5472 29.2748C73.4748 29.2331 73.3817 29.2574 73.3403 29.3339C73.2989 29.4069 73.323 29.5008 73.3954 29.5425C73.6749 29.7024 73.7956 29.9284 73.7956 29.9284C73.8197 29.9771 73.8646 30.0049 73.9163 30.0084H73.9198Z" fill="#EF4B47"/>
<path d="M63.5711 27.1572C63.5711 27.1572 62.7191 25.7525 61.8912 26.7678C61.0633 27.783 61.7911 31.079 63.6366 30.4671L63.5676 27.1537L63.5711 27.1572Z" fill="#FF7A5D"/>
<path d="M63.3474 29.4414C63.2818 29.4345 63.2266 29.3858 63.2128 29.3163C63.03 28.301 62.0538 27.8039 62.0434 27.8004C61.9675 27.7621 61.9365 27.6717 61.9744 27.5987C62.0124 27.5222 62.1021 27.4909 62.1745 27.5292C62.2194 27.5535 63.2991 28.0959 63.5095 29.2641C63.5233 29.3476 63.4715 29.424 63.3887 29.4414C63.3749 29.4414 63.3612 29.4414 63.3474 29.4414Z" fill="#EF4B47"/>
<path d="M62.3675 28.8469C62.3399 28.8469 62.3124 28.833 62.2882 28.8156C62.2227 28.7635 62.2123 28.6696 62.2641 28.6035C62.271 28.5931 62.4779 28.3324 62.8712 28.2002C62.9505 28.1724 63.0367 28.2176 63.0609 28.2941C63.085 28.3706 63.0436 28.461 62.9678 28.4853C62.6642 28.5896 62.5021 28.7878 62.5021 28.7878C62.4676 28.8295 62.4193 28.8504 62.371 28.8434L62.3675 28.8469Z" fill="#EF4B47"/>
<path d="M65.6338 33.398L65.3372 36.5793C65.3372 36.5793 65.6545 37.8831 67.6828 37.9596C68.966 38.0048 69.9664 36.8887 69.9664 36.8887L70.232 34.0586L65.6338 33.3946V33.398Z" fill="#FF9978"/>
<path d="M65.6343 33.398L65.5032 34.8096C66.269 35.8457 67.7523 36.329 70.0324 36.2108L70.2359 34.0621L65.6377 33.398H65.6343Z" fill="#FF7A5D"/>
<path d="M63.071 24.9077C63.0123 26.1489 62.9847 27.7065 63.102 28.9686C63.1331 29.2815 63.171 29.5805 63.2193 29.8447C63.6643 32.2542 64.9165 36.2907 69.7596 35.2025C70.377 35.0634 72.671 32.3376 73.316 30.029C73.7541 28.4645 73.9818 26.7504 74.0715 25.5996C74.1577 24.4209 73.9714 23.4996 73.009 22.8216C70.4081 20.9893 67.4553 21.2988 65.4787 21.8585C64.1058 22.2445 63.1365 23.4752 63.071 24.9077Z" fill="#FF9978"/>
<path d="M70.6289 28.016C70.5978 28.3567 70.7461 28.6487 70.96 28.6696C71.1739 28.6905 71.374 28.4297 71.405 28.0924C71.436 27.7517 71.2877 27.4597 71.0738 27.4388C70.86 27.4179 70.6599 27.6787 70.6289 28.016Z" fill="#142239"/>
<path d="M65.8378 27.5603C65.8068 27.9011 65.9551 28.1931 66.169 28.214C66.3829 28.2348 66.5829 27.9741 66.614 27.6368C66.645 27.2961 66.4967 27.004 66.2828 26.9832C66.069 26.9623 65.8689 27.2231 65.8378 27.5603Z" fill="#142239"/>
<path d="M71.9569 26.2949C71.643 26.1732 71.0083 25.9542 70.3218 25.8847C70.1425 25.8673 69.9872 26.0168 70.0045 26.1976C70.0148 26.3471 70.1356 26.4618 70.2804 26.4688C70.7496 26.4896 71.9707 26.6739 72.5261 26.966C72.5468 26.8651 72.4985 26.7504 72.4226 26.6426C72.3088 26.4827 72.1432 26.3645 71.9604 26.2949H71.9569Z" fill="#142239"/>
<path d="M65.6857 25.7108C66.0168 25.6482 66.6826 25.5544 67.369 25.6169C67.5484 25.6343 67.6726 25.8082 67.6243 25.9855C67.5863 26.1315 67.4484 26.2184 67.3069 26.201C66.8412 26.135 65.6098 26.0828 65.0061 26.2636C65.0061 26.1593 65.0751 26.055 65.1682 25.9646C65.3097 25.829 65.4959 25.7456 65.6891 25.7108H65.6857Z" fill="#142239"/>
<path d="M68.2661 30.6234C68.38 30.6338 68.4972 30.6234 68.6007 30.5747C68.6939 30.5295 68.8112 30.4322 68.8525 30.2271C68.9629 29.6777 68.9836 27.9219 68.9836 27.8454C68.9836 27.762 68.9181 27.6925 68.8353 27.6925C68.7525 27.6925 68.6835 27.7585 68.6835 27.842C68.6835 27.8594 68.6594 29.6429 68.5559 30.1679C68.5386 30.2583 68.4972 30.2862 68.4696 30.3001C68.3213 30.3731 68.004 30.2549 67.8729 30.1853C67.8004 30.1471 67.7073 30.1749 67.6694 30.2479C67.6314 30.3209 67.659 30.4148 67.7315 30.453C67.7694 30.4739 68.0109 30.5956 68.2627 30.6199L68.2661 30.6234Z" fill="#FF7A5D"/>
<path d="M70.0805 31.7607C69.9149 32.3239 69.4354 33.3461 68.166 33.2279C66.8931 33.1062 66.6275 32.1049 66.5654 31.4269L70.077 31.7607H70.0805Z" fill="white"/>
<path d="M68.1042 34.1106C68.4698 34.1454 68.8113 33.9785 68.8286 33.9715C68.9045 33.9333 68.9321 33.8429 68.8976 33.7664C68.8596 33.6899 68.77 33.6621 68.6975 33.6969C68.6975 33.6969 68.4147 33.8325 68.1352 33.8081C67.8317 33.7803 67.5764 33.5926 67.573 33.5891C67.5074 33.5404 67.4108 33.5543 67.3626 33.6204C67.3143 33.6864 67.3281 33.7838 67.3936 33.8325C67.4074 33.8429 67.7178 34.0724 68.1042 34.1071V34.1106Z" fill="#FF7A5D"/>
<path d="M62.4915 24.6017C62.526 24.7443 62.6536 24.8451 62.8261 24.9146C62.7812 25.2484 62.7778 25.6517 62.7743 26.0376C62.7537 28.2419 63.2642 28.6765 63.4401 28.1481C63.5539 27.7969 63.7437 25.7386 63.7678 25.0641C64.199 25.0781 64.5715 25.0398 64.5715 25.0398L65.2718 22.9676L65.2511 25.0781C65.9789 25.4153 67.7796 25.158 67.7796 25.158L68.5661 23.1241L68.742 25.1719C69.8217 25.836 71.2705 25.5996 71.2705 25.5996L71.7983 23.4613L72.3467 25.7039C72.3467 25.7039 74.6786 26.806 74.7856 25.9368C74.8476 25.4292 74.6131 23.9655 74.4061 22.8286C74.1784 21.5874 73.4885 20.4922 72.4778 19.8142C69.6354 17.9089 66.417 18.7503 65.2683 19.2996C62.8364 20.4643 62.488 24.6052 62.488 24.6052L62.4915 24.6017Z" fill="#142239"/>
<path d="M62.519 30.4358C62.5018 30.6305 62.6432 30.8043 62.8364 30.8252C63.0295 30.8426 63.202 30.7 63.2227 30.5053C63.2399 30.3106 63.0985 30.1368 62.9053 30.1159C62.7122 30.0986 62.5397 30.2411 62.519 30.4358Z" fill="white"/>
<path d="M72.723 70.721C72.723 70.721 77.335 76.7984 84.9619 90.7751C85.4551 91.6826 85.4482 92.7917 84.9067 93.6678C83.9822 95.1733 81.6572 97.3567 75.8413 99.3837C64.5718 103.316 53.7989 104.362 53.7989 104.362L52.533 100.402C52.533 100.402 60.8842 95.7504 63.9681 94.3075C67.052 92.8647 73.0507 91.5956 75.5343 92.2562C75.5343 92.2562 60.9498 83.519 62.2709 71.7675C62.6297 68.5827 72.723 70.714 72.723 70.714V70.721Z" fill="#3B3E7D"/>
<path d="M81.5231 70.8425C81.5231 70.8425 76.7869 74.1073 72.3336 72.4558C69.2601 71.3154 66.19 72.0803 64.2479 72.8556C64.0996 72.9147 63.9582 72.9738 63.8202 73.0329C62.8129 73.471 62.2024 73.8708 62.2024 73.8708C62.2024 73.8708 61.5332 69.869 64.1307 65.3527C64.1307 65.3527 64.4101 65.3909 64.893 65.4431C65.0241 65.457 65.1724 65.4709 65.3345 65.4848C68.2287 65.756 75.6003 66.1593 79.2016 63.7812C79.2016 63.7812 80.2192 67.6926 81.5197 70.8425H81.5231Z" fill="#3B3E7D"/>
<path d="M77.2799 93.0767C77.1729 93.2819 76.9625 93.4036 76.7314 93.4001C74.9273 93.3688 70.2808 93.4383 66.1414 94.843C60.9464 96.6022 53.0367 101.522 52.9573 101.571C52.9228 101.595 52.8849 101.605 52.8435 101.605C52.771 101.605 52.7021 101.567 52.6607 101.501C52.5986 101.4 52.6296 101.265 52.7297 101.202C52.809 101.153 60.7567 96.2093 65.9999 94.4327C70.2014 93.0072 74.9066 92.9342 76.7348 92.9655C76.828 92.9724 76.8763 92.8994 76.8935 92.8716C76.9073 92.8438 76.9384 92.7673 76.8832 92.6873C76.3795 91.9676 75.3619 90.7299 73.3819 88.9394L73.137 88.7168C70.4705 86.3109 64.4546 80.8836 63.8164 73.033C63.6267 70.7105 63.9095 68.1725 64.8892 65.4397C65.0203 65.4536 65.1686 65.4675 65.3307 65.4814C64.3683 68.1307 64.0786 70.5923 64.2441 72.8522C64.8168 80.6229 70.7879 86.0119 73.4267 88.39L73.6717 88.6125C75.6793 90.4309 76.7176 91.693 77.235 92.4335C77.3661 92.6248 77.3833 92.8681 77.2764 93.0698L77.2799 93.0767Z" fill="#18285D"/>
<path d="M54.2336 103.876L49.9873 105.483L49.7769 101.634L53.3333 100.605L54.2336 103.876Z" fill="#FF9978"/>
<path d="M50.1839 104.262C50.1839 104.262 51.2705 105.013 51.2498 105.642C51.2291 106.271 47.5933 111.275 47.3415 112.947C47.0897 114.619 45.4063 114.532 45.3787 113.837C45.2994 111.834 44.9475 100.802 44.9475 100.802C44.9475 100.802 48.7558 100.295 49.9424 100.67C51.129 101.046 49.8527 102.968 50.1804 104.258L50.1839 104.262Z" fill="#00CAD1"/>
<path d="M47.6173 107.047C47.5966 106.988 47.6 106.922 47.6311 106.863C47.6897 106.748 47.8277 106.703 47.9415 106.762C47.9795 106.783 48.8729 107.255 49.242 107.923C49.7318 108.813 49.2524 109.543 49.2317 109.574C49.1592 109.682 49.0143 109.707 48.9109 109.634C48.8039 109.561 48.7798 109.415 48.8522 109.31C48.866 109.289 49.1903 108.782 48.8419 108.149C48.5418 107.603 47.7415 107.179 47.7346 107.175C47.6794 107.148 47.6414 107.099 47.6242 107.043L47.6173 107.047Z" fill="white"/>
<path d="M48.2418 106.327C48.2211 106.268 48.2246 106.202 48.2556 106.143C48.3142 106.028 48.4522 105.983 48.5661 106.042C48.604 106.063 49.4974 106.536 49.8665 107.203C50.3564 108.093 49.8769 108.823 49.8562 108.851C49.7837 108.959 49.6389 108.983 49.5354 108.91C49.4284 108.837 49.4043 108.691 49.4767 108.587C49.4905 108.566 49.8148 108.059 49.4664 107.426C49.1663 106.876 48.366 106.456 48.3591 106.452C48.3039 106.424 48.266 106.376 48.2453 106.32L48.2418 106.327Z" fill="white"/>
<path d="M47.1275 108.01C47.1068 107.951 47.1103 107.885 47.1413 107.826C47.2 107.711 47.338 107.666 47.4518 107.725C47.4897 107.746 48.3832 108.218 48.7523 108.886C49.2421 109.776 48.7626 110.506 48.7419 110.537C48.6695 110.645 48.5246 110.67 48.4211 110.597C48.3176 110.524 48.29 110.378 48.3625 110.273C48.3763 110.252 48.7005 109.745 48.3521 109.112C48.052 108.563 47.2517 108.142 47.2448 108.139C47.1896 108.111 47.1517 108.062 47.131 108.006L47.1275 108.01Z" fill="white"/>
<path d="M53.2712 99.5088C52.226 99.6062 51.8432 99.7835 51.1877 100.263C51.1877 100.263 51.4603 102.586 52.5882 105.252L54.7511 104.519C54.7511 104.519 54.2682 102.662 53.2678 99.5088H53.2712Z" fill="#586199"/>
<path d="M134.49 73.7011C134.241 75.1336 134.49 76.3435 129.574 74.7998C124.658 73.2561 114.13 78.0714 112.978 74.7581C111.826 71.4447 114.548 65.2003 114.548 58.4623C114.548 58.2815 114.548 58.1042 114.541 57.9269C114.527 57.5271 114.503 57.1377 114.462 56.7552C114.427 56.3901 114.379 56.0355 114.32 55.6844C114.258 55.3019 114.179 54.9264 114.093 54.5579C114.006 54.1859 113.906 53.8243 113.799 53.4696C113.689 53.1011 113.565 52.7395 113.434 52.3849C112.299 49.2905 110.508 46.6899 109.129 44.0962C106.935 39.9762 109.215 38.4533 110.781 38.4812C112.378 38.509 115.234 37.7893 115.234 37.7893C118.508 38.735 119.881 37.014 119.881 37.014C127.025 34.0448 128.353 36.6976 129.664 39.6911C130.467 41.5268 131.633 46.0258 132.458 49.899C132.537 50.2779 132.616 50.6465 132.689 51.0115C132.765 51.3975 132.841 51.773 132.91 52.1311C132.982 52.5239 133.051 52.8994 133.113 53.2541C133.179 53.64 133.237 54.0051 133.286 54.3354C133.299 54.4223 133.31 54.5057 133.32 54.5892C133.355 54.8464 133.393 55.142 133.434 55.4723C133.993 59.9782 135.007 70.7319 134.486 73.7046L134.49 73.7011Z" fill="#00CAD1"/>
<path d="M132.689 51.0114C130.081 51.8458 126.525 52.2734 122.375 52.2491C122.32 52.2491 122.264 52.2491 122.209 52.2491C118.956 52.2491 116.086 52.7984 113.799 53.4694C113.689 53.1009 113.565 52.7393 113.434 52.3847C115.848 51.6754 118.894 51.0983 122.385 51.1191C126.473 51.1435 129.957 50.7228 132.461 49.8988C132.54 50.2778 132.62 50.6463 132.692 51.0114H132.689Z" fill="#00AAC3"/>
<path d="M133.113 53.2539C130.502 54.0987 126.928 54.5299 122.754 54.5055H122.585C119.401 54.5055 116.583 55.034 114.32 55.6876C114.258 55.3052 114.179 54.9297 114.093 54.5611C116.462 53.8901 119.405 53.3547 122.761 53.3756C126.89 53.3999 130.402 52.9688 132.91 52.1309C132.982 52.5237 133.051 52.8992 133.113 53.2539Z" fill="#00AAC3"/>
<path d="M133.438 55.4721C130.857 56.2544 127.398 56.6507 123.379 56.6299H123.21C119.833 56.6299 116.87 57.2244 114.538 57.9302C114.524 57.5303 114.5 57.1409 114.458 56.7585C116.87 56.0527 119.905 55.479 123.382 55.4999C127.377 55.5242 130.795 55.1209 133.283 54.3352C133.296 54.4221 133.307 54.5055 133.317 54.589C133.351 54.8463 133.389 55.1418 133.431 55.4721H133.438Z" fill="#00AAC3"/>
<path d="M120.974 41.9438C117.114 42.7991 114.034 40.3931 113.899 40.2888C113.81 40.2193 113.796 40.0907 113.865 40.0003C113.934 39.9099 114.062 39.8959 114.151 39.9655C114.182 39.9898 117.352 42.4618 121.137 41.4814C121.247 41.4536 121.357 41.5196 121.385 41.6309C121.412 41.7421 121.347 41.8534 121.237 41.8812C121.147 41.9055 121.061 41.9264 120.971 41.9438H120.974Z" fill="#00AAC3"/>
<path d="M119.174 43.5399C119.174 43.5399 119.17 43.5399 119.167 43.5399C117.18 43.9224 115.407 42.7472 115.334 42.6951C115.241 42.6325 115.217 42.5038 115.279 42.41C115.341 42.3161 115.469 42.2917 115.562 42.3543C115.586 42.3717 117.277 43.4843 119.091 43.1366C119.201 43.1158 119.308 43.1888 119.329 43.3C119.35 43.4113 119.281 43.5156 119.174 43.5399Z" fill="#00AAC3"/>
<path d="M128.887 63.0271C128.866 63.0306 128.842 63.034 128.818 63.0271C124.858 62.5438 117.631 65.0541 117.559 65.0819C117.452 65.1201 117.335 65.061 117.3 64.9567C117.262 64.8489 117.321 64.7307 117.424 64.696C117.724 64.5917 124.813 62.1266 128.866 62.6238C128.977 62.6377 129.056 62.7385 129.046 62.8533C129.035 62.9437 128.97 63.0097 128.887 63.0306V63.0271Z" fill="#00AAC3"/>
<path d="M129.226 61.4385C127.083 60.8683 123.944 61.0351 121.471 61.3168C121.361 61.3307 121.278 61.428 121.288 61.5428C121.299 61.661 121.402 61.7444 121.519 61.734C123.972 61.4558 127.073 61.289 129.132 61.8383C129.157 61.8452 129.177 61.8452 129.201 61.8452C129.295 61.8383 129.374 61.7688 129.388 61.6679C129.401 61.5636 129.329 61.4663 129.229 61.4385H129.226Z" fill="#00AAC3"/>
<path d="M108.805 28.0403C108.805 28.0403 106.297 27.9638 105.969 26.1211C105.69 24.5531 107.652 25.0016 107.138 23.8717C106.624 22.7417 105.966 21.7717 107.301 21.0242C108.47 20.3705 108.777 21.278 110.002 19.4318C111.45 17.2518 114.072 20.4018 115.835 19.9603C118.436 19.3101 119.239 20.746 119.874 21.8968C120.509 23.0477 119.729 24.8869 119.729 24.8869L108.805 28.0369V28.0403Z" fill="#142239"/>
<path d="M109.991 30.5089C109.991 30.5089 108.646 29.5354 108.27 30.8148C107.894 32.0908 109.864 34.8862 111.35 33.5789L109.991 30.5124V30.5089Z" fill="#FF7A5D"/>
<path d="M110.674 32.734C110.612 32.7548 110.54 32.7305 110.502 32.6714C109.933 31.7953 108.826 31.7188 108.815 31.7188C108.732 31.7153 108.667 31.6423 108.67 31.5554C108.674 31.4719 108.746 31.4058 108.832 31.4093C108.884 31.4093 110.105 31.4928 110.757 32.501C110.802 32.5706 110.785 32.6679 110.712 32.7131C110.702 32.7201 110.688 32.727 110.674 32.7305V32.734Z" fill="#EF4B47"/>
<path d="M109.526 32.5671C109.498 32.5741 109.47 32.5776 109.439 32.5671C109.357 32.5463 109.308 32.4594 109.332 32.3794C109.336 32.3655 109.426 32.0421 109.739 31.7605C109.802 31.7049 109.898 31.7084 109.957 31.7744C110.012 31.837 110.008 31.9344 109.943 31.9935C109.701 32.209 109.629 32.4594 109.626 32.4628C109.612 32.515 109.57 32.5532 109.526 32.5706V32.5671Z" fill="#EF4B47"/>
<path d="M119.757 27.4041C119.757 27.4041 120.305 25.8291 121.34 26.6601C122.375 27.491 122.351 30.9157 120.388 30.7071L119.757 27.4076V27.4041Z" fill="#FF7A5D"/>
<path d="M120.464 29.6223C120.526 29.6014 120.574 29.5423 120.571 29.4693C120.536 28.4228 121.402 27.7205 121.412 27.7135C121.478 27.6614 121.488 27.564 121.437 27.498C121.385 27.4319 121.288 27.418 121.223 27.4736C121.181 27.5049 120.226 28.2768 120.264 29.4798C120.264 29.5632 120.336 29.6327 120.422 29.6293C120.436 29.6293 120.45 29.6293 120.464 29.6223Z" fill="#EF4B47"/>
<path d="M121.309 28.8227C121.337 28.8157 121.361 28.7983 121.381 28.774C121.437 28.7079 121.426 28.6106 121.361 28.5584C121.35 28.548 121.092 28.3359 120.674 28.2872C120.592 28.2768 120.516 28.3394 120.505 28.4228C120.495 28.5063 120.557 28.5828 120.64 28.5932C120.961 28.6314 121.164 28.7948 121.168 28.7948C121.209 28.8296 121.264 28.84 121.312 28.8227H121.309Z" fill="#EF4B47"/>
<path d="M119.029 34.0378L119.995 37.1322C119.995 37.1322 119.574 38.9992 118.367 39.4999C117.163 40.0005 115.607 38.8845 115.607 38.8845L114.607 35.6823L119.026 34.0378H119.029Z" fill="#FF9978"/>
<path d="M119.029 34.0378L119.457 35.4112C118.915 36.6037 117.515 37.306 115.231 37.6745L114.607 35.6823L119.026 34.0378H119.029Z" fill="#FF7A5D"/>
<path d="M119.777 25.0642C120.098 26.2846 120.454 27.8248 120.602 29.0973C120.602 29.0973 120.602 29.1077 120.602 29.1147C120.636 29.4241 120.661 29.7231 120.671 29.9908C120.674 30.1508 120.678 30.3177 120.678 30.488C120.671 33.0191 120.026 36.8853 115.314 36.708C113.33 36.635 111.819 35.0739 110.716 33.2069C110.65 33.0956 110.588 32.9844 110.529 32.8766C110.488 32.807 110.45 32.7375 110.415 32.668L110.36 32.5671C110.35 32.5498 110.346 32.5393 110.34 32.5289C110.34 32.5254 110.34 32.5219 110.34 32.5219C109.577 31.0617 109.043 29.511 108.715 28.3846C108.38 27.2372 108.673 25.996 109.481 25.1198C111.671 22.7452 114.669 22.4218 116.745 22.5505C118.187 22.6374 119.412 23.6526 119.777 25.0607V25.0642Z" fill="#FF9978"/>
<path d="M120.602 29.0973L119.936 29.2572C119.936 29.2572 119.809 30.1508 119.526 31.1799C118.598 30.1403 116.231 31.8614 116.231 31.8614C116.08 31.9691 115.917 32.0526 115.745 32.1047C115.576 32.1569 115.4 32.1847 115.224 32.1847H115.21C115.21 32.1847 112.271 32.1882 112.144 33.6276C111.664 33.2312 111.226 32.7549 110.923 32.1986L110.34 32.5219C110.34 32.5219 110.34 32.5219 110.34 32.5289C110.343 32.5359 110.35 32.5498 110.36 32.5671L110.415 32.668C110.453 32.7375 110.491 32.807 110.529 32.8766C110.588 32.9844 110.65 33.0956 110.716 33.2069C111.819 35.0704 113.33 36.6315 115.314 36.708C120.026 36.8853 120.671 33.0191 120.678 30.488C120.633 29.8205 120.609 29.2225 120.605 29.1147C120.605 29.1112 120.605 29.1043 120.605 29.1008V29.0973H120.602ZM118.794 33.1408C118.649 33.4051 118.494 33.638 118.322 33.8153C117.349 34.8271 117.19 34.7714 116.735 34.9383C116.273 35.1122 115.576 35.1782 114.803 35.0148C114.562 34.9627 114.182 34.8375 113.751 34.6358C113.751 34.6358 112.761 33.1443 115.914 32.595C118.781 31.1069 118.75 32.8001 118.798 33.1373L118.794 33.1408Z" fill="#142239"/>
<path d="M117.335 28.3011C117.439 28.6314 117.352 28.9513 117.145 29.0173C116.938 29.0834 116.683 28.8678 116.58 28.5375C116.476 28.2072 116.562 27.8874 116.769 27.8213C116.976 27.7553 117.232 27.9708 117.335 28.3011Z" fill="#142239"/>
<path d="M112.754 29.7544C112.858 30.0847 112.771 30.4046 112.564 30.4706C112.357 30.5367 112.102 30.3211 111.999 29.9908C111.895 29.6605 111.981 29.3407 112.188 29.2746C112.395 29.2085 112.651 29.4241 112.754 29.7544Z" fill="#142239"/>
<path d="M117.891 25.9091C117.891 25.9091 116.138 25.7839 115.1 26.6879L115.431 27.3207C115.431 27.3207 117.145 26.6114 118.146 26.6914C118.146 26.4063 118.073 26.142 117.891 25.9091Z" fill="#142239"/>
<path d="M110.481 28.2666C110.481 28.2666 111.854 27.1436 113.23 27.2862L113.32 28.0024C113.32 28.0024 111.499 28.4161 110.719 29.0628C110.557 28.8264 110.464 28.5691 110.481 28.2666Z" fill="#142239"/>
<path d="M115.769 31.7362C116.014 31.6597 116.228 31.4824 116.262 31.458C116.328 31.4024 116.335 31.3051 116.283 31.2425C116.228 31.1764 116.131 31.1695 116.069 31.2216C115.955 31.319 115.666 31.5032 115.503 31.4615C115.472 31.4546 115.428 31.4337 115.39 31.3468C115.176 30.8496 114.779 29.0869 114.776 29.0695C114.758 28.986 114.676 28.9339 114.593 28.9547C114.51 28.9721 114.458 29.0556 114.479 29.139C114.496 29.212 114.889 30.9504 115.114 31.4719C115.196 31.6701 115.338 31.7397 115.438 31.764C115.548 31.7918 115.666 31.7744 115.779 31.7397L115.769 31.7362Z" fill="#FF7A5D"/>
<path d="M114.289 33.4363C114.576 33.9613 115.266 34.8792 116.507 34.4829C117.749 34.0865 117.804 33.033 117.718 32.3446L114.289 33.4329V33.4363Z" fill="white"/>
<path d="M119.777 25.0642C120.095 26.2846 120.454 27.8248 120.602 29.0973L119.936 29.2572C119.936 29.2572 119.777 28.1933 119.643 27.5084C119.508 26.8235 119.246 25.5475 118.639 25.5718C118.032 25.5962 117.918 24.0837 116.952 23.7187C115.983 23.3536 114.193 23.7361 113.268 24.8139C112.344 25.8882 110.816 25.5336 110.326 25.8256C109.836 26.1142 109.346 27.0773 109.757 27.7031C110.167 28.3254 109.715 28.9269 109.795 29.6849C109.874 30.4393 110.926 32.2055 110.926 32.2055L110.343 32.5289C109.577 31.0686 109.046 29.518 108.718 28.3915C108.384 27.2442 108.673 26.0029 109.484 25.1268C111.678 22.7521 114.672 22.4253 116.752 22.5574C118.194 22.6478 119.419 23.6596 119.784 25.0642H119.777Z" fill="#142239"/>
<path d="M121.078 75.6099C121.078 75.6099 107.104 67.8531 102.706 68.7745C98.3075 69.6958 101.474 81.9446 103.616 88.7974C106.407 97.7258 111.971 108.16 111.971 108.16L116.138 106.341C111.302 90.0733 112.264 83.8673 109.487 80.4357C109.487 80.4357 116.304 87.3162 119.926 84.9416C123.548 82.5669 121.081 75.6064 121.081 75.6064L121.078 75.6099Z" fill="#18285D"/>
<path d="M112.285 107.77L113.776 112.183L116.922 109.857L115.424 106.366L112.285 107.77Z" fill="#FF9978"/>
<path d="M114.604 111.236C114.604 111.236 113.314 110.857 112.834 111.282C112.355 111.706 110.795 117.828 109.647 119.111C108.498 120.394 109.657 121.677 110.219 121.246C111.837 120.012 120.692 113.156 120.692 113.156C120.692 113.156 118.622 109.8 117.563 109.102C116.504 108.403 115.821 110.659 114.604 111.233V111.236Z" fill="#834BEA"/>
<path d="M114.086 115.078C114.145 115.057 114.193 115.012 114.221 114.95C114.272 114.828 114.217 114.689 114.096 114.637C114.055 114.619 113.11 114.216 112.348 114.355C111.333 114.539 111.075 115.395 111.064 115.433C111.026 115.558 111.099 115.69 111.223 115.728C111.347 115.767 111.478 115.694 111.516 115.568C111.523 115.544 111.709 114.96 112.43 114.824C113.051 114.71 113.9 115.071 113.91 115.075C113.969 115.099 114.031 115.099 114.086 115.078Z" fill="white"/>
<path d="M114.245 114.115C114.303 114.094 114.352 114.049 114.379 113.986C114.431 113.865 114.376 113.726 114.255 113.674C114.214 113.656 113.269 113.253 112.506 113.392C111.492 113.58 111.233 114.432 111.223 114.47C111.185 114.595 111.257 114.727 111.382 114.765C111.506 114.804 111.637 114.731 111.675 114.605C111.682 114.581 111.868 113.997 112.589 113.861C113.213 113.747 114.058 114.108 114.069 114.112C114.127 114.136 114.19 114.136 114.245 114.115Z" fill="white"/>
<path d="M113.652 116.09C113.71 116.069 113.758 116.024 113.786 115.962C113.838 115.84 113.783 115.701 113.662 115.649C113.62 115.631 112.675 115.228 111.913 115.367C110.899 115.555 110.64 116.407 110.63 116.445C110.592 116.57 110.664 116.702 110.788 116.74C110.913 116.779 111.044 116.706 111.082 116.58C111.089 116.556 111.275 115.972 111.996 115.836C112.62 115.722 113.465 116.083 113.476 116.087C113.534 116.111 113.596 116.111 113.652 116.09Z" fill="white"/>
<path d="M116.324 105.709C116.925 106.602 117.032 107.023 117.083 107.85C117.083 107.85 115.089 109.137 112.275 109.964L111.45 107.77C111.45 107.77 113.216 106.953 116.328 105.709H116.324Z" fill="#586199"/>
<path d="M139.781 104.37L136.284 106.818C136.284 106.818 129.002 99.9857 122.841 92.9765C118.115 87.5979 110.271 77.7098 113.917 75.064C117.56 72.4182 134.49 73.7011 134.49 73.7011C134.49 73.7011 137.853 79.8411 135.508 83.4952C135.428 83.6204 135.339 83.7386 135.242 83.8464C135.107 83.9994 134.959 84.135 134.8 84.2532C131.93 86.3949 125.314 83.1789 124.845 82.9459C128.75 84.9485 130.344 90.8452 139.778 104.37H139.781Z" fill="#3B3E7D"/>
<path d="M128.039 87.4553C126.646 85.331 125.08 83.9368 124.141 83.0989C123.8 82.7929 123.445 82.4765 123.386 82.3618C123.386 82.341 123.396 82.3201 123.434 82.2923C123.983 81.889 126.987 82.3792 129.743 83.3179C131.492 83.9159 133.459 84.1558 134.8 84.2497C134.959 84.1315 135.107 83.9959 135.242 83.8429C133.945 83.7699 131.782 83.5544 129.881 82.9042C127.608 82.1289 124.028 81.3153 123.179 81.9376C123.027 82.0489 122.948 82.2019 122.951 82.3827C122.951 82.6226 123.217 82.8555 123.852 83.4222C124.773 84.2428 126.315 85.6161 127.674 87.6917C129.802 90.9356 138.836 104.728 138.836 104.728L139.195 104.488C139.195 104.488 130.161 90.6992 128.036 87.4518L128.039 87.4553Z" fill="#18285D"/>
<path d="M136.408 106.504L139.074 109.849C140.664 110.256 141.485 109.23 141.63 106.946L139.105 103.991L136.404 106.504H136.408Z" fill="#FF9978"/>
<path d="M139.195 103.16C140.054 103.74 140.303 104.078 140.644 104.804C140.644 104.804 139.32 106.689 137.091 108.458L135.563 106.793C135.563 106.793 136.853 105.416 139.195 103.16Z" fill="#586199"/>
<path d="M140.358 107.85C140.358 107.85 139.095 107.37 138.102 108.848C137.108 110.325 138.45 111.654 138.45 111.654C138.45 111.654 139.271 115.516 139.271 116.563C139.271 118.68 139.085 118.979 139.927 119.748C141.148 120.864 143.98 119.233 143.918 116.844C143.856 114.452 144.27 108.681 143.673 108.146C141.8 106.47 140.765 105.83 140.765 105.83C141.01 106.317 141.031 107.301 140.361 107.847L140.358 107.85Z" fill="#834BEA"/>
<path d="M141.472 112.832C141.52 112.783 141.551 112.717 141.551 112.644C141.551 112.502 141.437 112.384 141.296 112.384C141.247 112.384 140.119 112.384 139.412 112.85C138.467 113.472 138.571 114.445 138.574 114.487C138.591 114.63 138.719 114.73 138.86 114.717C139.002 114.699 139.102 114.571 139.088 114.428C139.088 114.4 139.026 113.729 139.699 113.288C140.275 112.905 141.285 112.905 141.296 112.905C141.365 112.905 141.427 112.877 141.475 112.836L141.472 112.832Z" fill="white"/>
<path d="M141.227 111.796C141.275 111.747 141.306 111.681 141.306 111.608C141.306 111.466 141.193 111.348 141.051 111.348C141.003 111.348 139.875 111.348 139.168 111.813C138.223 112.436 138.323 113.409 138.329 113.451C138.347 113.594 138.474 113.694 138.616 113.681C138.757 113.663 138.857 113.535 138.843 113.392C138.843 113.364 138.781 112.693 139.454 112.252C140.034 111.869 141.041 111.869 141.051 111.869C141.12 111.869 141.182 111.841 141.231 111.8L141.227 111.796Z" fill="white"/>
<path d="M141.461 114.039C141.509 113.99 141.541 113.924 141.541 113.851C141.541 113.708 141.427 113.59 141.285 113.59C141.237 113.59 140.109 113.59 139.402 114.056C138.457 114.678 138.557 115.652 138.564 115.694C138.581 115.836 138.708 115.937 138.85 115.923C138.991 115.906 139.091 115.777 139.078 115.634C139.078 115.607 139.015 114.936 139.688 114.494C140.268 114.112 141.275 114.112 141.285 114.112C141.354 114.112 141.416 114.084 141.465 114.042L141.461 114.039Z" fill="white"/>
<path d="M141.472 112.832C141.52 112.783 141.551 112.717 141.551 112.644C141.551 112.502 141.437 112.384 141.296 112.384C141.247 112.384 140.119 112.384 139.412 112.85C138.467 113.472 138.571 114.445 138.574 114.487C138.591 114.63 138.719 114.73 138.86 114.717C139.002 114.699 139.102 114.571 139.088 114.428C139.088 114.4 139.026 113.729 139.699 113.288C140.275 112.905 141.285 112.905 141.296 112.905C141.365 112.905 141.427 112.877 141.475 112.836L141.472 112.832Z" fill="white"/>
<path d="M141.227 111.796C141.275 111.747 141.306 111.681 141.306 111.608C141.306 111.466 141.193 111.348 141.051 111.348C141.003 111.348 139.875 111.348 139.168 111.813C138.223 112.436 138.323 113.409 138.329 113.451C138.347 113.594 138.474 113.694 138.616 113.681C138.757 113.663 138.857 113.535 138.843 113.392C138.843 113.364 138.781 112.693 139.454 112.252C140.034 111.869 141.041 111.869 141.051 111.869C141.12 111.869 141.182 111.841 141.231 111.8L141.227 111.796Z" fill="white"/>
<path d="M141.461 114.039C141.509 113.99 141.541 113.924 141.541 113.851C141.541 113.708 141.427 113.59 141.285 113.59C141.237 113.59 140.109 113.59 139.402 114.056C138.457 114.678 138.557 115.652 138.564 115.694C138.581 115.836 138.708 115.937 138.85 115.923C138.991 115.906 139.091 115.777 139.078 115.634C139.078 115.607 139.015 114.936 139.688 114.494C140.268 114.112 141.275 114.112 141.285 114.112C141.354 114.112 141.416 114.084 141.465 114.042L141.461 114.039Z" fill="white"/>
<path d="M95.0064 67.6372C95.0064 67.6372 95.6549 68.6177 95.8964 69.7546C96.1378 70.8915 95.6204 71.5034 95.5756 72.4039C95.5273 73.3704 95.1789 73.5582 94.8581 73.0714C94.5373 72.5847 94.7546 71.6181 94.6649 71.333C94.5407 70.9471 94.3303 71.1801 94.0681 71.5834C93.7439 72.084 93.1954 72.8663 93.0816 73.7286C92.9643 74.6047 92.1606 75.4461 91.9881 75.3244C91.619 75.0671 91.9812 74.556 92.1744 74.0797C92.3675 73.6034 92.2813 72.8733 92.6607 72.244C92.6607 72.244 92.0122 73.0784 91.9605 73.7147C91.9053 74.3509 91.1016 75.3244 90.7945 75.2132C90.4875 75.1019 90.8601 74.3648 90.9946 73.9302C91.1292 73.4956 91.5293 72.3761 91.7984 71.9936C91.7984 71.9936 91.2257 72.682 91.0257 73.1757C90.8256 73.6729 90.4772 74.7681 90.1598 74.8064C89.8425 74.8446 89.8942 74.5769 90.2047 73.7738C90.5151 72.9706 90.6635 72.4317 90.9049 72.1258C90.9049 72.1258 90.5082 72.4421 90.1909 73.0228C89.8735 73.6034 89.7183 73.8572 89.5113 73.8885C89.3044 73.9198 89.1871 73.9024 89.4561 73.4017C89.7217 72.9011 89.8011 72.6542 89.9908 72.2405C90.1805 71.8267 90.6221 71.3191 90.76 70.9019C90.8946 70.4847 91.105 69.9806 91.3706 69.5216C91.6362 69.0627 92.4676 66.702 92.4676 66.702C93.3782 66.702 94.2406 66.9558 95.0133 67.6303L95.0064 67.6372Z" fill="#FF9978"/>
<path d="M111.35 45.636C107.987 48.7443 102.157 51.7865 100.443 52.8121C100.17 52.9756 99.9978 53.0764 99.9495 53.1042L99.9392 53.1112C100.06 54.1646 97.9523 58.1386 97.0313 62.1404C96.5035 64.4281 95.1099 67.8006 95.1099 67.8006C94.3717 67.2409 92.9574 66.7332 92.2261 67.366C92.2261 67.366 94.3337 53.3302 96.2689 50.6357C99.1113 46.6791 109.329 38.898 109.329 38.898C110.781 40.6399 111.354 45.636 111.354 45.636H111.35Z" fill="#00CAD1"/>
<path d="M100.446 52.8122C100.174 52.9756 100.001 53.0764 99.9531 53.1042C99.9531 53.1042 99.9359 53.0973 99.9255 53.0973C98.8562 52.7565 98.0593 52.1933 98.0076 52.155C97.9144 52.089 97.8938 51.9603 97.9593 51.8699C98.0248 51.7761 98.1525 51.7552 98.2421 51.8213C98.2559 51.8317 99.2322 52.5236 100.443 52.8156L100.446 52.8122Z" fill="#00AAC3"/>
<path d="M140.371 26.4545C138.884 31.9409 130.329 41.4152 130.329 41.4152C129.308 38.8215 125.169 35.7202 125.169 35.7202C128.208 33.648 134.682 27.1117 135.252 26.5345L135.293 26.4928C135.255 26.4024 135.224 26.2737 135.203 26.1069C134.993 24.4589 135.562 19.2784 135.3 15.5583C135.138 13.2149 134.438 8.50732 134.438 8.50732C135.528 8.22918 136.476 7.91279 137.187 7.28696C137.187 7.28696 141.906 20.7908 140.367 26.4545H140.371Z" fill="#00CAD1"/>
<path d="M134.699 8.63972C134.699 8.63972 132.861 8.05214 132.402 7.22814C131.943 6.40414 131.819 6.36937 131.236 5.78527C130.653 5.20117 130.532 4.89521 130.664 4.72485C131.095 4.17551 131.94 5.41325 132.412 5.62186C132.885 5.83047 132.833 5.62534 132.802 5.36458C132.771 5.10382 130.17 1.76262 130.37 1.24457C130.57 0.726531 132.357 3.45234 132.761 3.67485C132.833 3.7131 132.957 3.51144 132.544 2.72569C132.13 1.93993 131.122 0.288454 131.519 0.0137875C131.916 -0.260879 133.354 2.85433 133.782 3.04555C134.065 3.17072 132.561 0.267594 133.013 0.180674C133.465 0.0937539 134.565 2.96906 134.896 3.06294C135.227 3.15333 134.375 1.02554 134.741 0.969906C135.338 0.87951 135.776 3.54274 136.224 4.24853C136.676 4.95431 137.159 6.62665 137.187 7.28724C136.345 8.1634 135.886 8.45197 134.696 8.63624L134.699 8.63972Z" fill="#FF9978"/>
<path d="M138.27 26.2984C137.68 26.5418 137.045 26.6287 136.462 26.6322C136.014 26.6356 135.596 26.5904 135.251 26.5348L135.293 26.4931C135.255 26.4027 135.224 26.274 135.203 26.1072C135.941 26.2358 137.114 26.3332 138.115 25.9159C138.218 25.8742 138.339 25.9229 138.38 26.0272C138.422 26.1315 138.373 26.2532 138.27 26.2949V26.2984Z" fill="#00AAC3"/>
</g>
<defs>
<clipPath id="clip0_29404_2200">
<rect width="144" height="140.4" fill="white"/>
</clipPath>
</defs>
</svg>
